Scheherazade.sfdir
StartChar: exclam
Encoding: 33 33 5
Width: 555
GlyphClass: 2
Flags: W
LayerCount: 2
Fore
SplineSet
362 838 m 0,0,1
 362 772 362 772 352.5 705 c 128,-1,2
 343 638 343 638 328 555 c 0,3,4
 322 521 322 521 317.5 498.5 c 128,-1,5
 313 476 313 476 309.5 456.5 c 128,-1,6
 306 437 306 437 304 416 c 128,-1,7
 302 395 302 395 301 364.5 c 128,-1,8
 300 334 300 334 299.5 288.5 c 128,-1,9
 299 243 299 243 299 174 c 0,10,11
 299 169 299 169 292.5 166.5 c 128,-1,12
 286 164 286 164 277.5 164 c 128,-1,13
 269 164 269 164 262.5 166.5 c 128,-1,14
 256 169 256 169 256 174 c 0,15,16
 256 243 256 243 255.5 288.5 c 128,-1,17
 255 334 255 334 254 364.5 c 128,-1,18
 253 395 253 395 251 416 c 128,-1,19
 249 437 249 437 245.5 456.5 c 128,-1,20
 242 476 242 476 237.5 498.5 c 128,-1,21
 233 521 233 521 227 555 c 0,22,23
 212 638 212 638 202.5 705 c 128,-1,24
 193 772 193 772 193 838 c 0,25,26
 193 909 193 909 217 945 c 128,-1,27
 241 981 241 981 276 981 c 0,28,29
 314 981 314 981 338 945 c 128,-1,30
 362 909 362 909 362 838 c 0,0,1
365 14 m 0,31,32
 365 -4 365 -4 358 -19.5 c 128,-1,33
 351 -35 351 -35 339 -46.5 c 128,-1,34
 327 -58 327 -58 311 -65 c 128,-1,35
 295 -72 295 -72 276 -72 c 0,36,37
 258 -72 258 -72 242.5 -65 c 128,-1,38
 227 -58 227 -58 215.5 -46.5 c 128,-1,39
 204 -35 204 -35 197 -19.5 c 128,-1,40
 190 -4 190 -4 190 14 c 256,41,42
 190 32 190 32 197 48 c 128,-1,43
 204 64 204 64 215.5 76 c 128,-1,44
 227 88 227 88 242.5 95 c 128,-1,45
 258 102 258 102 276 102 c 0,46,47
 314 102 314 102 339.5 76.5 c 128,-1,48
 365 51 365 51 365 14 c 0,31,32
EndSplineSet
EndChar
StartChar: quotedbl
Encoding: 34 34 6
Width: 629
GlyphClass: 2
Flags: W
LayerCount: 2
Fore
SplineSet
528 965 m 0,0,1
 528 921 528 921 522 875.5 c 128,-1,2
 516 830 516 830 507.5 784 c 128,-1,3
 499 738 499 738 489 693 c 128,-1,4
 479 648 479 648 471 606 c 1,5,-1
 434 606 l 1,6,7
 428 640 428 640 418 684.5 c 128,-1,8
 408 729 408 729 398.5 776.5 c 128,-1,9
 389 824 389 824 382 870.5 c 128,-1,10
 375 917 375 917 375 954 c 0,11,12
 375 995 375 995 392 1019.5 c 128,-1,13
 409 1044 409 1044 453 1044 c 0,14,15
 488 1044 488 1044 508 1021.5 c 128,-1,16
 528 999 528 999 528 965 c 0,0,1
252 965 m 256,17,18
 252 931 252 931 244 880.5 c 128,-1,19
 236 830 236 830 225.5 777.5 c 128,-1,20
 215 725 215 725 205 678.5 c 128,-1,21
 195 632 195 632 190 606 c 1,22,-1
 160 606 l 1,23,24
 152 645 152 645 141.5 688.5 c 128,-1,25
 131 732 131 732 122 777.5 c 128,-1,26
 113 823 113 823 106.5 868 c 128,-1,27
 100 913 100 913 100 954 c 0,28,29
 100 993 100 993 116.5 1018.5 c 128,-1,30
 133 1044 133 1044 176 1044 c 0,31,32
 211 1044 211 1044 231.5 1021.5 c 128,-1,33
 252 999 252 999 252 965 c 256,17,18
EndSplineSet
EndChar
StartChar: percent
Encoding: 37 37 9
Width: 1335
GlyphClass: 2
Flags: W
LayerCount: 2
Fore
SplineSet
1219 383 m 0,0,1
 1219 342 1219 342 1210 295.5 c 128,-1,2
 1201 249 1201 249 1183 204 c 128,-1,3
 1165 159 1165 159 1139 118 c 128,-1,4
 1113 77 1113 77 1079.5 45.5 c 128,-1,5
 1046 14 1046 14 1004.5 -4.5 c 128,-1,6
 963 -23 963 -23 915 -23 c 0,7,8
 811 -23 811 -23 765 33.5 c 128,-1,9
 719 90 719 90 719 190 c 0,10,11
 719 254 719 254 747 318.5 c 128,-1,12
 775 383 775 383 821.5 435 c 128,-1,13
 868 487 868 487 928.5 520 c 128,-1,14
 989 553 989 553 1055 553 c 0,15,16
 1090 553 1090 553 1120 539.5 c 128,-1,17
 1150 526 1150 526 1172 503 c 128,-1,18
 1194 480 1194 480 1206.5 449 c 128,-1,19
 1219 418 1219 418 1219 383 c 0,0,1
408 -23 m 1,20,-1
 334 -23 l 1,21,-1
 874 948 l 1,22,23
 828 928 828 928 781 917.5 c 128,-1,24
 734 907 734 907 684 907 c 0,25,26
 664 907 664 907 644.5 909.5 c 128,-1,27
 625 912 625 912 606 920 c 1,28,29
 606 898 606 898 612 877.5 c 128,-1,30
 618 857 618 857 618 836 c 0,31,32
 618 775 618 775 594 706.5 c 128,-1,33
 570 638 570 638 527 580 c 128,-1,34
 484 522 484 522 426.5 484 c 128,-1,35
 369 446 369 446 301 446 c 0,36,37
 250 446 250 446 215 462 c 128,-1,38
 180 478 180 478 158.5 506 c 128,-1,39
 137 534 137 534 127 573.5 c 128,-1,40
 117 613 117 613 117 659 c 0,41,42
 117 722 117 722 144.5 787 c 128,-1,43
 172 852 172 852 218.5 905.5 c 128,-1,44
 265 959 265 959 325 992.5 c 128,-1,45
 385 1026 385 1026 451 1026 c 0,46,47
 492 1026 492 1026 518 1013 c 128,-1,48
 544 1000 544 1000 569 984 c 128,-1,49
 594 968 594 968 623 955 c 128,-1,50
 652 942 652 942 698 942 c 0,51,52
 768 942 768 942 828 967 c 128,-1,53
 888 992 888 992 932 1049 c 1,54,-1
 1006 1049 l 1,55,-1
 408 -23 l 1,20,-1
1180 375 m 0,56,57
 1180 399 1180 399 1173 422 c 128,-1,58
 1166 445 1166 445 1152.5 463 c 128,-1,59
 1139 481 1139 481 1118.5 492.5 c 128,-1,60
 1098 504 1098 504 1071 504 c 0,61,62
 1036 504 1036 504 1005 485 c 128,-1,63
 974 466 974 466 947.5 434.5 c 128,-1,64
 921 403 921 403 900.5 363 c 128,-1,65
 880 323 880 323 865.5 282 c 128,-1,66
 851 241 851 241 843.5 202 c 128,-1,67
 836 163 836 163 836 133 c 0,68,69
 836 84 836 84 858.5 54.5 c 128,-1,70
 881 25 881 25 932 25 c 0,71,72
 969 25 969 25 1002 42 c 128,-1,73
 1035 59 1035 59 1062.5 87.5 c 128,-1,74
 1090 116 1090 116 1112 152.5 c 128,-1,75
 1134 189 1134 189 1149 228 c 128,-1,76
 1164 267 1164 267 1172 305 c 128,-1,77
 1180 343 1180 343 1180 375 c 0,56,57
578 858 m 0,78,79
 578 874 578 874 572.5 894 c 128,-1,80
 567 914 567 914 565 930 c 1,81,82
 554 933 554 933 538.5 941.5 c 128,-1,83
 523 950 523 950 507.5 958.5 c 128,-1,84
 492 967 492 967 478.5 974 c 128,-1,85
 465 981 465 981 457 981 c 0,86,87
 438 981 438 981 418.5 970 c 128,-1,88
 399 959 399 959 382 942.5 c 128,-1,89
 365 926 365 926 350.5 908.5 c 128,-1,90
 336 891 336 891 326 877 c 0,91,92
 282 820 282 820 259 753.5 c 128,-1,93
 236 687 236 687 236 614 c 0,94,95
 236 565 236 565 257 532.5 c 128,-1,96
 278 500 278 500 332 500 c 0,97,98
 370 500 370 500 403 517.5 c 128,-1,99
 436 535 436 535 463.5 564 c 128,-1,100
 491 593 491 593 512.5 630 c 128,-1,101
 534 667 534 667 548.5 707 c 128,-1,102
 563 747 563 747 570.5 786 c 128,-1,103
 578 825 578 825 578 858 c 0,78,79
EndSplineSet
EndChar
StartChar: parenright
Encoding: 41 41 13
Width: 547
GlyphClass: 2
Flags: W
LayerCount: 2
Fore
SplineSet
469 246 m 256,0,1
 469 169 469 169 454.5 105 c 128,-1,2
 440 41 440 41 414.5 -13.5 c 128,-1,3
 389 -68 389 -68 355 -114 c 128,-1,4
 321 -160 321 -160 283 -201 c 0,5,6
 255 -231 255 -231 222.5 -258.5 c 128,-1,7
 190 -286 190 -286 159.5 -309 c 128,-1,8
 129 -332 129 -332 101.5 -349 c 128,-1,9
 74 -366 74 -366 55 -375 c 1,10,-1
 43 -362 l 1,11,12
 108 -297 108 -297 157.5 -239 c 128,-1,13
 207 -181 207 -181 242 -113 c 0,14,15
 260 -79 260 -79 278 -40.5 c 128,-1,16
 296 -2 296 -2 309.5 42.5 c 128,-1,17
 323 87 323 87 331.5 137.5 c 128,-1,18
 340 188 340 188 340 246 c 0,19,20
 340 303 340 303 331.5 353 c 128,-1,21
 323 403 323 403 309.5 447 c 128,-1,22
 296 491 296 491 278 529.5 c 128,-1,23
 260 568 260 568 242 602 c 0,24,25
 207 670 207 670 157.5 729.5 c 128,-1,26
 108 789 108 789 43 852 c 1,27,-1
 55 864 l 1,28,29
 74 856 74 856 101.5 839 c 128,-1,30
 129 822 129 822 159.5 799 c 128,-1,31
 190 776 190 776 222.5 748 c 128,-1,32
 255 720 255 720 283 690 c 0,33,34
 321 650 321 650 355 604 c 128,-1,35
 389 558 389 558 414.5 504 c 128,-1,36
 440 450 440 450 454.5 386.5 c 128,-1,37
 469 323 469 323 469 246 c 256,0,1
EndSplineSet
EndChar
StartChar: asterisk
Encoding: 42 42 14
Width: 688
GlyphClass: 2
Flags: W
LayerCount: 2
Fore
SplineSet
578 471 m 0,0,1
 590 460 590 460 586 437 c 128,-1,2
 582 414 582 414 551 383 c 0,3,4
 536 368 536 368 510 350 c 128,-1,5
 484 332 484 332 458.5 316 c 128,-1,6
 433 300 433 300 413 291 c 128,-1,7
 393 282 393 282 391 285 c 0,8,9
 388 287 388 287 397.5 307 c 128,-1,10
 407 327 407 327 422.5 352.5 c 128,-1,11
 438 378 438 378 456.5 404 c 128,-1,12
 475 430 475 430 489 444 c 0,13,14
 518 475 518 475 542.5 479 c 128,-1,15
 567 483 567 483 578 471 c 0,0,1
387 487 m 0,16,17
 387 466 387 466 381.5 435 c 128,-1,18
 376 404 376 404 368.5 374.5 c 128,-1,19
 361 345 361 345 354 324 c 128,-1,20
 347 303 347 303 344 303 c 0,21,22
 340 303 340 303 332.5 324 c 128,-1,23
 325 345 325 345 317.5 374.5 c 128,-1,24
 310 404 310 404 304.5 435 c 128,-1,25
 299 466 299 466 299 487 c 0,26,27
 299 531 299 531 313 550 c 128,-1,28
 327 569 327 569 344 569 c 256,29,30
 361 569 361 569 374 550 c 128,-1,31
 387 531 387 531 387 487 c 0,16,17
676 238 m 256,32,33
 676 221 676 221 656 208 c 128,-1,34
 636 195 636 195 594 195 c 0,35,36
 573 195 573 195 541.5 200 c 128,-1,37
 510 205 510 205 480.5 212 c 128,-1,38
 451 219 451 219 430.5 226.5 c 128,-1,39
 410 234 410 234 410 238 c 256,40,41
 410 242 410 242 430.5 249 c 128,-1,42
 451 256 451 256 480.5 263 c 128,-1,43
 510 270 510 270 541.5 275.5 c 128,-1,44
 573 281 573 281 594 281 c 0,45,46
 636 281 636 281 656 268 c 128,-1,47
 676 255 676 255 676 238 c 256,32,33
297 285 m 0,48,49
 295 282 295 282 275 291 c 128,-1,50
 255 300 255 300 229 316 c 128,-1,51
 203 332 203 332 176.5 350 c 128,-1,52
 150 368 150 368 135 383 c 0,53,54
 106 414 106 414 102 437 c 128,-1,55
 98 460 98 460 109 471 c 0,56,57
 121 483 121 483 144.5 479 c 128,-1,58
 168 475 168 475 199 444 c 0,59,60
 214 430 214 430 232 404 c 128,-1,61
 250 378 250 378 265 352.5 c 128,-1,62
 280 327 280 327 289.5 307 c 128,-1,63
 299 287 299 287 297 285 c 0,48,49
578 4 m 0,64,65
 567 -8 567 -8 542.5 -4 c 128,-1,66
 518 0 518 0 489 31 c 0,67,68
 475 46 475 46 456.5 71.5 c 128,-1,69
 438 97 438 97 422.5 122.5 c 128,-1,70
 407 148 407 148 397.5 168 c 128,-1,71
 388 188 388 188 391 190 c 0,72,73
 393 193 393 193 413 184 c 128,-1,74
 433 175 433 175 458.5 159 c 128,-1,75
 484 143 484 143 510 125 c 128,-1,76
 536 107 536 107 551 92 c 0,77,78
 582 61 582 61 586 38 c 128,-1,79
 590 15 590 15 578 4 c 0,64,65
279 238 m 256,80,81
 279 234 279 234 258 226.5 c 128,-1,82
 237 219 237 219 207.5 212 c 128,-1,83
 178 205 178 205 146.5 200 c 128,-1,84
 115 195 115 195 94 195 c 0,85,86
 51 195 51 195 31.5 208 c 128,-1,87
 12 221 12 221 12 238 c 256,88,89
 12 255 12 255 31.5 268 c 128,-1,90
 51 281 51 281 94 281 c 0,91,92
 115 281 115 281 146.5 275.5 c 128,-1,93
 178 270 178 270 207.5 263 c 128,-1,94
 237 256 237 256 258 249 c 128,-1,95
 279 242 279 242 279 238 c 256,80,81
387 -12 m 0,96,97
 387 -56 387 -56 374 -75 c 128,-1,98
 361 -94 361 -94 344 -94 c 256,99,100
 327 -94 327 -94 313 -75 c 128,-1,101
 299 -56 299 -56 299 -12 c 0,102,103
 299 9 299 9 304.5 40 c 128,-1,104
 310 71 310 71 317.5 100.5 c 128,-1,105
 325 130 325 130 332.5 151 c 128,-1,106
 340 172 340 172 344 172 c 0,107,108
 347 172 347 172 354 151 c 128,-1,109
 361 130 361 130 368.5 100.5 c 128,-1,110
 376 71 376 71 381.5 40 c 128,-1,111
 387 9 387 9 387 -12 c 0,96,97
297 190 m 0,112,113
 299 188 299 188 289.5 168 c 128,-1,114
 280 148 280 148 265 122.5 c 128,-1,115
 250 97 250 97 232 71.5 c 128,-1,116
 214 46 214 46 199 31 c 0,117,118
 168 0 168 0 144.5 -4 c 128,-1,119
 121 -8 121 -8 109 4 c 0,120,121
 98 15 98 15 102 38 c 128,-1,122
 106 61 106 61 135 92 c 0,123,124
 150 107 150 107 176.5 125 c 128,-1,125
 203 143 203 143 229 159 c 128,-1,126
 255 175 255 175 275 184 c 128,-1,127
 295 193 295 193 297 190 c 0,112,113
EndSplineSet
EndChar
StartChar: plus
Encoding: 43 43 15
Width: 915
GlyphClass: 2
Flags: W
LayerCount: 2
Fore
SplineSet
485 389 m 1,0,-1
 485 4 l 1,1,-1
 424 4 l 1,2,-1
 424 389 l 1,3,-1
 37 389 l 1,4,-1
 37 453 l 1,5,-1
 424 453 l 1,6,-1
 424 840 l 1,7,-1
 485 840 l 1,8,-1
 485 453 l 1,9,-1
 872 453 l 1,10,-1
 872 389 l 1,11,-1
 485 389 l 1,0,-1
EndSplineSet
EndChar
StartChar: hyphen
Encoding: 45 45 17
Width: 514
GlyphClass: 2
Flags: W
LayerCount: 2
Fore
SplineSet
61 238 m 1,0,-1
 61 352 l 1,1,-1
 451 352 l 1,2,-1
 451 238 l 1,3,-1
 61 238 l 1,0,-1
EndSplineSet
EndChar
StartChar: zero
Encoding: 48 48 20
Width: 772
GlyphClass: 2
Flags: W
LayerCount: 2
Fore
SplineSet
717 520 m 0,0,1
 717 469 717 469 710 409.5 c 128,-1,2
 703 350 703 350 687 290.5 c 128,-1,3
 671 231 671 231 645.5 175 c 128,-1,4
 620 119 620 119 582.5 76.5 c 128,-1,5
 545 34 545 34 495.5 8 c 128,-1,6
 446 -18 446 -18 381 -18 c 0,7,8
 321 -18 321 -18 273 7.5 c 128,-1,9
 225 33 225 33 189 75 c 128,-1,10
 153 117 153 117 127.5 171.5 c 128,-1,11
 102 226 102 226 86 284.5 c 128,-1,12
 70 343 70 343 62.5 400.5 c 128,-1,13
 55 458 55 458 55 506 c 0,14,15
 55 555 55 555 62.5 614 c 128,-1,16
 70 673 70 673 86 732.5 c 128,-1,17
 102 792 102 792 128 848.5 c 128,-1,18
 154 905 154 905 191 948.5 c 128,-1,19
 228 992 228 992 277.5 1018 c 128,-1,20
 327 1044 327 1044 389 1044 c 256,21,22
 451 1044 451 1044 499.5 1018.5 c 128,-1,23
 548 993 548 993 584.5 951.5 c 128,-1,24
 621 910 621 910 646 855.5 c 128,-1,25
 671 801 671 801 687 742.5 c 128,-1,26
 703 684 703 684 710 626.5 c 128,-1,27
 717 569 717 569 717 520 c 0,0,1
569 553 m 256,28,29
 569 582 569 582 567.5 626 c 128,-1,30
 566 670 566 670 560 719.5 c 128,-1,31
 554 769 554 769 542 818 c 128,-1,32
 530 867 530 867 510 906.5 c 128,-1,33
 490 946 490 946 460 970.5 c 128,-1,34
 430 995 430 995 387 995 c 0,35,36
 343 995 343 995 312.5 965.5 c 128,-1,37
 282 936 282 936 261.5 889 c 128,-1,38
 241 842 241 842 229 784 c 128,-1,39
 217 726 217 726 211.5 669.5 c 128,-1,40
 206 613 206 613 204.5 564.5 c 128,-1,41
 203 516 203 516 203 487 c 256,42,43
 203 458 203 458 204.5 413 c 128,-1,44
 206 368 206 368 212 317.5 c 128,-1,45
 218 267 218 267 229.5 215.5 c 128,-1,46
 241 164 241 164 261.5 123 c 128,-1,47
 282 82 282 82 312 56.5 c 128,-1,48
 342 31 342 31 385 31 c 0,49,50
 432 31 432 31 463.5 61.5 c 128,-1,51
 495 92 495 92 515.5 140.5 c 128,-1,52
 536 189 536 189 547 248.5 c 128,-1,53
 558 308 558 308 563 366 c 128,-1,54
 568 424 568 424 568.5 474 c 128,-1,55
 569 524 569 524 569 553 c 256,28,29
EndSplineSet
Substitution2: "Single Substitution lookup 22 subtable" zeroSmall
Substitution2: "Single Substitution lookup 21 subtable" zeroMedium
EndChar
StartChar: one
Encoding: 49 49 21
Width: 772
GlyphClass: 2
Flags: W
LayerCount: 2
Fore
SplineSet
199 0 m 1,0,-1
 199 29 l 1,1,2
 248 29 248 29 275 35.5 c 128,-1,3
 302 42 302 42 314.5 59 c 128,-1,4
 327 76 327 76 329.5 105.5 c 128,-1,5
 332 135 332 135 332 180 c 2,6,-1
 332 756 l 2,7,8
 332 774 332 774 332.5 802 c 128,-1,9
 333 830 333 830 328.5 856.5 c 128,-1,10
 324 883 324 883 311 902.5 c 128,-1,11
 298 922 298 922 270 922 c 0,12,13
 250 922 250 922 230 914.5 c 128,-1,14
 210 907 210 907 193 899 c 1,15,-1
 180 922 l 1,16,-1
 430 1044 l 1,17,-1
 457 1044 l 1,18,-1
 457 180 l 2,19,20
 457 136 457 136 458.5 107 c 128,-1,21
 460 78 460 78 471.5 60.5 c 128,-1,22
 483 43 483 43 509 36 c 128,-1,23
 535 29 535 29 584 29 c 1,24,-1
 584 0 l 1,25,-1
 199 0 l 1,0,-1
EndSplineSet
Substitution2: "Single Substitution lookup 22 subtable" oneSmall
Substitution2: "Single Substitution lookup 21 subtable" oneMedium
EndChar
StartChar: three
Encoding: 51 51 23
Width: 772
GlyphClass: 2
Flags: W
LayerCount: 2
Fore
SplineSet
645 338 m 0,0,1
 645 250 645 250 613 183 c 128,-1,2
 581 116 581 116 525.5 71.5 c 128,-1,3
 470 27 470 27 396.5 4.5 c 128,-1,4
 323 -18 323 -18 240 -18 c 0,5,6
 220 -18 220 -18 189.5 -16 c 128,-1,7
 159 -14 159 -14 131 -6 c 128,-1,8
 103 2 103 2 83 18 c 128,-1,9
 63 34 63 34 63 63 c 0,10,11
 63 86 63 86 82 101.5 c 128,-1,12
 101 117 101 117 123 117 c 0,13,14
 147 117 147 117 171.5 106 c 128,-1,15
 196 95 196 95 222.5 82 c 128,-1,16
 249 69 249 69 278.5 58 c 128,-1,17
 308 47 308 47 342 47 c 0,18,19
 382 47 382 47 417 63.5 c 128,-1,20
 452 80 452 80 477.5 107.5 c 128,-1,21
 503 135 503 135 517.5 171 c 128,-1,22
 532 207 532 207 532 246 c 0,23,24
 532 314 532 314 509 362.5 c 128,-1,25
 486 411 486 411 446 442.5 c 128,-1,26
 406 474 406 474 352 489.5 c 128,-1,27
 298 505 298 505 236 506 c 1,28,-1
 236 530 l 1,29,30
 282 536 282 536 323.5 555.5 c 128,-1,31
 365 575 365 575 397 606 c 128,-1,32
 429 637 429 637 448 678.5 c 128,-1,33
 467 720 467 720 467 768 c 0,34,35
 467 805 467 805 455 836.5 c 128,-1,36
 443 868 443 868 421 891 c 128,-1,37
 399 914 399 914 368 927 c 128,-1,38
 337 940 337 940 299 940 c 0,39,40
 234 940 234 940 186.5 904.5 c 128,-1,41
 139 869 139 869 104 815 c 1,42,-1
 78 827 l 1,43,44
 100 873 100 873 125 912.5 c 128,-1,45
 150 952 150 952 182.5 981.5 c 128,-1,46
 215 1011 215 1011 256.5 1027.5 c 128,-1,47
 298 1044 298 1044 354 1044 c 0,48,49
 400 1044 400 1044 443 1030.5 c 128,-1,50
 486 1017 486 1017 519 990.5 c 128,-1,51
 552 964 552 964 572 925.5 c 128,-1,52
 592 887 592 887 592 836 c 0,53,54
 592 801 592 801 579.5 769 c 128,-1,55
 567 737 567 737 547.5 708 c 128,-1,56
 528 679 528 679 503.5 653.5 c 128,-1,57
 479 628 479 628 455 606 c 1,58,59
 548 572 548 572 596.5 505 c 128,-1,60
 645 438 645 438 645 338 c 0,0,1
EndSplineSet
Substitution2: "Single Substitution lookup 22 subtable" threeSmall
Substitution2: "Single Substitution lookup 21 subtable" threeMedium
EndChar
StartChar: four
Encoding: 52 52 24
Width: 772
GlyphClass: 2
Flags: W
LayerCount: 2
Fore
SplineSet
582 270 m 1,0,-1
 582 0 l 1,1,-1
 457 0 l 1,2,-1
 457 270 l 1,3,-1
 25 270 l 1,4,-1
 25 365 l 1,5,-1
 500 1044 l 1,6,-1
 582 1044 l 1,7,-1
 582 377 l 1,8,-1
 717 377 l 1,9,-1
 717 270 l 1,10,-1
 582 270 l 1,0,-1
457 885 m 1,11,-1
 98 377 l 1,12,-1
 457 377 l 1,13,-1
 457 885 l 1,11,-1
EndSplineSet
Substitution2: "Single Substitution lookup 22 subtable" fourSmall
Substitution2: "Single Substitution lookup 21 subtable" fourMedium
EndChar
StartChar: five
Encoding: 53 53 25
Width: 772
GlyphClass: 2
Flags: W
LayerCount: 2
Fore
SplineSet
612 893 m 1,0,-1
 305 893 l 1,1,-1
 236 758 l 1,2,3
 313 750 313 750 388 719.5 c 128,-1,4
 463 689 463 689 522 639 c 128,-1,5
 581 589 581 589 617 521 c 128,-1,6
 653 453 653 453 653 369 c 0,7,8
 653 287 653 287 620 216 c 128,-1,9
 587 145 587 145 531.5 93 c 128,-1,10
 476 41 476 41 403 11.5 c 128,-1,11
 330 -18 330 -18 250 -18 c 0,12,13
 227 -18 227 -18 196.5 -14 c 128,-1,14
 166 -10 166 -10 139 0.5 c 128,-1,15
 112 11 112 11 93 31 c 128,-1,16
 74 51 74 51 74 82 c 0,17,18
 74 111 74 111 89.5 124 c 128,-1,19
 105 137 105 137 133 137 c 0,20,21
 156 137 156 137 178 125 c 128,-1,22
 200 113 200 113 223.5 98 c 128,-1,23
 247 83 247 83 274 71 c 128,-1,24
 301 59 301 59 334 59 c 0,25,26
 381 59 381 59 421.5 77.5 c 128,-1,27
 462 96 462 96 491.5 127.5 c 128,-1,28
 521 159 521 159 538 200.5 c 128,-1,29
 555 242 555 242 555 289 c 0,30,31
 555 378 555 378 513.5 440.5 c 128,-1,32
 472 503 472 503 407 543 c 128,-1,33
 342 583 342 583 263 602.5 c 128,-1,34
 184 622 184 622 109 625 c 1,35,-1
 305 1022 l 1,36,-1
 670 1022 l 1,37,-1
 612 893 l 1,0,-1
EndSplineSet
Substitution2: "Single Substitution lookup 22 subtable" fiveSmall
Substitution2: "Single Substitution lookup 21 subtable" fiveMedium
EndChar
StartChar: eight
Encoding: 56 56 28
Width: 772
GlyphClass: 2
Flags: W
LayerCount: 2
Fore
SplineSet
684 242 m 0,0,1
 684 178 684 178 660 129 c 128,-1,2
 636 80 636 80 595 47.5 c 128,-1,3
 554 15 554 15 500 -1.5 c 128,-1,4
 446 -18 446 -18 387 -18 c 0,5,6
 333 -18 333 -18 280 -1 c 128,-1,7
 227 16 227 16 185 48.5 c 128,-1,8
 143 81 143 81 117.5 127.5 c 128,-1,9
 92 174 92 174 92 233 c 0,10,11
 92 278 92 278 111.5 319 c 128,-1,12
 131 360 131 360 161 395.5 c 128,-1,13
 191 431 191 431 227 460.5 c 128,-1,14
 263 490 263 490 297 514 c 1,15,16
 263 543 263 543 228.5 573 c 128,-1,17
 194 603 194 603 166 637 c 128,-1,18
 138 671 138 671 121 711 c 128,-1,19
 104 751 104 751 104 801 c 0,20,21
 104 859 104 859 128 904.5 c 128,-1,22
 152 950 152 950 191.5 981 c 128,-1,23
 231 1012 231 1012 282 1028 c 128,-1,24
 333 1044 333 1044 387 1044 c 0,25,26
 435 1044 435 1044 484 1030.5 c 128,-1,27
 533 1017 533 1017 572.5 989 c 128,-1,28
 612 961 612 961 637 920 c 128,-1,29
 662 879 662 879 662 823 c 0,30,31
 662 778 662 778 641.5 740 c 128,-1,32
 621 702 621 702 590 670.5 c 128,-1,33
 559 639 559 639 522 613.5 c 128,-1,34
 485 588 485 588 451 567 c 1,35,36
 490 536 490 536 531.5 502 c 128,-1,37
 573 468 573 468 606.5 428.5 c 128,-1,38
 640 389 640 389 662 343 c 128,-1,39
 684 297 684 297 684 242 c 0,0,1
553 831 m 0,40,41
 553 999 553 999 387 999 c 0,42,43
 353 999 353 999 322 989.5 c 128,-1,44
 291 980 291 980 267 961.5 c 128,-1,45
 243 943 243 943 229 915 c 128,-1,46
 215 887 215 887 215 850 c 0,47,48
 215 808 215 808 235 771.5 c 128,-1,49
 255 735 255 735 285.5 704 c 128,-1,50
 316 673 316 673 351 646.5 c 128,-1,51
 386 620 386 620 416 596 c 1,52,53
 445 623 445 623 469.5 647.5 c 128,-1,54
 494 672 494 672 513 698.5 c 128,-1,55
 532 725 532 725 542.5 757 c 128,-1,56
 553 789 553 789 553 831 c 0,40,41
575 180 m 0,57,58
 575 229 575 229 549.5 272.5 c 128,-1,59
 524 316 524 316 487 354 c 128,-1,60
 450 392 450 392 408 425 c 128,-1,61
 366 458 366 458 332 487 c 1,62,63
 275 438 275 438 242 375.5 c 128,-1,64
 209 313 209 313 209 236 c 0,65,66
 209 193 209 193 221 154.5 c 128,-1,67
 233 116 233 116 256.5 87.5 c 128,-1,68
 280 59 280 59 315 42 c 128,-1,69
 350 25 350 25 397 25 c 0,70,71
 433 25 433 25 465 35 c 128,-1,72
 497 45 497 45 521.5 64.5 c 128,-1,73
 546 84 546 84 560.5 113 c 128,-1,74
 575 142 575 142 575 180 c 0,57,58
EndSplineSet
Substitution2: "Single Substitution lookup 22 subtable" eightSmall
Substitution2: "Single Substitution lookup 21 subtable" eightMedium
EndChar
StartChar: nine
Encoding: 57 57 29
Width: 772
GlyphClass: 2
Flags: W
LayerCount: 2
Fore
SplineSet
705 623 m 0,0,1
 705 545 705 545 685 467 c 128,-1,2
 665 389 665 389 628 317 c 128,-1,3
 591 245 591 245 538.5 183 c 128,-1,4
 486 121 486 121 422 75 c 128,-1,5
 358 29 358 29 283 3 c 128,-1,6
 208 -23 208 -23 125 -23 c 2,7,-1
 82 -23 l 1,8,-1
 82 6 l 1,9,10
 174 8 174 8 249 46.5 c 128,-1,11
 324 85 324 85 381 147.5 c 128,-1,12
 438 210 438 210 477 289 c 128,-1,13
 516 368 516 368 537 451 c 1,14,15
 489 419 489 419 434.5 396 c 128,-1,16
 380 373 380 373 322 373 c 0,17,18
 259 373 259 373 210.5 398.5 c 128,-1,19
 162 424 162 424 128.5 467 c 128,-1,20
 95 510 95 510 78 565 c 128,-1,21
 61 620 61 620 61 678 c 0,22,23
 61 746 61 746 83 811.5 c 128,-1,24
 105 877 105 877 146.5 928.5 c 128,-1,25
 188 980 188 980 247 1012 c 128,-1,26
 306 1044 306 1044 381 1044 c 0,27,28
 435 1044 435 1044 480 1026 c 128,-1,29
 525 1008 525 1008 561 977 c 128,-1,30
 597 946 597 946 624 904 c 128,-1,31
 651 862 651 862 669 815.5 c 128,-1,32
 687 769 687 769 696 719.5 c 128,-1,33
 705 670 705 670 705 623 c 0,0,1
563 662 m 0,34,35
 563 706 563 706 553 763 c 128,-1,36
 543 820 543 820 519.5 872 c 128,-1,37
 496 924 496 924 457.5 959.5 c 128,-1,38
 419 995 419 995 362 995 c 0,39,40
 316 995 316 995 284 971.5 c 128,-1,41
 252 948 252 948 233 913 c 128,-1,42
 214 878 214 878 205.5 836 c 128,-1,43
 197 794 197 794 197 756 c 0,44,45
 197 713 197 713 205 658 c 128,-1,46
 213 603 213 603 234 554.5 c 128,-1,47
 255 506 255 506 291 473 c 128,-1,48
 327 440 327 440 383 440 c 0,49,50
 399 440 399 440 423 445 c 128,-1,51
 447 450 447 450 472 459 c 128,-1,52
 497 468 497 468 518 480 c 128,-1,53
 539 492 539 492 549 506 c 1,54,55
 554 544 554 544 558.5 582.5 c 128,-1,56
 563 621 563 621 563 662 c 0,34,35
EndSplineSet
Substitution2: "Single Substitution lookup 22 subtable" nineSmall
Substitution2: "Single Substitution lookup 21 subtable" nineMedium
EndChar
StartChar: semicolon
Encoding: 59 59 31
Width: 430
GlyphClass: 2
Flags: W
LayerCount: 2
Fore
SplineSet
319 629 m 0,0,1
 319 595 319 595 295 569 c 0,2,3
 281 558 281 558 267 552.5 c 128,-1,4
 253 547 253 547 236 547 c 0,5,6
 202 547 202 547 176 571 c 0,7,8
 152 597 152 597 152 629 c 0,9,10
 152 667 152 667 176 688 c 0,11,12
 201 713 201 713 236 713 c 256,13,14
 271 713 271 713 295 688 c 0,15,16
 319 667 319 667 319 629 c 0,0,1
354 -8 m 0,17,18
 354 -182 354 -182 129 -258 c 1,19,-1
 129 -223 l 1,20,21
 192 -205 192 -205 240 -156 c 0,22,23
 291 -101 291 -101 291 -31 c 0,24,25
 291 0 291 0 274 0 c 0,26,27
 268 0 268 0 260.5 -2.5 c 128,-1,28
 253 -5 253 -5 242 -10 c 0,29,30
 231 -16 231 -16 223 -19.5 c 128,-1,31
 215 -23 215 -23 209 -23 c 0,32,33
 129 -23 129 -23 129 61 c 0,34,35
 129 101 129 101 158 125 c 0,36,37
 189 150 189 150 227 150 c 0,38,39
 275 150 275 150 311 111 c 0,40,41
 354 65 354 65 354 -8 c 0,17,18
EndSplineSet
EndChar
StartChar: equal
Encoding: 61 61 33
Width: 915
GlyphClass: 2
Flags: W
LayerCount: 2
Fore
SplineSet
37 502 m 1,0,-1
 37 565 l 1,1,-1
 872 565 l 1,2,-1
 872 502 l 1,3,-1
 37 502 l 1,0,-1
37 276 m 1,4,-1
 37 340 l 1,5,-1
 872 340 l 1,6,-1
 872 276 l 1,7,-1
 37 276 l 1,4,-1
EndSplineSet
EndChar
StartChar: A
Encoding: 65 65 37
Width: 1110
GlyphClass: 2
Flags: W
LayerCount: 2
Fore
SplineSet
694 0 m 1,0,-1
 694 29 l 1,1,2
 711 29 711 29 729 31.5 c 128,-1,3
 747 34 747 34 762 41 c 128,-1,4
 777 48 777 48 787 60.5 c 128,-1,5
 797 73 797 73 797 94 c 0,6,7
 797 114 797 114 785 150 c 128,-1,8
 773 186 773 186 758 224 c 128,-1,9
 743 262 743 262 728 295 c 128,-1,10
 713 328 713 328 707 342 c 1,11,-1
 311 342 l 1,12,13
 307 334 307 334 298.5 315.5 c 128,-1,14
 290 297 290 297 279 273.5 c 128,-1,15
 268 250 268 250 257 224 c 128,-1,16
 246 198 246 198 236.5 173 c 128,-1,17
 227 148 227 148 221 127 c 128,-1,18
 215 106 215 106 215 94 c 0,19,20
 215 74 215 74 228 61.5 c 128,-1,21
 241 49 241 49 260 42 c 128,-1,22
 279 35 279 35 299 32.5 c 128,-1,23
 319 30 319 30 334 29 c 1,24,-1
 334 0 l 1,25,-1
 12 0 l 1,26,-1
 12 29 l 1,27,28
 50 31 50 31 76.5 47.5 c 128,-1,29
 103 64 103 64 121.5 88.5 c 128,-1,30
 140 113 140 113 154 143 c 128,-1,31
 168 173 168 173 180 203 c 2,32,-1
 541 1044 l 1,33,-1
 567 1044 l 1,34,-1
 922 197 l 2,35,36
 937 162 937 162 950.5 132.5 c 128,-1,37
 964 103 964 103 983 80.5 c 128,-1,38
 1002 58 1002 58 1029 44.5 c 128,-1,39
 1056 31 1056 31 1098 29 c 1,40,-1
 1098 0 l 1,41,-1
 694 0 l 1,0,-1
512 813 m 1,42,-1
 334 397 l 1,43,-1
 686 397 l 1,44,-1
 512 813 l 1,42,-1
EndSplineSet
EndChar
StartChar: B
Encoding: 66 66 38
Width: 1004
GlyphClass: 2
Flags: W
LayerCount: 2
Fore
SplineSet
944 279 m 0,0,1
 944 219 944 219 925 174.5 c 128,-1,2
 906 130 906 130 873 99 c 128,-1,3
 840 68 840 68 796.5 48.5 c 128,-1,4
 753 29 753 29 704.5 18.5 c 128,-1,5
 656 8 656 8 605.5 4 c 128,-1,6
 555 0 555 0 508 0 c 2,7,-1
 27 0 l 1,8,-1
 27 29 l 1,9,10
 75 29 75 29 103.5 35.5 c 128,-1,11
 132 42 132 42 147 58.5 c 128,-1,12
 162 75 162 75 167 104.5 c 128,-1,13
 172 134 172 134 172 180 c 2,14,-1
 172 842 l 2,15,16
 172 890 172 890 168 919.5 c 128,-1,17
 164 949 164 949 149 966 c 128,-1,18
 134 983 134 983 105 989 c 128,-1,19
 76 995 76 995 27 995 c 1,20,-1
 27 1022 l 1,21,-1
 467 1022 l 2,22,23
 514 1022 514 1022 564 1018 c 128,-1,24
 614 1014 614 1014 662 1003.5 c 128,-1,25
 710 993 710 993 753 974 c 128,-1,26
 796 955 796 955 828.5 924.5 c 128,-1,27
 861 894 861 894 880 850.5 c 128,-1,28
 899 807 899 807 899 748 c 0,29,30
 899 705 899 705 884.5 669 c 128,-1,31
 870 633 870 633 845 604.5 c 128,-1,32
 820 576 820 576 786 555 c 128,-1,33
 752 534 752 534 713 522 c 1,34,35
 764 513 764 513 806 494.5 c 128,-1,36
 848 476 848 476 879 446.5 c 128,-1,37
 910 417 910 417 927 375.5 c 128,-1,38
 944 334 944 334 944 279 c 0,0,1
739 756 m 0,39,40
 739 816 739 816 713.5 857 c 128,-1,41
 688 898 688 898 647.5 923.5 c 128,-1,42
 607 949 607 949 556.5 960 c 128,-1,43
 506 971 506 971 455 971 c 0,44,45
 420 971 420 971 385.5 967.5 c 128,-1,46
 351 964 351 964 317 956 c 1,47,-1
 317 563 l 1,48,49
 353 555 353 555 389.5 554 c 128,-1,50
 426 553 426 553 461 553 c 0,51,52
 514 553 514 553 564 561.5 c 128,-1,53
 614 570 614 570 653 593 c 128,-1,54
 692 616 692 616 715.5 655.5 c 128,-1,55
 739 695 739 695 739 756 c 0,39,40
770 268 m 0,56,57
 770 334 770 334 741 378.5 c 128,-1,58
 712 423 712 423 666.5 450 c 128,-1,59
 621 477 621 477 564 488.5 c 128,-1,60
 507 500 507 500 451 500 c 0,61,62
 419 500 419 500 384 500 c 128,-1,63
 349 500 349 500 317 494 c 1,64,-1
 317 74 l 1,65,66
 361 64 361 64 404 58.5 c 128,-1,67
 447 53 447 53 492 53 c 0,68,69
 543 53 543 53 592.5 64.5 c 128,-1,70
 642 76 642 76 681.5 101.5 c 128,-1,71
 721 127 721 127 745.5 168 c 128,-1,72
 770 209 770 209 770 268 c 0,56,57
EndSplineSet
EndChar
StartChar: E
Encoding: 69 69 41
Width: 942
GlyphClass: 2
Flags: W
LayerCount: 2
Fore
SplineSet
819 0 m 1,0,-1
 33 0 l 1,1,-1
 33 29 l 1,2,3
 81 29 81 29 109.5 35 c 128,-1,4
 138 41 138 41 153 57.5 c 128,-1,5
 168 74 168 74 173 103.5 c 128,-1,6
 178 133 178 133 178 180 c 2,7,-1
 178 846 l 2,8,9
 178 894 178 894 174 923 c 128,-1,10
 170 952 170 952 155 968 c 128,-1,11
 140 984 140 984 111 989.5 c 128,-1,12
 82 995 82 995 33 995 c 1,13,-1
 33 1022 l 1,14,-1
 819 1022 l 1,15,-1
 831 799 l 1,16,-1
 803 799 l 1,17,18
 790 848 790 848 778.5 880.5 c 128,-1,19
 767 913 767 913 747.5 932 c 128,-1,20
 728 951 728 951 694.5 959 c 128,-1,21
 661 967 661 967 604 967 c 2,22,-1
 322 967 l 1,23,-1
 322 563 l 1,24,-1
 547 563 l 2,25,26
 594 563 594 563 622.5 569.5 c 128,-1,27
 651 576 651 576 668.5 592.5 c 128,-1,28
 686 609 686 609 694.5 637.5 c 128,-1,29
 703 666 703 666 709 711 c 1,30,-1
 737 711 l 1,31,-1
 737 354 l 1,32,-1
 709 354 l 1,33,34
 703 399 703 399 694.5 428 c 128,-1,35
 686 457 686 457 669 474.5 c 128,-1,36
 652 492 652 492 623.5 499 c 128,-1,37
 595 506 595 506 547 506 c 2,38,-1
 322 506 l 1,39,-1
 322 170 l 2,40,41
 322 142 322 142 323 120.5 c 128,-1,42
 324 99 324 99 331.5 84.5 c 128,-1,43
 339 70 339 70 357 62.5 c 128,-1,44
 375 55 375 55 408 55 c 2,45,-1
 580 55 l 2,46,47
 647 55 647 55 690 66 c 128,-1,48
 733 77 733 77 764.5 101 c 128,-1,49
 796 125 796 125 821 163.5 c 128,-1,50
 846 202 846 202 877 256 c 1,51,-1
 909 256 l 1,52,-1
 819 0 l 1,0,-1
EndSplineSet
EndChar
StartChar: F
Encoding: 70 70 42
Width: 858
GlyphClass: 2
Flags: W
LayerCount: 2
Fore
SplineSet
770 799 m 1,0,1
 755 849 755 849 737 881.5 c 128,-1,2
 719 914 719 914 693 933 c 128,-1,3
 667 952 667 952 630.5 959.5 c 128,-1,4
 594 967 594 967 543 967 c 2,5,-1
 315 967 l 1,6,-1
 315 565 l 1,7,-1
 502 565 l 2,8,9
 540 565 540 565 563.5 574 c 128,-1,10
 587 583 587 583 601.5 601 c 128,-1,11
 616 619 616 619 623.5 645 c 128,-1,12
 631 671 631 671 635 705 c 1,13,-1
 664 705 l 1,14,-1
 664 358 l 1,15,-1
 635 358 l 1,16,17
 635 394 635 394 628.5 421 c 128,-1,18
 622 448 622 448 606.5 466 c 128,-1,19
 591 484 591 484 565.5 493 c 128,-1,20
 540 502 540 502 502 502 c 2,21,-1
 315 502 l 1,22,-1
 315 180 l 2,23,24
 315 133 315 133 319.5 103.5 c 128,-1,25
 324 74 324 74 339.5 57.5 c 128,-1,26
 355 41 355 41 384.5 35 c 128,-1,27
 414 29 414 29 463 29 c 1,28,-1
 463 0 l 1,29,-1
 25 0 l 1,30,-1
 25 29 l 1,31,32
 74 29 74 29 103 35.5 c 128,-1,33
 132 42 132 42 147 58.5 c 128,-1,34
 162 75 162 75 166 104.5 c 128,-1,35
 170 134 170 134 170 180 c 2,36,-1
 170 842 l 2,37,38
 170 888 170 888 165.5 917.5 c 128,-1,39
 161 947 161 947 146 964.5 c 128,-1,40
 131 982 131 982 102 988.5 c 128,-1,41
 73 995 73 995 25 995 c 1,42,-1
 25 1022 l 1,43,-1
 786 1022 l 1,44,-1
 797 799 l 1,45,-1
 770 799 l 1,0,1
EndSplineSet
EndChar
StartChar: G
Encoding: 71 71 43
Width: 1114
GlyphClass: 2
Flags: W
LayerCount: 2
Fore
SplineSet
1094 530 m 1,0,1
 1052 530 1052 530 1029 520 c 128,-1,2
 1006 510 1006 510 995 491 c 128,-1,3
 984 472 984 472 981.5 444 c 128,-1,4
 979 416 979 416 979 381 c 2,5,-1
 979 68 l 1,6,7
 897 20 897 20 805.5 -2.5 c 128,-1,8
 714 -25 714 -25 618 -25 c 0,9,10
 501 -25 501 -25 398 10 c 128,-1,11
 295 45 295 45 218.5 112 c 128,-1,12
 142 179 142 179 97.5 275.5 c 128,-1,13
 53 372 53 372 53 496 c 0,14,15
 53 610 53 610 94.5 710 c 128,-1,16
 136 810 136 810 209 884.5 c 128,-1,17
 282 959 282 959 381.5 1001.5 c 128,-1,18
 481 1044 481 1044 596 1044 c 0,19,20
 646 1044 646 1044 694.5 1036.5 c 128,-1,21
 743 1029 743 1029 791 1012 c 0,22,23
 793 1012 793 1012 807 1007 c 128,-1,24
 821 1002 821 1002 837.5 996.5 c 128,-1,25
 854 991 854 991 868 986 c 128,-1,26
 882 981 882 981 883 981 c 0,27,28
 894 981 894 981 901 988.5 c 128,-1,29
 908 996 908 996 912.5 1006 c 128,-1,30
 917 1016 917 1016 919 1026.5 c 128,-1,31
 921 1037 921 1037 922 1044 c 1,32,-1
 948 1044 l 1,33,-1
 975 723 l 1,34,-1
 948 723 l 1,35,36
 928 785 928 785 898 834.5 c 128,-1,37
 868 884 868 884 827 919.5 c 128,-1,38
 786 955 786 955 732 974 c 128,-1,39
 678 993 678 993 610 993 c 0,40,41
 510 993 510 993 438 954 c 128,-1,42
 366 915 366 915 319 850 c 128,-1,43
 272 785 272 785 249.5 701 c 128,-1,44
 227 617 227 617 227 528 c 256,45,46
 227 439 227 439 250.5 350 c 128,-1,47
 274 261 274 261 322.5 189.5 c 128,-1,48
 371 118 371 118 445 73.5 c 128,-1,49
 519 29 519 29 621 29 c 0,50,51
 676 29 676 29 729.5 42.5 c 128,-1,52
 783 56 783 56 831 84 c 1,53,-1
 831 381 l 2,54,55
 831 423 831 423 827 451 c 128,-1,56
 823 479 823 479 809 496 c 128,-1,57
 795 513 795 513 769 521 c 128,-1,58
 743 529 743 529 698 530 c 1,59,-1
 698 557 l 1,60,-1
 1094 557 l 1,61,-1
 1094 530 l 1,0,1
EndSplineSet
EndChar
StartChar: I
Encoding: 73 73 45
Width: 514
GlyphClass: 2
Flags: W
LayerCount: 2
Fore
SplineSet
39 0 m 1,0,-1
 39 29 l 1,1,2
 88 29 88 29 117 35.5 c 128,-1,3
 146 42 146 42 161 58.5 c 128,-1,4
 176 75 176 75 180 104.5 c 128,-1,5
 184 134 184 134 184 180 c 2,6,-1
 184 842 l 2,7,8
 184 889 184 889 180 918.5 c 128,-1,9
 176 948 176 948 161 965 c 128,-1,10
 146 982 146 982 117 988.5 c 128,-1,11
 88 995 88 995 39 995 c 1,12,-1
 39 1022 l 1,13,-1
 477 1022 l 1,14,-1
 477 995 l 1,15,16
 429 995 429 995 400 988.5 c 128,-1,17
 371 982 371 982 355.5 965 c 128,-1,18
 340 948 340 948 335 918.5 c 128,-1,19
 330 889 330 889 330 842 c 2,20,-1
 330 180 l 2,21,22
 330 134 330 134 334.5 104.5 c 128,-1,23
 339 75 339 75 354 58.5 c 128,-1,24
 369 42 369 42 398 35.5 c 128,-1,25
 427 29 427 29 477 29 c 1,26,-1
 477 0 l 1,27,-1
 39 0 l 1,0,-1
EndSplineSet
EndChar
StartChar: M
Encoding: 77 77 49
Width: 1374
GlyphClass: 2
Flags: W
LayerCount: 2
Fore
SplineSet
905 0 m 1,0,-1
 905 29 l 1,1,2
 953 29 953 29 981.5 35 c 128,-1,3
 1010 41 1010 41 1025.5 57.5 c 128,-1,4
 1041 74 1041 74 1046 103 c 128,-1,5
 1051 132 1051 132 1051 178 c 2,6,-1
 1051 860 l 1,7,-1
 655 0 l 1,8,-1
 631 0 l 1,9,-1
 236 860 l 1,10,-1
 236 178 l 2,11,12
 236 131 236 131 241 102 c 128,-1,13
 246 73 246 73 261 56.5 c 128,-1,14
 276 40 276 40 304.5 34.5 c 128,-1,15
 333 29 333 29 381 29 c 1,16,-1
 381 0 l 1,17,-1
 27 0 l 1,18,-1
 27 29 l 1,19,20
 75 29 75 29 103 35 c 128,-1,21
 131 41 131 41 146 57.5 c 128,-1,22
 161 74 161 74 165.5 103 c 128,-1,23
 170 132 170 132 170 178 c 2,24,-1
 170 846 l 2,25,26
 170 887 170 887 163.5 915.5 c 128,-1,27
 157 944 157 944 141 961.5 c 128,-1,28
 125 979 125 979 97.5 987 c 128,-1,29
 70 995 70 995 27 995 c 1,30,-1
 27 1022 l 1,31,-1
 315 1022 l 1,32,-1
 686 223 l 1,33,-1
 1051 1022 l 1,34,-1
 1341 1022 l 1,35,-1
 1341 995 l 1,36,37
 1293 995 1293 995 1264 989 c 128,-1,38
 1235 983 1235 983 1220 966.5 c 128,-1,39
 1205 950 1205 950 1200.5 921 c 128,-1,40
 1196 892 1196 892 1196 846 c 2,41,-1
 1196 178 l 2,42,43
 1196 131 1196 131 1201 102 c 128,-1,44
 1206 73 1206 73 1221 56.5 c 128,-1,45
 1236 40 1236 40 1264.5 34.5 c 128,-1,46
 1293 29 1293 29 1341 29 c 1,47,-1
 1341 0 l 1,48,-1
 905 0 l 1,0,-1
EndSplineSet
EndChar
StartChar: N
Encoding: 78 78 50
Width: 1114
GlyphClass: 2
Flags: W
LayerCount: 2
Fore
SplineSet
1094 995 m 1,0,1
 1046 995 1046 995 1017 989 c 128,-1,2
 988 983 988 983 972.5 966.5 c 128,-1,3
 957 950 957 950 952.5 921 c 128,-1,4
 948 892 948 892 948 846 c 2,5,-1
 948 -16 l 1,6,-1
 922 -16 l 1,7,-1
 246 807 l 1,8,-1
 246 178 l 2,9,10
 246 130 246 130 250.5 101 c 128,-1,11
 255 72 255 72 270 56 c 128,-1,12
 285 40 285 40 314 34.5 c 128,-1,13
 343 29 343 29 391 29 c 1,14,-1
 391 0 l 1,15,-1
 35 0 l 1,16,-1
 35 29 l 1,17,18
 83 29 83 29 111.5 35 c 128,-1,19
 140 41 140 41 155 57.5 c 128,-1,20
 170 74 170 74 175 103 c 128,-1,21
 180 132 180 132 180 178 c 2,22,-1
 180 889 l 1,23,24
 161 915 161 915 144.5 934.5 c 128,-1,25
 128 954 128 954 109.5 967.5 c 128,-1,26
 91 981 91 981 67 988 c 128,-1,27
 43 995 43 995 8 995 c 1,28,-1
 8 1022 l 1,29,-1
 258 1022 l 1,30,-1
 883 256 l 1,31,-1
 883 846 l 2,32,33
 883 892 883 892 878 921 c 128,-1,34
 873 950 873 950 857.5 966.5 c 128,-1,35
 842 983 842 983 813.5 989 c 128,-1,36
 785 995 785 995 737 995 c 1,37,-1
 737 1022 l 1,38,-1
 1094 1022 l 1,39,-1
 1094 995 l 1,0,1
EndSplineSet
EndChar
StartChar: O
Encoding: 79 79 51
Width: 1114
GlyphClass: 2
Flags: W
LayerCount: 2
Fore
SplineSet
1055 516 m 0,0,1
 1055 407 1055 407 1019 309 c 128,-1,2
 983 211 983 211 917.5 136.5 c 128,-1,3
 852 62 852 62 759.5 18.5 c 128,-1,4
 667 -25 667 -25 553 -25 c 256,5,6
 439 -25 439 -25 346.5 18 c 128,-1,7
 254 61 254 61 188.5 134.5 c 128,-1,8
 123 208 123 208 88 306 c 128,-1,9
 53 404 53 404 53 514 c 0,10,11
 53 625 53 625 90.5 721.5 c 128,-1,12
 128 818 128 818 196 889.5 c 128,-1,13
 264 961 264 961 358 1002.5 c 128,-1,14
 452 1044 452 1044 565 1044 c 0,15,16
 676 1044 676 1044 766 1001.5 c 128,-1,17
 856 959 856 959 920.5 886.5 c 128,-1,18
 985 814 985 814 1020 718 c 128,-1,19
 1055 622 1055 622 1055 516 c 0,0,1
883 506 m 0,20,21
 883 562 883 562 877.5 620 c 128,-1,22
 872 678 872 678 858 732 c 128,-1,23
 844 786 844 786 820 833 c 128,-1,24
 796 880 796 880 759 915 c 128,-1,25
 722 950 722 950 670.5 970.5 c 128,-1,26
 619 991 619 991 549 991 c 0,27,28
 485 991 485 991 436.5 970.5 c 128,-1,29
 388 950 388 950 352 915 c 128,-1,30
 316 880 316 880 292 833 c 128,-1,31
 268 786 268 786 253.5 733.5 c 128,-1,32
 239 681 239 681 233 625.5 c 128,-1,33
 227 570 227 570 227 518 c 0,34,35
 227 467 227 467 233 411 c 128,-1,36
 239 355 239 355 254 301 c 128,-1,37
 269 247 269 247 293 198 c 128,-1,38
 317 149 317 149 353 112 c 128,-1,39
 389 75 389 75 438 53 c 128,-1,40
 487 31 487 31 551 31 c 0,41,42
 618 31 618 31 668.5 51 c 128,-1,43
 719 71 719 71 756 105.5 c 128,-1,44
 793 140 793 140 817.5 186.5 c 128,-1,45
 842 233 842 233 856.5 285.5 c 128,-1,46
 871 338 871 338 877 394.5 c 128,-1,47
 883 451 883 451 883 506 c 0,20,21
EndSplineSet
EndChar
StartChar: P
Encoding: 80 80 52
Width: 858
GlyphClass: 2
Flags: W
LayerCount: 2
Fore
SplineSet
805 739 m 0,0,1
 805 656 805 656 776.5 601.5 c 128,-1,2
 748 547 748 547 699 515 c 128,-1,3
 650 483 650 483 584.5 470 c 128,-1,4
 519 457 519 457 446 457 c 0,5,6
 414 457 414 457 381.5 459.5 c 128,-1,7
 349 462 349 462 315 465 c 1,8,-1
 315 180 l 2,9,10
 315 133 315 133 320.5 103.5 c 128,-1,11
 326 74 326 74 341.5 57.5 c 128,-1,12
 357 41 357 41 386 35 c 128,-1,13
 415 29 415 29 463 29 c 1,14,-1
 463 0 l 1,15,-1
 27 0 l 1,16,-1
 27 29 l 1,17,18
 75 29 75 29 103.5 35 c 128,-1,19
 132 41 132 41 147 57.5 c 128,-1,20
 162 74 162 74 166 103.5 c 128,-1,21
 170 133 170 133 170 180 c 2,22,-1
 170 842 l 2,23,24
 170 890 170 890 166 919.5 c 128,-1,25
 162 949 162 949 147.5 966 c 128,-1,26
 133 983 133 983 104.5 989 c 128,-1,27
 76 995 76 995 27 995 c 1,28,-1
 27 1022 l 1,29,-1
 399 1022 l 2,30,31
 468 1022 468 1022 540.5 1010 c 128,-1,32
 613 998 613 998 671.5 966.5 c 128,-1,33
 730 935 730 935 767.5 880 c 128,-1,34
 805 825 805 825 805 739 c 0,0,1
633 725 m 0,35,36
 633 774 633 774 618.5 817.5 c 128,-1,37
 604 861 604 861 576.5 893 c 128,-1,38
 549 925 549 925 508.5 944 c 128,-1,39
 468 963 468 963 416 963 c 0,40,41
 391 963 391 963 365.5 958 c 128,-1,42
 340 953 340 953 315 948 c 1,43,-1
 315 516 l 1,44,45
 346 511 346 511 377 508.5 c 128,-1,46
 408 506 408 506 440 506 c 0,47,48
 485 506 485 506 520.5 524.5 c 128,-1,49
 556 543 556 543 581 573.5 c 128,-1,50
 606 604 606 604 619.5 643.5 c 128,-1,51
 633 683 633 683 633 725 c 0,35,36
EndSplineSet
EndChar
StartChar: Q
Encoding: 81 81 53
Width: 1114
GlyphClass: 2
Flags: W
LayerCount: 2
Fore
SplineSet
1055 510 m 0,0,1
 1055 419 1055 419 1029 336.5 c 128,-1,2
 1003 254 1003 254 954.5 186 c 128,-1,3
 906 118 906 118 836.5 67.5 c 128,-1,4
 767 17 767 17 680 -10 c 1,5,6
 711 -63 711 -63 749 -109.5 c 128,-1,7
 787 -156 787 -156 832.5 -192 c 128,-1,8
 878 -228 878 -228 932.5 -250.5 c 128,-1,9
 987 -273 987 -273 1051 -279 c 1,10,-1
 1051 -303 l 1,11,12
 969 -299 969 -299 880.5 -275.5 c 128,-1,13
 792 -252 792 -252 708 -213.5 c 128,-1,14
 624 -175 624 -175 549.5 -123 c 128,-1,15
 475 -71 475 -71 420 -10 c 1,16,17
 234 55 234 55 143.5 185.5 c 128,-1,18
 53 316 53 316 53 512 c 0,19,20
 53 623 53 623 90 720 c 128,-1,21
 127 817 127 817 194.5 889 c 128,-1,22
 262 961 262 961 355.5 1002.5 c 128,-1,23
 449 1044 449 1044 563 1044 c 0,24,25
 675 1044 675 1044 766 1001 c 128,-1,26
 857 958 857 958 921 884.5 c 128,-1,27
 985 811 985 811 1020 714.5 c 128,-1,28
 1055 618 1055 618 1055 510 c 0,0,1
883 492 m 0,29,30
 883 546 883 546 877 603.5 c 128,-1,31
 871 661 871 661 856.5 716.5 c 128,-1,32
 842 772 842 772 817.5 821.5 c 128,-1,33
 793 871 793 871 756.5 908 c 128,-1,34
 720 945 720 945 670 967 c 128,-1,35
 620 989 620 989 553 989 c 0,36,37
 488 989 488 989 438 968.5 c 128,-1,38
 388 948 388 948 352 912.5 c 128,-1,39
 316 877 316 877 292 830 c 128,-1,40
 268 783 268 783 253.5 730 c 128,-1,41
 239 677 239 677 233 621 c 128,-1,42
 227 565 227 565 227 512 c 0,43,44
 227 460 227 460 233 404 c 128,-1,45
 239 348 239 348 254 294.5 c 128,-1,46
 269 241 269 241 293.5 193 c 128,-1,47
 318 145 318 145 354 108.5 c 128,-1,48
 390 72 390 72 439.5 50.5 c 128,-1,49
 489 29 489 29 553 29 c 0,50,51
 651 29 651 29 714.5 71 c 128,-1,52
 778 113 778 113 815.5 179.5 c 128,-1,53
 853 246 853 246 868 328.5 c 128,-1,54
 883 411 883 411 883 492 c 0,29,30
EndSplineSet
EndChar
StartChar: R
Encoding: 82 82 54
Width: 1030
GlyphClass: 2
Flags: W
LayerCount: 2
Fore
SplineSet
770 0 m 1,0,-1
 424 477 l 1,1,2
 398 477 398 477 369.5 475.5 c 128,-1,3
 341 474 341 474 315 477 c 1,4,-1
 315 180 l 2,5,6
 315 133 315 133 320.5 103.5 c 128,-1,7
 326 74 326 74 342 57.5 c 128,-1,8
 358 41 358 41 387.5 35 c 128,-1,9
 417 29 417 29 465 29 c 1,10,-1
 465 0 l 1,11,-1
 27 0 l 1,12,-1
 27 29 l 1,13,14
 76 29 76 29 105 35 c 128,-1,15
 134 41 134 41 149 57.5 c 128,-1,16
 164 74 164 74 168 103.5 c 128,-1,17
 172 133 172 133 172 180 c 2,18,-1
 172 842 l 2,19,20
 172 890 172 890 168 919.5 c 128,-1,21
 164 949 164 949 149 966 c 128,-1,22
 134 983 134 983 105 989 c 128,-1,23
 76 995 76 995 27 995 c 1,24,-1
 27 1022 l 1,25,-1
 412 1022 l 2,26,27
 457 1022 457 1022 504.5 1019 c 128,-1,28
 552 1016 552 1016 597.5 1006 c 128,-1,29
 643 996 643 996 684 978.5 c 128,-1,30
 725 961 725 961 756 931.5 c 128,-1,31
 787 902 787 902 805 860 c 128,-1,32
 823 818 823 818 823 760 c 256,33,34
 823 702 823 702 804 657.5 c 128,-1,35
 785 613 785 613 751.5 581.5 c 128,-1,36
 718 550 718 550 672 529.5 c 128,-1,37
 626 509 626 509 573 498 c 1,38,-1
 782 203 l 2,39,40
 810 164 810 164 836 134 c 128,-1,41
 862 104 862 104 892 82 c 128,-1,42
 922 60 922 60 958.5 47 c 128,-1,43
 995 34 995 34 1044 29 c 1,44,-1
 1044 0 l 1,45,-1
 770 0 l 1,0,-1
655 748 m 0,46,47
 655 797 655 797 639 837 c 128,-1,48
 623 877 623 877 593.5 905.5 c 128,-1,49
 564 934 564 934 523.5 949.5 c 128,-1,50
 483 965 483 965 434 965 c 0,51,52
 405 965 405 965 375.5 961 c 128,-1,53
 346 957 346 957 315 952 c 1,54,-1
 315 526 l 1,55,-1
 358 526 l 2,56,57
 413 526 413 526 466 537 c 128,-1,58
 519 548 519 548 561 573.5 c 128,-1,59
 603 599 603 599 629 641.5 c 128,-1,60
 655 684 655 684 655 748 c 0,46,47
EndSplineSet
EndChar
StartChar: S
Encoding: 83 83 55
Width: 858
GlyphClass: 2
Flags: W
LayerCount: 2
Fore
SplineSet
776 262 m 0,0,1
 776 195 776 195 749 142 c 128,-1,2
 722 89 722 89 677.5 52 c 128,-1,3
 633 15 633 15 575 -5 c 128,-1,4
 517 -25 517 -25 455 -25 c 0,5,6
 414 -25 414 -25 373 -15.5 c 128,-1,7
 332 -6 332 -6 295.5 5 c 128,-1,8
 259 16 259 16 229 25.5 c 128,-1,9
 199 35 199 35 180 35 c 0,10,11
 168 35 168 35 159.5 29.5 c 128,-1,12
 151 24 151 24 145.5 15 c 128,-1,13
 140 6 140 6 137.5 -4.5 c 128,-1,14
 135 -15 135 -15 133 -25 c 1,15,-1
 106 -25 l 1,16,-1
 106 328 l 1,17,-1
 133 328 l 1,18,19
 141 263 141 263 164 209 c 128,-1,20
 187 155 187 155 225 116.5 c 128,-1,21
 263 78 263 78 316.5 56.5 c 128,-1,22
 370 35 370 35 438 35 c 0,23,24
 475 35 475 35 511.5 45.5 c 128,-1,25
 548 56 548 56 576.5 77 c 128,-1,26
 605 98 605 98 623 129.5 c 128,-1,27
 641 161 641 161 641 203 c 0,28,29
 641 247 641 247 617.5 282.5 c 128,-1,30
 594 318 594 318 556 348.5 c 128,-1,31
 518 379 518 379 469 406.5 c 128,-1,32
 420 434 420 434 369.5 462 c 128,-1,33
 319 490 319 490 270 521 c 128,-1,34
 221 552 221 552 183 589.5 c 128,-1,35
 145 627 145 627 121.5 672.5 c 128,-1,36
 98 718 98 718 98 776 c 0,37,38
 98 839 98 839 122.5 889 c 128,-1,39
 147 939 147 939 188 973.5 c 128,-1,40
 229 1008 229 1008 282.5 1026 c 128,-1,41
 336 1044 336 1044 395 1044 c 0,42,43
 430 1044 430 1044 464.5 1035 c 128,-1,44
 499 1026 499 1026 530.5 1015.5 c 128,-1,45
 562 1005 562 1005 588 996 c 128,-1,46
 614 987 614 987 631 987 c 0,47,48
 643 987 643 987 651 993 c 128,-1,49
 659 999 659 999 665 1007.5 c 128,-1,50
 671 1016 671 1016 674.5 1026 c 128,-1,51
 678 1036 678 1036 680 1044 c 1,52,-1
 709 1044 l 1,53,-1
 709 692 l 1,54,-1
 680 692 l 1,55,56
 675 752 675 752 654 805.5 c 128,-1,57
 633 859 633 859 597.5 898.5 c 128,-1,58
 562 938 562 938 512 961.5 c 128,-1,59
 462 985 462 985 397 985 c 0,60,61
 363 985 363 985 331 974 c 128,-1,62
 299 963 299 963 273.5 942.5 c 128,-1,63
 248 922 248 922 232.5 893.5 c 128,-1,64
 217 865 217 865 217 829 c 0,65,66
 217 787 217 787 241 753 c 128,-1,67
 265 719 265 719 304.5 690 c 128,-1,68
 344 661 344 661 394 634.5 c 128,-1,69
 444 608 444 608 496.5 580.5 c 128,-1,70
 549 553 549 553 599 522 c 128,-1,71
 649 491 649 491 688.5 453 c 128,-1,72
 728 415 728 415 752 368.5 c 128,-1,73
 776 322 776 322 776 262 c 0,0,1
EndSplineSet
EndChar
StartChar: T
Encoding: 84 84 56
Width: 940
GlyphClass: 2
Flags: W
LayerCount: 2
Fore
SplineSet
872 782 m 1,0,1
 863 869 863 869 819 913.5 c 128,-1,2
 775 958 775 958 684 958 c 2,3,-1
 541 958 l 1,4,-1
 541 178 l 2,5,6
 541 131 541 131 545 102 c 128,-1,7
 549 73 549 73 564 56.5 c 128,-1,8
 579 40 579 40 607.5 34.5 c 128,-1,9
 636 29 636 29 684 29 c 1,10,-1
 684 0 l 1,11,-1
 252 0 l 1,12,-1
 252 29 l 1,13,14
 300 29 300 29 328 35 c 128,-1,15
 356 41 356 41 371 57.5 c 128,-1,16
 386 74 386 74 390.5 103 c 128,-1,17
 395 132 395 132 395 178 c 2,18,-1
 395 958 l 1,19,-1
 272 958 l 2,20,21
 224 958 224 958 188 949.5 c 128,-1,22
 152 941 152 941 127.5 921 c 128,-1,23
 103 901 103 901 89.5 867 c 128,-1,24
 76 833 76 833 72 782 c 1,25,-1
 37 782 l 1,26,-1
 47 1022 l 1,27,-1
 895 1022 l 1,28,-1
 905 782 l 1,29,-1
 872 782 l 1,0,1
EndSplineSet
EndChar
StartChar: U
Encoding: 85 85 57
Width: 1114
GlyphClass: 2
Flags: W
LayerCount: 2
Fore
SplineSet
1100 995 m 1,0,1
 1054 995 1054 995 1025 987 c 128,-1,2
 996 979 996 979 980 960 c 128,-1,3
 964 941 964 941 958 910.5 c 128,-1,4
 952 880 952 880 952 836 c 2,5,-1
 952 420 l 2,6,7
 952 315 952 315 932.5 232.5 c 128,-1,8
 913 150 913 150 867.5 93 c 128,-1,9
 822 36 822 36 746 5.5 c 128,-1,10
 670 -25 670 -25 557 -25 c 0,11,12
 432 -25 432 -25 353.5 6 c 128,-1,13
 275 37 275 37 231 96.5 c 128,-1,14
 187 156 187 156 171.5 242.5 c 128,-1,15
 156 329 156 329 156 440 c 2,16,-1
 156 842 l 2,17,18
 156 884 156 884 152 913 c 128,-1,19
 148 942 148 942 134.5 960.5 c 128,-1,20
 121 979 121 979 94.5 987 c 128,-1,21
 68 995 68 995 23 995 c 1,22,-1
 23 1022 l 1,23,-1
 434 1022 l 1,24,-1
 434 995 l 1,25,26
 390 995 390 995 364 987 c 128,-1,27
 338 979 338 979 324 960.5 c 128,-1,28
 310 942 310 942 305.5 913 c 128,-1,29
 301 884 301 884 301 842 c 2,30,-1
 301 395 l 2,31,32
 301 324 301 324 310.5 259.5 c 128,-1,33
 320 195 320 195 348.5 146.5 c 128,-1,34
 377 98 377 98 429.5 69.5 c 128,-1,35
 482 41 482 41 567 41 c 0,36,37
 636 41 636 41 699 63 c 128,-1,38
 762 85 762 85 813 133 c 0,39,40
 838 156 838 156 852 193.5 c 128,-1,41
 866 231 866 231 873 272.5 c 128,-1,42
 880 314 880 314 881.5 355.5 c 128,-1,43
 883 397 883 397 883 428 c 2,44,-1
 883 842 l 2,45,46
 883 890 883 890 878.5 919.5 c 128,-1,47
 874 949 874 949 858.5 966 c 128,-1,48
 843 983 843 983 814 989 c 128,-1,49
 785 995 785 995 737 995 c 1,50,-1
 737 1022 l 1,51,-1
 1100 1022 l 1,52,-1
 1100 995 l 1,0,1
EndSplineSet
EndChar
StartChar: V
Encoding: 86 86 58
Width: 1114
GlyphClass: 2
Flags: W
LayerCount: 2
Fore
SplineSet
1096 995 m 1,0,1
 1064 990 1064 990 1040 977 c 128,-1,2
 1016 964 1016 964 998 945 c 128,-1,3
 980 926 980 926 967 901.5 c 128,-1,4
 954 877 954 877 942 848 c 2,5,-1
 586 -25 l 1,6,-1
 559 -25 l 1,7,-1
 176 858 l 2,8,9
 162 890 162 890 149 914 c 128,-1,10
 136 938 136 938 118.5 955 c 128,-1,11
 101 972 101 972 76 981.5 c 128,-1,12
 51 991 51 991 14 995 c 1,13,-1
 14 1022 l 1,14,-1
 430 1022 l 1,15,-1
 430 995 l 1,16,17
 414 994 414 994 394.5 991 c 128,-1,18
 375 988 375 988 357.5 980.5 c 128,-1,19
 340 973 340 973 328.5 959.5 c 128,-1,20
 317 946 317 946 317 924 c 0,21,22
 317 896 317 896 327 869 c 128,-1,23
 337 842 337 842 352 807 c 2,24,-1
 612 209 l 1,25,-1
 854 803 l 2,26,27
 859 814 859 814 865 829 c 128,-1,28
 871 844 871 844 876 860.5 c 128,-1,29
 881 877 881 877 885 892.5 c 128,-1,30
 889 908 889 908 889 920 c 0,31,32
 889 940 889 940 877.5 953 c 128,-1,33
 866 966 866 966 849.5 974.5 c 128,-1,34
 833 983 833 983 814 987.5 c 128,-1,35
 795 992 795 992 780 995 c 1,36,-1
 780 1022 l 1,37,-1
 1096 1022 l 1,38,-1
 1096 995 l 1,0,1
EndSplineSet
EndChar
StartChar: X
Encoding: 88 88 60
Width: 1114
GlyphClass: 2
Flags: W
LayerCount: 2
Fore
SplineSet
657 0 m 1,0,-1
 657 29 l 1,1,2
 671 29 671 29 689 30.5 c 128,-1,3
 707 32 707 32 722.5 38 c 128,-1,4
 738 44 738 44 749 55.5 c 128,-1,5
 760 67 760 67 760 86 c 0,6,7
 760 98 760 98 744 128.5 c 128,-1,8
 728 159 728 159 704 198.5 c 128,-1,9
 680 238 680 238 651.5 281 c 128,-1,10
 623 324 623 324 598.5 361 c 128,-1,11
 574 398 574 398 556.5 423 c 128,-1,12
 539 448 539 448 537 451 c 2,13,-1
 322 176 l 2,14,15
 316 168 316 168 308 157 c 128,-1,16
 300 146 300 146 293 134 c 128,-1,17
 286 122 286 122 281 109.5 c 128,-1,18
 276 97 276 97 276 86 c 0,19,20
 276 68 276 68 286 56.5 c 128,-1,21
 296 45 296 45 311 39 c 128,-1,22
 326 33 326 33 343 31 c 128,-1,23
 360 29 360 29 375 29 c 1,24,-1
 375 0 l 1,25,-1
 10 0 l 1,26,-1
 10 29 l 1,27,28
 49 31 49 31 85 46.5 c 128,-1,29
 121 62 121 62 153 86 c 128,-1,30
 185 110 185 110 212.5 139.5 c 128,-1,31
 240 169 240 169 262 197 c 2,32,-1
 506 504 l 1,33,-1
 303 799 l 2,34,35
 276 838 276 838 249.5 872.5 c 128,-1,36
 223 907 223 907 191.5 933 c 128,-1,37
 160 959 160 959 122 975.5 c 128,-1,38
 84 992 84 992 33 995 c 1,39,-1
 33 1022 l 1,40,-1
 506 1022 l 1,41,-1
 506 995 l 1,42,43
 492 994 492 994 473.5 991.5 c 128,-1,44
 455 989 455 989 438.5 983 c 128,-1,45
 422 977 422 977 410.5 965.5 c 128,-1,46
 399 954 399 954 399 936 c 0,47,48
 399 922 399 922 412 895.5 c 128,-1,49
 425 869 425 869 444.5 836.5 c 128,-1,50
 464 804 464 804 487.5 769 c 128,-1,51
 511 734 511 734 532.5 703.5 c 128,-1,52
 554 673 554 673 570.5 651 c 128,-1,53
 587 629 587 629 592 621 c 1,54,55
 596 627 596 627 615 648.5 c 128,-1,56
 634 670 634 670 659.5 701 c 128,-1,57
 685 732 685 732 713.5 768 c 128,-1,58
 742 804 742 804 766 837.5 c 128,-1,59
 790 871 790 871 805.5 898.5 c 128,-1,60
 821 926 821 926 821 940 c 0,61,62
 821 958 821 958 808.5 969 c 128,-1,63
 796 980 796 980 778 985.5 c 128,-1,64
 760 991 760 991 741.5 992.5 c 128,-1,65
 723 994 723 994 711 995 c 1,66,-1
 711 1022 l 1,67,-1
 1073 1022 l 1,68,-1
 1073 995 l 1,69,70
 1028 992 1028 992 994.5 977.5 c 128,-1,71
 961 963 961 963 934 940 c 128,-1,72
 907 917 907 917 883.5 887.5 c 128,-1,73
 860 858 860 858 834 825 c 2,74,-1
 629 567 l 1,75,-1
 850 240 l 2,76,77
 873 205 873 205 897 169 c 128,-1,78
 921 133 921 133 950 103 c 128,-1,79
 979 73 979 73 1014.5 52.5 c 128,-1,80
 1050 32 1050 32 1096 29 c 1,81,-1
 1096 0 l 1,82,-1
 657 0 l 1,0,-1
EndSplineSet
EndChar
StartChar: Y
Encoding: 89 89 61
Width: 1114
GlyphClass: 2
Flags: W
LayerCount: 2
Fore
SplineSet
1094 995 m 1,0,1
 1049 995 1049 995 1017 980 c 128,-1,2
 985 965 985 965 959.5 941 c 128,-1,3
 934 917 934 917 913.5 885.5 c 128,-1,4
 893 854 893 854 872 821 c 2,5,-1
 625 434 l 1,6,-1
 625 178 l 2,7,8
 625 131 625 131 630 102 c 128,-1,9
 635 73 635 73 650 56.5 c 128,-1,10
 665 40 665 40 693.5 34.5 c 128,-1,11
 722 29 722 29 770 29 c 1,12,-1
 770 0 l 1,13,-1
 336 0 l 1,14,-1
 336 29 l 1,15,16
 384 29 384 29 412 35 c 128,-1,17
 440 41 440 41 454.5 57.5 c 128,-1,18
 469 74 469 74 473 103 c 128,-1,19
 477 132 477 132 477 178 c 2,20,-1
 477 420 l 1,21,-1
 199 848 l 2,22,23
 183 873 183 873 164.5 899 c 128,-1,24
 146 925 146 925 124 946.5 c 128,-1,25
 102 968 102 968 75 981.5 c 128,-1,26
 48 995 48 995 14 995 c 1,27,-1
 14 1022 l 1,28,-1
 451 1022 l 1,29,-1
 451 995 l 1,30,31
 435 995 435 995 414.5 993 c 128,-1,32
 394 991 394 991 376 984.5 c 128,-1,33
 358 978 358 978 346 964.5 c 128,-1,34
 334 951 334 951 334 928 c 0,35,36
 334 914 334 914 352.5 877 c 128,-1,37
 371 840 371 840 399.5 793.5 c 128,-1,38
 428 747 428 747 461 696.5 c 128,-1,39
 494 646 494 646 522.5 603.5 c 128,-1,40
 551 561 551 561 571 532 c 128,-1,41
 591 503 591 503 592 500 c 2,42,-1
 795 815 l 2,43,44
 801 825 801 825 809 838.5 c 128,-1,45
 817 852 817 852 823.5 866.5 c 128,-1,46
 830 881 830 881 835 895.5 c 128,-1,47
 840 910 840 910 840 922 c 0,48,49
 840 943 840 943 830 957 c 128,-1,50
 820 971 820 971 805 979.5 c 128,-1,51
 790 988 790 988 772 991.5 c 128,-1,52
 754 995 754 995 737 995 c 1,53,-1
 737 1022 l 1,54,-1
 1094 1022 l 1,55,-1
 1094 995 l 1,0,1
EndSplineSet
EndChar
StartChar: backslash
Encoding: 92 92 64
Width: 430
GlyphClass: 2
Flags: W
LayerCount: 2
Fore
SplineSet
373 -23 m 1,0,-1
 2 1071 l 1,1,-1
 68 1071 l 1,2,-1
 434 -23 l 1,3,-1
 373 -23 l 1,0,-1
EndSplineSet
EndChar
StartChar: underscore
Encoding: 95 95 67
Width: 743
GlyphClass: 2
Flags: W
LayerCount: 2
Fore
SplineSet
0 -174 m 1,0,-1
 0 -119 l 1,1,-1
 743 -119 l 1,2,-1
 743 -174 l 1,3,-1
 0 -174 l 1,0,-1
EndSplineSet
EndChar
StartChar: grave
Encoding: 96 96 68
Width: 580
GlyphClass: 2
Flags: W
LayerCount: 2
Fore
SplineSet
375 786 m 1,0,-1
 154 926 l 2,1,2
 86 968 86 968 86 993 c 0,3,4
 86 1051 86 1051 133 1051 c 0,5,6
 173 1051 173 1051 223 1001 c 2,7,-1
 438 786 l 1,8,-1
 375 786 l 1,0,-1
EndSplineSet
EndChar
StartChar: a
Encoding: 97 97 69
Width: 686
GlyphClass: 2
Flags: W
LayerCount: 2
Fore
SplineSet
684 100 m 1,0,1
 670 81 670 81 652.5 60.5 c 128,-1,2
 635 40 635 40 614.5 23.5 c 128,-1,3
 594 7 594 7 570 -3.5 c 128,-1,4
 546 -14 546 -14 520 -14 c 0,5,6
 496 -14 496 -14 480.5 -4 c 128,-1,7
 465 6 465 6 456 22.5 c 128,-1,8
 447 39 447 39 443.5 59 c 128,-1,9
 440 79 440 79 440 100 c 1,10,11
 415 80 415 80 390 60 c 128,-1,12
 365 40 365 40 338 23.5 c 128,-1,13
 311 7 311 7 282 -3.5 c 128,-1,14
 253 -14 253 -14 219 -14 c 0,15,16
 180 -14 180 -14 149.5 -0.5 c 128,-1,17
 119 13 119 13 98 37 c 128,-1,18
 77 61 77 61 66 93.5 c 128,-1,19
 55 126 55 126 55 164 c 0,20,21
 55 206 55 206 74.5 241 c 128,-1,22
 94 276 94 276 126 305 c 128,-1,23
 158 334 158 334 199 357.5 c 128,-1,24
 240 381 240 381 283 399.5 c 128,-1,25
 326 418 326 418 367 432 c 128,-1,26
 408 446 408 446 440 457 c 1,27,-1
 440 485 l 2,28,29
 440 520 440 520 435.5 552.5 c 128,-1,30
 431 585 431 585 417 610.5 c 128,-1,31
 403 636 403 636 378 651 c 128,-1,32
 353 666 353 666 311 666 c 0,33,34
 277 666 277 666 256.5 656.5 c 128,-1,35
 236 647 236 647 225.5 629.5 c 128,-1,36
 215 612 215 612 212 588.5 c 128,-1,37
 209 565 209 565 209 537 c 0,38,39
 209 503 209 503 196 484 c 128,-1,40
 183 465 183 465 145 465 c 0,41,42
 110 465 110 465 96 485 c 128,-1,43
 82 505 82 505 82 537 c 0,44,45
 82 584 82 584 107 617 c 128,-1,46
 132 650 132 650 169.5 671 c 128,-1,47
 207 692 207 692 251 701.5 c 128,-1,48
 295 711 295 711 334 711 c 0,49,50
 399 711 399 711 443.5 698.5 c 128,-1,51
 488 686 488 686 515 657.5 c 128,-1,52
 542 629 542 629 553.5 584.5 c 128,-1,53
 565 540 565 540 565 475 c 2,54,-1
 565 240 l 2,55,56
 565 211 565 211 564.5 179 c 128,-1,57
 564 147 564 147 569 119 c 0,58,59
 572 105 572 105 578.5 93.5 c 128,-1,60
 585 82 585 82 602 82 c 0,61,62
 611 82 611 82 622.5 89.5 c 128,-1,63
 634 97 634 97 646 107 c 128,-1,64
 658 117 658 117 668.5 127.5 c 128,-1,65
 679 138 679 138 684 143 c 1,66,-1
 684 100 l 1,0,1
440 414 m 1,67,68
 406 400 406 400 361 381.5 c 128,-1,69
 316 363 316 363 276.5 337.5 c 128,-1,70
 237 312 237 312 209.5 278 c 128,-1,71
 182 244 182 244 182 199 c 0,72,73
 182 177 182 177 189 154.5 c 128,-1,74
 196 132 196 132 210 114 c 128,-1,75
 224 96 224 96 244 85 c 128,-1,76
 264 74 264 74 289 74 c 0,77,78
 309 74 309 74 329.5 81 c 128,-1,79
 350 88 350 88 369.5 99.5 c 128,-1,80
 389 111 389 111 407 124.5 c 128,-1,81
 425 138 425 138 440 150 c 1,82,-1
 440 414 l 1,67,68
EndSplineSet
EndChar
StartChar: b
Encoding: 98 98 70
Width: 772
GlyphClass: 2
Flags: W
LayerCount: 2
Fore
SplineSet
719 373 m 0,0,1
 719 297 719 297 693.5 225.5 c 128,-1,2
 668 154 668 154 621.5 99 c 128,-1,3
 575 44 575 44 509 10.5 c 128,-1,4
 443 -23 443 -23 362 -23 c 0,5,6
 293 -23 293 -23 229.5 3 c 128,-1,7
 166 29 166 29 111 68 c 1,8,-1
 111 780 l 2,9,10
 111 798 111 798 112.5 830 c 128,-1,11
 114 862 114 862 111 894 c 128,-1,12
 108 926 108 926 96 949.5 c 128,-1,13
 84 973 84 973 57 973 c 0,14,15
 43 973 43 973 30.5 969.5 c 128,-1,16
 18 966 18 966 4 963 c 1,17,-1
 -6 989 l 1,18,-1
 203 1071 l 1,19,-1
 238 1071 l 1,20,-1
 238 571 l 1,21,22
 257 598 257 598 280.5 623.5 c 128,-1,23
 304 649 304 649 331 668.5 c 128,-1,24
 358 688 358 688 389 699.5 c 128,-1,25
 420 711 420 711 455 711 c 0,26,27
 523 711 523 711 573 680.5 c 128,-1,28
 623 650 623 650 655.5 601.5 c 128,-1,29
 688 553 688 553 703.5 493 c 128,-1,30
 719 433 719 433 719 373 c 0,0,1
588 330 m 0,31,32
 588 374 588 374 578 422 c 128,-1,33
 568 470 568 470 544.5 510.5 c 128,-1,34
 521 551 521 551 484 577.5 c 128,-1,35
 447 604 447 604 393 604 c 0,36,37
 371 604 371 604 349.5 597 c 128,-1,38
 328 590 328 590 308.5 578.5 c 128,-1,39
 289 567 289 567 271 553 c 128,-1,40
 253 539 253 539 238 524 c 1,41,-1
 238 111 l 1,42,43
 270 77 270 77 311.5 56 c 128,-1,44
 353 35 353 35 401 35 c 0,45,46
 454 35 454 35 490 65 c 128,-1,47
 526 95 526 95 548 140 c 128,-1,48
 570 185 570 185 579 236.5 c 128,-1,49
 588 288 588 288 588 330 c 0,31,32
EndSplineSet
EndChar
StartChar: e
Encoding: 101 101 73
Width: 686
GlyphClass: 2
Flags: W
LayerCount: 2
Fore
SplineSet
641 252 m 1,0,1
 634 198 634 198 610 148.5 c 128,-1,2
 586 99 586 99 549 61 c 128,-1,3
 512 23 512 23 463.5 0 c 128,-1,4
 415 -23 415 -23 358 -23 c 0,5,6
 284 -23 284 -23 227.5 8 c 128,-1,7
 171 39 171 39 133 90 c 128,-1,8
 95 141 95 141 76 206 c 128,-1,9
 57 271 57 271 57 338 c 0,10,11
 57 413 57 413 76.5 480.5 c 128,-1,12
 96 548 96 548 135.5 599 c 128,-1,13
 175 650 175 650 235.5 680.5 c 128,-1,14
 296 711 296 711 377 711 c 0,15,16
 439 711 439 711 488 690 c 128,-1,17
 537 669 537 669 571 631.5 c 128,-1,18
 605 594 605 594 623 542.5 c 128,-1,19
 641 491 641 491 641 430 c 1,20,-1
 164 430 l 1,21,22
 164 374 164 374 179 316 c 128,-1,23
 194 258 194 258 225 210.5 c 128,-1,24
 256 163 256 163 303.5 132.5 c 128,-1,25
 351 102 351 102 416 102 c 0,26,27
 456 102 456 102 487.5 114.5 c 128,-1,28
 519 127 519 127 543.5 149.5 c 128,-1,29
 568 172 568 172 586.5 202.5 c 128,-1,30
 605 233 605 233 618 268 c 1,31,-1
 641 252 l 1,0,1
483 473 m 1,32,33
 483 508 483 508 474.5 541 c 128,-1,34
 466 574 466 574 447.5 599.5 c 128,-1,35
 429 625 429 625 401 641 c 128,-1,36
 373 657 373 657 334 657 c 256,37,38
 295 657 295 657 265 641.5 c 128,-1,39
 235 626 235 626 213.5 600.5 c 128,-1,40
 192 575 192 575 179.5 541.5 c 128,-1,41
 167 508 167 508 164 473 c 1,42,-1
 483 473 l 1,32,33
EndSplineSet
EndChar
StartChar: f
Encoding: 102 102 74
Width: 514
GlyphClass: 2
Flags: W
LayerCount: 2
Fore
SplineSet
672 942 m 0,0,1
 672 931 672 931 666.5 920 c 128,-1,2
 661 909 661 909 652.5 900.5 c 128,-1,3
 644 892 644 892 633 886.5 c 128,-1,4
 622 881 622 881 610 881 c 0,5,6
 585 881 585 881 566 902 c 128,-1,7
 547 923 547 923 527 948.5 c 128,-1,8
 507 974 507 974 482.5 995 c 128,-1,9
 458 1016 458 1016 422 1016 c 0,10,11
 391 1016 391 1016 371.5 1001 c 128,-1,12
 352 986 352 986 340 962 c 128,-1,13
 328 938 328 938 323 908 c 128,-1,14
 318 878 318 878 316.5 847 c 128,-1,15
 315 816 315 816 316 788 c 128,-1,16
 317 760 317 760 317 739 c 2,17,-1
 317 690 l 1,18,-1
 496 690 l 1,19,-1
 496 635 l 1,20,-1
 317 635 l 1,21,-1
 317 182 l 2,22,23
 317 130 317 130 322.5 99.5 c 128,-1,24
 328 69 328 69 345 53.5 c 128,-1,25
 362 38 362 38 393.5 33.5 c 128,-1,26
 425 29 425 29 477 29 c 1,27,-1
 477 0 l 1,28,-1
 61 0 l 1,29,-1
 61 29 l 1,30,31
 106 29 106 29 132 37.5 c 128,-1,32
 158 46 158 46 171.5 64.5 c 128,-1,33
 185 83 185 83 189 112 c 128,-1,34
 193 141 193 141 193 182 c 2,35,-1
 193 635 l 1,36,-1
 57 635 l 1,37,-1
 57 690 l 1,38,-1
 193 690 l 1,39,-1
 193 737 l 2,40,41
 193 803 193 803 211 863.5 c 128,-1,42
 229 924 229 924 265 970 c 128,-1,43
 301 1016 301 1016 355 1043.5 c 128,-1,44
 409 1071 409 1071 481 1071 c 0,45,46
 507 1071 507 1071 540 1062.5 c 128,-1,47
 573 1054 573 1054 602 1037.5 c 128,-1,48
 631 1021 631 1021 651.5 997 c 128,-1,49
 672 973 672 973 672 942 c 0,0,1
EndSplineSet
EndChar
StartChar: g
Encoding: 103 103 75
Width: 772
GlyphClass: 2
Flags: W
LayerCount: 2
Fore
SplineSet
743 629 m 0,0,1
 743 607 743 607 727.5 599 c 128,-1,2
 712 591 712 591 690.5 590 c 128,-1,3
 669 589 669 589 645.5 591.5 c 128,-1,4
 622 594 622 594 606 594 c 1,5,6
 628 565 628 565 637.5 528.5 c 128,-1,7
 647 492 647 492 647 457 c 0,8,9
 647 399 647 399 624.5 355.5 c 128,-1,10
 602 312 602 312 564 282.5 c 128,-1,11
 526 253 526 253 477 238 c 128,-1,12
 428 223 428 223 375 223 c 0,13,14
 349 223 349 223 322.5 226.5 c 128,-1,15
 296 230 296 230 270 238 c 1,16,17
 250 222 250 222 231.5 201 c 128,-1,18
 213 180 213 180 213 154 c 0,19,20
 213 131 213 131 235.5 121 c 128,-1,21
 258 111 258 111 294.5 107 c 128,-1,22
 331 103 331 103 378 103 c 128,-1,23
 425 103 425 103 474 101 c 128,-1,24
 523 99 523 99 570 92 c 128,-1,25
 617 85 617 85 653.5 67.5 c 128,-1,26
 690 50 690 50 712.5 19 c 128,-1,27
 735 -12 735 -12 735 -63 c 0,28,29
 735 -109 735 -109 717 -147 c 128,-1,30
 699 -185 699 -185 669 -215.5 c 128,-1,31
 639 -246 639 -246 599.5 -268 c 128,-1,32
 560 -290 560 -290 517 -305 c 128,-1,33
 474 -320 474 -320 430.5 -327 c 128,-1,34
 387 -334 387 -334 348 -334 c 0,35,36
 329 -334 329 -334 298.5 -330.5 c 128,-1,37
 268 -327 268 -327 234.5 -319.5 c 128,-1,38
 201 -312 201 -312 167 -300.5 c 128,-1,39
 133 -289 133 -289 106 -273 c 128,-1,40
 79 -257 79 -257 62 -236.5 c 128,-1,41
 45 -216 45 -216 45 -190 c 0,42,43
 45 -169 45 -169 61.5 -140.5 c 128,-1,44
 78 -112 78 -112 100.5 -84.5 c 128,-1,45
 123 -57 123 -57 146.5 -32.5 c 128,-1,46
 170 -8 170 -8 184 6 c 1,47,48
 174 12 174 12 162 21 c 128,-1,49
 150 30 150 30 139 41 c 128,-1,50
 128 52 128 52 120.5 64.5 c 128,-1,51
 113 77 113 77 113 90 c 0,52,53
 113 111 113 111 126 134.5 c 128,-1,54
 139 158 139 158 158 180 c 128,-1,55
 177 202 177 202 197.5 221 c 128,-1,56
 218 240 218 240 233 252 c 1,57,58
 203 266 203 266 178.5 288 c 128,-1,59
 154 310 154 310 137 337.5 c 128,-1,60
 120 365 120 365 111 396.5 c 128,-1,61
 102 428 102 428 102 461 c 0,62,63
 102 519 102 519 124.5 565.5 c 128,-1,64
 147 612 147 612 185 644 c 128,-1,65
 223 676 223 676 272.5 693.5 c 128,-1,66
 322 711 322 711 377 711 c 0,67,68
 410 711 410 711 441.5 702.5 c 128,-1,69
 473 694 473 694 504 684 c 128,-1,70
 535 674 535 674 566 665.5 c 128,-1,71
 597 657 597 657 629 657 c 0,72,73
 649 657 649 657 669 659.5 c 128,-1,74
 689 662 689 662 709 662 c 256,75,76
 729 662 729 662 736 658 c 128,-1,77
 743 654 743 654 743 629 c 0,0,1
514 436 m 0,78,79
 514 471 514 471 507.5 512.5 c 128,-1,80
 501 554 501 554 484 590 c 128,-1,81
 467 626 467 626 438 650 c 128,-1,82
 409 674 409 674 365 674 c 0,83,84
 327 674 327 674 301.5 657.5 c 128,-1,85
 276 641 276 641 261 615.5 c 128,-1,86
 246 590 246 590 239.5 558 c 128,-1,87
 233 526 233 526 233 494 c 0,88,89
 233 458 233 458 239.5 417 c 128,-1,90
 246 376 246 376 263.5 341 c 128,-1,91
 281 306 281 306 310.5 283 c 128,-1,92
 340 260 340 260 385 260 c 0,93,94
 424 260 424 260 449 275 c 128,-1,95
 474 290 474 290 488.5 315 c 128,-1,96
 503 340 503 340 508.5 371.5 c 128,-1,97
 514 403 514 403 514 436 c 0,78,79
680 -92 m 0,98,99
 680 -77 680 -77 673.5 -66 c 128,-1,100
 667 -55 667 -55 656.5 -47.5 c 128,-1,101
 646 -40 646 -40 632.5 -35 c 128,-1,102
 619 -30 619 -30 606 -27 c 0,103,104
 577 -20 577 -20 527 -16 c 128,-1,105
 477 -12 477 -12 421.5 -9.5 c 128,-1,106
 366 -7 366 -7 313 -5 c 128,-1,107
 260 -3 260 -3 225 0 c 1,108,109
 215 -12 215 -12 202.5 -27.5 c 128,-1,110
 190 -43 190 -43 179 -60.5 c 128,-1,111
 168 -78 168 -78 161 -96.5 c 128,-1,112
 154 -115 154 -115 154 -133 c 0,113,114
 154 -156 154 -156 169 -173 c 128,-1,115
 184 -190 184 -190 207.5 -202 c 128,-1,116
 231 -214 231 -214 260.5 -222 c 128,-1,117
 290 -230 290 -230 319 -234.5 c 128,-1,118
 348 -239 348 -239 374 -240.5 c 128,-1,119
 400 -242 400 -242 416 -242 c 0,120,121
 450 -242 450 -242 495.5 -235.5 c 128,-1,122
 541 -229 541 -229 582 -212 c 128,-1,123
 623 -195 623 -195 651.5 -166 c 128,-1,124
 680 -137 680 -137 680 -92 c 0,98,99
EndSplineSet
EndChar
StartChar: h
Encoding: 104 104 76
Width: 772
GlyphClass: 2
Flags: W
LayerCount: 2
Fore
SplineSet
424 0 m 1,0,-1
 424 29 l 1,1,2
 458 29 458 29 479.5 34 c 128,-1,3
 501 39 501 39 513.5 51.5 c 128,-1,4
 526 64 526 64 530.5 85.5 c 128,-1,5
 535 107 535 107 535 141 c 2,6,-1
 535 412 l 2,7,8
 535 444 535 444 534 480 c 128,-1,9
 533 516 533 516 523 546.5 c 128,-1,10
 513 577 513 577 490 597.5 c 128,-1,11
 467 618 467 618 424 618 c 0,12,13
 398 618 398 618 374 609.5 c 128,-1,14
 350 601 350 601 328 587.5 c 128,-1,15
 306 574 306 574 287 556 c 128,-1,16
 268 538 268 538 252 520 c 1,17,-1
 252 141 l 2,18,19
 252 107 252 107 255.5 85 c 128,-1,20
 259 63 259 63 271 50.5 c 128,-1,21
 283 38 283 38 304.5 33.5 c 128,-1,22
 326 29 326 29 362 29 c 1,23,-1
 362 0 l 1,24,-1
 20 0 l 1,25,-1
 20 29 l 1,26,27
 53 29 53 29 74 34.5 c 128,-1,28
 95 40 95 40 107 53.5 c 128,-1,29
 119 67 119 67 123 88.5 c 128,-1,30
 127 110 127 110 127 141 c 2,31,-1
 127 870 l 2,32,33
 127 882 127 882 125.5 900 c 128,-1,34
 124 918 124 918 119 934.5 c 128,-1,35
 114 951 114 951 104 963 c 128,-1,36
 94 975 94 975 76 975 c 0,37,38
 62 975 62 975 48 971.5 c 128,-1,39
 34 968 34 968 20 963 c 1,40,-1
 8 989 l 1,41,-1
 217 1071 l 1,42,-1
 252 1071 l 1,43,-1
 252 567 l 1,44,45
 272 597 272 597 296 623.5 c 128,-1,46
 320 650 320 650 348.5 669.5 c 128,-1,47
 377 689 377 689 410.5 700 c 128,-1,48
 444 711 444 711 481 711 c 0,49,50
 547 711 547 711 583.5 680.5 c 128,-1,51
 620 650 620 650 637.5 604 c 128,-1,52
 655 558 655 558 658.5 503 c 128,-1,53
 662 448 662 448 662 399 c 2,54,-1
 662 141 l 2,55,56
 662 110 662 110 665.5 88.5 c 128,-1,57
 669 67 669 67 680 53.5 c 128,-1,58
 691 40 691 40 711 34.5 c 128,-1,59
 731 29 731 29 764 29 c 1,60,-1
 764 0 l 1,61,-1
 424 0 l 1,0,-1
EndSplineSet
EndChar
StartChar: i
Encoding: 105 105 77
Width: 430
GlyphClass: 2
Flags: W
LayerCount: 2
Fore
SplineSet
303 926 m 0,0,1
 303 894 303 894 281 871 c 128,-1,2
 259 848 259 848 227 848 c 256,3,4
 195 848 195 848 172.5 870 c 128,-1,5
 150 892 150 892 150 926 c 0,6,7
 150 958 150 958 172.5 979.5 c 128,-1,8
 195 1001 195 1001 227 1001 c 0,9,10
 258 1001 258 1001 280.5 979 c 128,-1,11
 303 957 303 957 303 926 c 0,0,1
57 0 m 1,12,-1
 57 29 l 1,13,14
 91 29 91 29 112 34 c 128,-1,15
 133 39 133 39 144.5 52 c 128,-1,16
 156 65 156 65 160 86.5 c 128,-1,17
 164 108 164 108 164 141 c 2,18,-1
 164 510 l 2,19,20
 164 523 164 523 162.5 540.5 c 128,-1,21
 161 558 161 558 156 574 c 128,-1,22
 151 590 151 590 140 601 c 128,-1,23
 129 612 129 612 111 612 c 0,24,25
 98 612 98 612 84.5 608.5 c 128,-1,26
 71 605 71 605 57 600 c 1,27,-1
 47 627 l 1,28,-1
 256 711 l 1,29,-1
 289 711 l 1,30,-1
 289 141 l 2,31,32
 289 108 289 108 293 86.5 c 128,-1,33
 297 65 297 65 308.5 52 c 128,-1,34
 320 39 320 39 340.5 34 c 128,-1,35
 361 29 361 29 395 29 c 1,36,-1
 395 0 l 1,37,-1
 57 0 l 1,12,-1
EndSplineSet
EndChar
StartChar: k
Encoding: 107 107 79
Width: 772
GlyphClass: 2
Flags: W
LayerCount: 2
Fore
SplineSet
446 0 m 1,0,-1
 446 29 l 1,1,2
 453 29 453 29 461.5 29.5 c 128,-1,3
 470 30 470 30 477 33 c 128,-1,4
 484 36 484 36 489 41 c 128,-1,5
 494 46 494 46 494 55 c 0,6,7
 494 72 494 72 484 87 c 128,-1,8
 474 102 474 102 465 115 c 2,9,-1
 254 381 l 1,10,-1
 254 156 l 2,11,12
 254 120 254 120 256.5 95.5 c 128,-1,13
 259 71 259 71 269.5 56 c 128,-1,14
 280 41 280 41 302.5 35 c 128,-1,15
 325 29 325 29 365 29 c 1,16,-1
 365 0 l 1,17,-1
 10 0 l 1,18,-1
 10 29 l 1,19,20
 49 29 49 29 71.5 34 c 128,-1,21
 94 39 94 39 106 52.5 c 128,-1,22
 118 66 118 66 121.5 90 c 128,-1,23
 125 114 125 114 125 152 c 2,24,-1
 125 797 l 2,25,26
 125 808 125 808 125.5 825 c 128,-1,27
 126 842 126 842 126 862 c 128,-1,28
 126 882 126 882 124 902 c 128,-1,29
 122 922 122 922 116 938.5 c 128,-1,30
 110 955 110 955 100 965 c 128,-1,31
 90 975 90 975 74 975 c 0,32,33
 61 975 61 975 49 971.5 c 128,-1,34
 37 968 37 968 25 963 c 1,35,-1
 10 989 l 1,36,-1
 219 1071 l 1,37,-1
 254 1071 l 1,38,-1
 254 397 l 1,39,-1
 428 545 l 2,40,41
 434 550 434 550 446 560.5 c 128,-1,42
 458 571 458 571 470 583 c 128,-1,43
 482 595 482 595 491 607.5 c 128,-1,44
 500 620 500 620 500 629 c 0,45,46
 500 650 500 650 481.5 658.5 c 128,-1,47
 463 667 463 667 446 668 c 1,48,-1
 446 690 l 1,49,-1
 745 690 l 1,50,-1
 745 668 l 1,51,52
 713 667 713 667 687.5 662 c 128,-1,53
 662 657 662 657 640 647 c 128,-1,54
 618 637 618 637 597.5 622 c 128,-1,55
 577 607 577 607 553 586 c 2,56,-1
 371 424 l 1,57,-1
 553 197 l 2,58,59
 571 174 571 174 589 151 c 128,-1,60
 607 128 607 128 626 107 c 128,-1,61
 645 86 645 86 667 68 c 128,-1,62
 689 50 689 50 715 35 c 0,63,64
 726 29 726 29 747.5 29 c 128,-1,65
 769 29 769 29 780 29 c 1,66,-1
 780 0 l 1,67,-1
 446 0 l 1,0,-1
EndSplineSet
EndChar
StartChar: m
Encoding: 109 109 81
Width: 1202
GlyphClass: 2
Flags: W
LayerCount: 2
Fore
SplineSet
854 0 m 1,0,-1
 854 29 l 1,1,2
 894 29 894 29 916.5 35 c 128,-1,3
 939 41 939 41 949.5 56 c 128,-1,4
 960 71 960 71 962.5 95.5 c 128,-1,5
 965 120 965 120 965 156 c 2,6,-1
 965 455 l 2,7,8
 965 484 965 484 960.5 513.5 c 128,-1,9
 956 543 956 543 943.5 567 c 128,-1,10
 931 591 931 591 908.5 606 c 128,-1,11
 886 621 886 621 850 621 c 0,12,13
 824 621 824 621 799.5 613 c 128,-1,14
 775 605 775 605 752.5 591.5 c 128,-1,15
 730 578 730 578 710 561 c 128,-1,16
 690 544 690 544 672 526 c 1,17,-1
 672 156 l 2,18,19
 672 120 672 120 675 95.5 c 128,-1,20
 678 71 678 71 689 56 c 128,-1,21
 700 41 700 41 722.5 35 c 128,-1,22
 745 29 745 29 784 29 c 1,23,-1
 784 0 l 1,24,-1
 434 0 l 1,25,-1
 434 29 l 1,26,27
 475 29 475 29 497.5 35 c 128,-1,28
 520 41 520 41 531 55.5 c 128,-1,29
 542 70 542 70 544.5 94.5 c 128,-1,30
 547 119 547 119 547 156 c 2,31,-1
 547 455 l 2,32,33
 547 485 547 485 542 515 c 128,-1,34
 537 545 537 545 524.5 569 c 128,-1,35
 512 593 512 593 489 608 c 128,-1,36
 466 623 466 623 430 623 c 0,37,38
 403 623 403 623 378.5 614.5 c 128,-1,39
 354 606 354 606 331.5 592.5 c 128,-1,40
 309 579 309 579 289.5 561.5 c 128,-1,41
 270 544 270 544 252 526 c 1,42,-1
 252 156 l 2,43,44
 252 120 252 120 255 95.5 c 128,-1,45
 258 71 258 71 269 56 c 128,-1,46
 280 41 280 41 303 35 c 128,-1,47
 326 29 326 29 365 29 c 1,48,-1
 365 0 l 1,49,-1
 23 0 l 1,50,-1
 23 29 l 1,51,52
 60 29 60 29 80.5 36.5 c 128,-1,53
 101 44 101 44 111.5 59.5 c 128,-1,54
 122 75 122 75 124.5 99 c 128,-1,55
 127 123 127 123 127 156 c 2,56,-1
 127 436 l 2,57,58
 127 451 127 451 128 480.5 c 128,-1,59
 129 510 129 510 125.5 539.5 c 128,-1,60
 122 569 122 569 110.5 590.5 c 128,-1,61
 99 612 99 612 74 612 c 0,62,63
 61 612 61 612 48 608.5 c 128,-1,64
 35 605 35 605 23 600 c 1,65,-1
 10 627 l 1,66,-1
 219 711 l 1,67,-1
 252 711 l 1,68,-1
 252 565 l 1,69,70
 276 591 276 591 302.5 617 c 128,-1,71
 329 643 329 643 358 664 c 128,-1,72
 387 685 387 685 420 698 c 128,-1,73
 453 711 453 711 492 711 c 0,74,75
 566 711 566 711 608.5 672.5 c 128,-1,76
 651 634 651 634 668 565 c 1,77,78
 692 593 692 593 717.5 619 c 128,-1,79
 743 645 743 645 772 665.5 c 128,-1,80
 801 686 801 686 835 698.5 c 128,-1,81
 869 711 869 711 909 711 c 0,82,83
 965 711 965 711 1001 688.5 c 128,-1,84
 1037 666 1037 666 1057 630 c 128,-1,85
 1077 594 1077 594 1084.5 548 c 128,-1,86
 1092 502 1092 502 1092 455 c 2,87,-1
 1092 156 l 2,88,89
 1092 124 1092 124 1095 100 c 128,-1,90
 1098 76 1098 76 1108.5 60.5 c 128,-1,91
 1119 45 1119 45 1139.5 37 c 128,-1,92
 1160 29 1160 29 1196 29 c 1,93,-1
 1196 0 l 1,94,-1
 854 0 l 1,0,-1
EndSplineSet
EndChar
StartChar: v
Encoding: 118 118 90
Width: 772
GlyphClass: 2
Flags: W
LayerCount: 2
Fore
SplineSet
758 662 m 1,0,1
 734 661 734 661 718 654.5 c 128,-1,2
 702 648 702 648 691 636.5 c 128,-1,3
 680 625 680 625 672 608.5 c 128,-1,4
 664 592 664 592 655 571 c 2,5,-1
 412 -23 l 1,6,-1
 381 -23 l 1,7,-1
 133 563 l 2,8,9
 122 588 122 588 111.5 605 c 128,-1,10
 101 622 101 622 87.5 633 c 128,-1,11
 74 644 74 644 56 651 c 128,-1,12
 38 658 38 658 12 662 c 1,13,-1
 12 690 l 1,14,-1
 338 690 l 1,15,-1
 338 662 l 1,16,17
 322 662 322 662 307 661 c 128,-1,18
 292 660 292 660 281 655 c 128,-1,19
 270 650 270 650 263 639 c 128,-1,20
 256 628 256 628 256 608 c 0,21,22
 256 591 256 591 261 576 c 128,-1,23
 266 561 266 561 272 547 c 2,24,-1
 432 166 l 1,25,-1
 594 563 l 2,26,27
 600 577 600 577 605 593.5 c 128,-1,28
 610 610 610 610 610 627 c 0,29,30
 610 641 610 641 602 648 c 128,-1,31
 594 655 594 655 582 658 c 128,-1,32
 570 661 570 661 556.5 661.5 c 128,-1,33
 543 662 543 662 532 662 c 1,34,-1
 532 690 l 1,35,-1
 758 690 l 1,36,-1
 758 662 l 1,0,1
EndSplineSet
EndChar
StartChar: x
Encoding: 120 120 92
Width: 772
GlyphClass: 2
Flags: W
LayerCount: 2
Fore
SplineSet
428 0 m 1,0,-1
 428 29 l 1,1,2
 439 29 439 29 451 30.5 c 128,-1,3
 463 32 463 32 473 36.5 c 128,-1,4
 483 41 483 41 489.5 49.5 c 128,-1,5
 496 58 496 58 496 72 c 0,6,7
 496 79 496 79 486.5 96.5 c 128,-1,8
 477 114 477 114 462 137.5 c 128,-1,9
 447 161 447 161 429.5 187 c 128,-1,10
 412 213 412 213 395 236.5 c 128,-1,11
 378 260 378 260 365 278.5 c 128,-1,12
 352 297 352 297 346 305 c 1,13,14
 339 296 339 296 324 278 c 128,-1,15
 309 260 309 260 291 237.5 c 128,-1,16
 273 215 273 215 254 190.5 c 128,-1,17
 235 166 235 166 219.5 143 c 128,-1,18
 204 120 204 120 194 102 c 128,-1,19
 184 84 184 84 184 74 c 0,20,21
 184 60 184 60 190.5 51.5 c 128,-1,22
 197 43 197 43 207 38 c 128,-1,23
 217 33 217 33 229 31 c 128,-1,24
 241 29 241 29 252 29 c 1,25,-1
 252 0 l 1,26,-1
 27 0 l 1,27,-1
 27 29 l 1,28,29
 48 30 48 30 68.5 44.5 c 128,-1,30
 89 59 89 59 107.5 79 c 128,-1,31
 126 99 126 99 142 121 c 128,-1,32
 158 143 158 143 170 158 c 2,33,-1
 315 350 l 1,34,-1
 184 541 l 2,35,36
 166 566 166 566 151 587.5 c 128,-1,37
 136 609 136 609 118 625 c 128,-1,38
 100 641 100 641 76.5 650.5 c 128,-1,39
 53 660 53 660 20 662 c 1,40,-1
 20 690 l 1,41,-1
 346 690 l 1,42,-1
 346 662 l 1,43,-1
 338 662 l 2,44,45
 319 664 319 664 304 656 c 128,-1,46
 289 648 289 648 289 625 c 0,47,48
 289 616 289 616 302.5 592 c 128,-1,49
 316 568 316 568 333.5 540 c 128,-1,50
 351 512 351 512 367.5 487.5 c 128,-1,51
 384 463 384 463 391 453 c 1,52,53
 398 463 398 463 416.5 487.5 c 128,-1,54
 435 512 435 512 454 539.5 c 128,-1,55
 473 567 473 567 487.5 592 c 128,-1,56
 502 617 502 617 502 627 c 0,57,58
 502 638 502 638 497 645 c 128,-1,59
 492 652 492 652 483.5 656 c 128,-1,60
 475 660 475 660 465 661 c 128,-1,61
 455 662 455 662 446 662 c 1,62,-1
 446 690 l 1,63,-1
 680 690 l 1,64,-1
 680 662 l 1,65,66
 640 661 640 661 601.5 630 c 128,-1,67
 563 599 563 599 529 557.5 c 128,-1,68
 495 516 495 516 467 472.5 c 128,-1,69
 439 429 439 429 420 403 c 1,70,-1
 592 158 l 2,71,72
 609 134 609 134 625 111.5 c 128,-1,73
 641 89 641 89 659.5 71 c 128,-1,74
 678 53 678 53 700.5 42 c 128,-1,75
 723 31 723 31 754 29 c 1,76,-1
 754 0 l 1,77,-1
 428 0 l 1,0,-1
EndSplineSet
EndChar
StartChar: braceleft
Encoding: 123 123 95
Width: 737
GlyphClass: 2
Flags: W
LayerCount: 2
Fore
SplineSet
584 -332 m 1,0,1
 529 -326 529 -326 478.5 -301.5 c 128,-1,2
 428 -277 428 -277 389 -238.5 c 128,-1,3
 350 -200 350 -200 326.5 -150 c 128,-1,4
 303 -100 303 -100 303 -43 c 0,5,6
 303 -14 303 -14 308.5 14.5 c 128,-1,7
 314 43 314 43 320.5 71.5 c 128,-1,8
 327 100 327 100 332.5 128.5 c 128,-1,9
 338 157 338 157 338 186 c 0,10,11
 338 219 338 219 322.5 247.5 c 128,-1,12
 307 276 307 276 282 297.5 c 128,-1,13
 257 319 257 319 226 332.5 c 128,-1,14
 195 346 195 346 164 350 c 1,15,-1
 164 389 l 1,16,17
 195 393 195 393 226 406.5 c 128,-1,18
 257 420 257 420 282 441 c 128,-1,19
 307 462 307 462 322.5 490 c 128,-1,20
 338 518 338 518 338 551 c 0,21,22
 338 582 338 582 332.5 612 c 128,-1,23
 327 642 327 642 320.5 672 c 128,-1,24
 314 702 314 702 308.5 732 c 128,-1,25
 303 762 303 762 303 793 c 0,26,27
 303 849 303 849 327 897.5 c 128,-1,28
 351 946 351 946 391 982.5 c 128,-1,29
 431 1019 431 1019 481.5 1042.5 c 128,-1,30
 532 1066 532 1066 584 1071 c 1,31,-1
 584 1044 l 1,32,33
 505 1026 505 1026 460.5 977.5 c 128,-1,34
 416 929 416 929 416 846 c 0,35,36
 416 820 416 820 421 794 c 128,-1,37
 426 768 426 768 432.5 742 c 128,-1,38
 439 716 439 716 444 690 c 128,-1,39
 449 664 449 664 449 637 c 0,40,41
 449 534 449 534 392.5 469.5 c 128,-1,42
 336 405 336 405 242 371 c 1,43,44
 337 336 337 336 393 270.5 c 128,-1,45
 449 205 449 205 449 100 c 0,46,47
 449 73 449 73 444 47.5 c 128,-1,48
 439 22 439 22 432.5 -3.5 c 128,-1,49
 426 -29 426 -29 421 -54.5 c 128,-1,50
 416 -80 416 -80 416 -106 c 0,51,52
 416 -190 416 -190 460.5 -238.5 c 128,-1,53
 505 -287 505 -287 584 -305 c 1,54,-1
 584 -332 l 1,0,1
EndSplineSet
EndChar
StartChar: bar
Encoding: 124 124 96
Width: 309
GlyphClass: 2
Flags: W
LayerCount: 2
Fore
SplineSet
121 -334 m 1,0,-1
 121 1071 l 1,1,-1
 186 1071 l 1,2,-1
 186 -334 l 1,3,-1
 121 -334 l 1,0,-1
EndSplineSet
EndChar
StartChar: asciitilde
Encoding: 126 126 98
Width: 840
GlyphClass: 2
Flags: W
LayerCount: 2
Fore
SplineSet
811 475 m 1,0,1
 795 444 795 444 774 414.5 c 128,-1,2
 753 385 753 385 726.5 362 c 128,-1,3
 700 339 700 339 668 325 c 128,-1,4
 636 311 636 311 598 311 c 0,5,6
 551 311 551 311 506 328.5 c 128,-1,7
 461 346 461 346 416 366.5 c 128,-1,8
 371 387 371 387 326.5 404.5 c 128,-1,9
 282 422 282 422 236 422 c 0,10,11
 205 422 205 422 181 408.5 c 128,-1,12
 157 395 157 395 137.5 374 c 128,-1,13
 118 353 118 353 102 328 c 128,-1,14
 86 303 86 303 72 279 c 1,15,-1
 31 334 l 1,16,17
 48 366 48 366 67.5 398 c 128,-1,18
 87 430 87 430 112.5 455.5 c 128,-1,19
 138 481 138 481 170 496.5 c 128,-1,20
 202 512 202 512 244 512 c 0,21,22
 287 512 287 512 335 494 c 128,-1,23
 383 476 383 476 431 454.5 c 128,-1,24
 479 433 479 433 524 415 c 128,-1,25
 569 397 569 397 606 397 c 0,26,27
 635 397 635 397 659.5 409 c 128,-1,28
 684 421 684 421 704 440 c 128,-1,29
 724 459 724 459 740 483.5 c 128,-1,30
 756 508 756 508 768 532 c 1,31,-1
 811 475 l 1,0,1
EndSplineSet
EndChar
StartChar: exclamdown
Encoding: 161 161 127
Width: 514
Flags: W
LayerCount: 2
Fore
SplineSet
342 649 m 0,0,1
 342 629 342 629 334 614 c 128,-1,2
 326 599 326 599 314 588.5 c 128,-1,3
 302 578 302 578 287 572.5 c 128,-1,4
 272 567 272 567 257 567 c 256,5,6
 242 567 242 567 227.5 572.5 c 128,-1,7
 213 578 213 578 201 588.5 c 128,-1,8
 189 599 189 599 181.5 614.5 c 128,-1,9
 174 630 174 630 174 649 c 0,10,11
 174 667 174 667 181 683 c 128,-1,12
 188 699 188 699 199 710.5 c 128,-1,13
 210 722 210 722 225.5 729 c 128,-1,14
 241 736 241 736 257 736 c 0,15,16
 270 736 270 736 285 731 c 128,-1,17
 300 726 300 726 312.5 715.5 c 128,-1,18
 325 705 325 705 333.5 688.5 c 128,-1,19
 342 672 342 672 342 649 c 0,0,1
343 -227 m 0,20,21
 343 -278 343 -278 318 -305.5 c 128,-1,22
 293 -333 293 -333 255 -333 c 0,23,24
 241 -333 241 -333 226 -327 c 128,-1,25
 211 -321 211 -321 199 -307.5 c 128,-1,26
 187 -294 187 -294 179 -272.5 c 128,-1,27
 171 -251 171 -251 171 -220 c 0,28,29
 171 -211 171 -211 171.5 -198 c 128,-1,30
 172 -185 172 -185 174 -169 c 2,31,-1
 242 442 l 1,32,-1
 272 442 l 1,33,-1
 337 -169 l 2,34,35
 341 -196 341 -196 342 -207 c 128,-1,36
 343 -218 343 -218 343 -227 c 0,20,21
EndSplineSet
EndChar
StartChar: yen
Encoding: 165 165 131
Width: 772
Flags: W
LayerCount: 2
Fore
SplineSet
451 266 m 1,0,-1
 451 184 l 2,1,2
 451 141 451 141 453.5 111.5 c 128,-1,3
 456 82 456 82 468 64 c 128,-1,4
 480 46 480 46 506 38.5 c 128,-1,5
 532 31 532 31 580 31 c 1,6,-1
 580 0 l 1,7,-1
 190 0 l 1,8,-1
 190 31 l 1,9,10
 240 31 240 31 266.5 38 c 128,-1,11
 293 45 293 45 305.5 62 c 128,-1,12
 318 79 318 79 320 109 c 128,-1,13
 322 139 322 139 322 184 c 2,14,-1
 322 266 l 1,15,-1
 14 266 l 1,16,-1
 14 322 l 1,17,-1
 322 322 l 1,18,-1
 322 430 l 1,19,-1
 311 457 l 1,20,-1
 14 457 l 1,21,-1
 14 510 l 1,22,-1
 285 510 l 1,23,-1
 125 885 l 2,24,25
 114 909 114 909 104 928.5 c 128,-1,26
 94 948 94 948 81 961.5 c 128,-1,27
 68 975 68 975 49.5 983.5 c 128,-1,28
 31 992 31 992 2 995 c 1,29,-1
 2 1022 l 1,30,-1
 336 1022 l 1,31,-1
 336 995 l 1,32,33
 326 994 326 994 310 991.5 c 128,-1,34
 294 989 294 989 279 984 c 128,-1,35
 264 979 264 979 253 970 c 128,-1,36
 242 961 242 961 242 948 c 0,37,38
 242 944 242 944 254 912.5 c 128,-1,39
 266 881 266 881 285 835 c 128,-1,40
 304 789 304 789 325.5 735.5 c 128,-1,41
 347 682 347 682 367 634.5 c 128,-1,42
 387 587 387 587 401 552.5 c 128,-1,43
 415 518 415 518 418 510 c 1,44,-1
 580 891 l 2,45,46
 585 905 585 905 589.5 919 c 128,-1,47
 594 933 594 933 594 948 c 256,48,49
 594 963 594 963 585.5 972 c 128,-1,50
 577 981 577 981 564.5 986 c 128,-1,51
 552 991 552 991 537 992.5 c 128,-1,52
 522 994 522 994 510 995 c 1,53,-1
 510 1022 l 1,54,-1
 772 1022 l 1,55,-1
 772 995 l 1,56,57
 744 995 744 995 724 985.5 c 128,-1,58
 704 976 704 976 689 959.5 c 128,-1,59
 674 943 674 943 663 922 c 128,-1,60
 652 901 652 901 641 877 c 2,61,-1
 477 510 l 1,62,-1
 758 510 l 1,63,-1
 758 457 l 1,64,-1
 457 457 l 1,65,-1
 451 442 l 1,66,-1
 451 322 l 1,67,-1
 758 322 l 1,68,-1
 758 266 l 1,69,-1
 451 266 l 1,0,-1
EndSplineSet
EndChar
StartChar: ordfeminine
Encoding: 170 170 136
Width: 492
Flags: W
LayerCount: 2
Fore
SplineSet
490 667 m 1,0,1
 430 600 430 600 373 600 c 0,2,3
 350 600 350 600 332.5 614 c 128,-1,4
 315 628 315 628 315 667 c 1,5,6
 282 646 282 646 260.5 633 c 128,-1,7
 239 620 239 620 222.5 612.5 c 128,-1,8
 206 605 206 605 191.5 602.5 c 128,-1,9
 177 600 177 600 157 600 c 0,10,11
 103 600 103 600 70.5 629 c 128,-1,12
 38 658 38 658 38 706 c 0,13,14
 38 729 38 729 48 750 c 128,-1,15
 58 771 58 771 88 792 c 128,-1,16
 118 813 118 813 172.5 835 c 128,-1,17
 227 857 227 857 315 883 c 1,18,-1
 315 899 l 2,19,20
 315 959 315 959 292 983.5 c 128,-1,21
 269 1008 269 1008 221 1008 c 0,22,23
 188 1008 188 1008 168.5 993 c 128,-1,24
 149 978 149 978 147 957 c 2,25,-1
 149 930 l 2,26,27
 150 910 150 910 137 898.5 c 128,-1,28
 124 887 124 887 104 887 c 0,29,30
 58 887 58 887 58 930 c 0,31,32
 58 954 58 954 73 973.5 c 128,-1,33
 88 993 88 993 113 1006.5 c 128,-1,34
 138 1020 138 1020 170.5 1027 c 128,-1,35
 203 1034 203 1034 239 1034 c 0,36,37
 293 1034 293 1034 325.5 1024 c 128,-1,38
 358 1014 358 1014 376 995.5 c 128,-1,39
 394 977 394 977 399.5 951 c 128,-1,40
 405 925 405 925 405 893 c 2,41,-1
 405 752 l 2,42,43
 405 723 405 723 405.5 704.5 c 128,-1,44
 406 686 406 686 408 679 c 0,45,46
 411 656 411 656 432 656 c 0,47,48
 437 656 437 656 441 657 c 128,-1,49
 445 658 445 658 451 662 c 128,-1,50
 457 666 457 666 466.5 673 c 128,-1,51
 476 680 476 680 490 693 c 1,52,-1
 490 667 l 1,0,1
44 493 m 1,53,-1
 44 526 l 1,54,-1
 482 526 l 1,55,-1
 482 493 l 1,56,-1
 44 493 l 1,53,-1
315 856 m 1,57,58
 252 835 252 835 215.5 818 c 128,-1,59
 179 801 179 801 160 785.5 c 128,-1,60
 141 770 141 770 136 755.5 c 128,-1,61
 131 741 131 741 131 726 c 0,62,63
 131 695 131 695 153 673.5 c 128,-1,64
 175 652 175 652 207 651 c 0,65,66
 227 649 227 649 254.5 661.5 c 128,-1,67
 282 674 282 674 315 697 c 1,68,-1
 315 856 l 1,57,58
EndSplineSet
EndChar
StartChar: logicalnot
Encoding: 172 172 139
Width: 922
Flags: W
LayerCount: 2
Fore
SplineSet
772 281 m 1,0,-1
 772 535 l 1,1,-1
 59 535 l 1,2,-1
 59 625 l 1,3,-1
 862 625 l 1,4,-1
 862 281 l 1,5,-1
 772 281 l 1,0,-1
EndSplineSet
EndChar
StartChar: registered
Encoding: 174 174 141
Width: 1174
Flags: W
LayerCount: 2
Fore
SplineSet
1122 510 m 0,0,1
 1122 398 1122 398 1080.5 300.5 c 128,-1,2
 1039 203 1039 203 967 130.5 c 128,-1,3
 895 58 895 58 797 16.5 c 128,-1,4
 699 -25 699 -25 586 -25 c 256,5,6
 473 -25 473 -25 375.5 16.5 c 128,-1,7
 278 58 278 58 206 130 c 128,-1,8
 134 202 134 202 92.5 299.5 c 128,-1,9
 51 397 51 397 51 510 c 0,10,11
 51 624 51 624 92.5 721.5 c 128,-1,12
 134 819 134 819 206 890.5 c 128,-1,13
 278 962 278 962 375.5 1003 c 128,-1,14
 473 1044 473 1044 586 1044 c 0,15,16
 700 1044 700 1044 798 1003 c 128,-1,17
 896 962 896 962 968 890.5 c 128,-1,18
 1040 819 1040 819 1081 721.5 c 128,-1,19
 1122 624 1122 624 1122 510 c 0,0,1
1075 510 m 0,20,21
 1075 613 1075 613 1037 702 c 128,-1,22
 999 791 999 791 933 857 c 128,-1,23
 867 923 867 923 778 961 c 128,-1,24
 689 999 689 999 586 999 c 0,25,26
 484 999 484 999 395 961 c 128,-1,27
 306 923 306 923 240.5 856.5 c 128,-1,28
 175 790 175 790 137.5 701 c 128,-1,29
 100 612 100 612 100 510 c 256,30,31
 100 408 100 408 137.5 319.5 c 128,-1,32
 175 231 175 231 240.5 165.5 c 128,-1,33
 306 100 306 100 395 62.5 c 128,-1,34
 484 25 484 25 586 25 c 0,35,36
 689 25 689 25 778 62.5 c 128,-1,37
 867 100 867 100 933 165.5 c 128,-1,38
 999 231 999 231 1037 319.5 c 128,-1,39
 1075 408 1075 408 1075 510 c 0,20,21
748 188 m 1,40,-1
 526 494 l 1,41,-1
 469 494 l 1,42,-1
 469 260 l 2,43,44
 469 243 469 243 478.5 233.5 c 128,-1,45
 488 224 488 224 502 219.5 c 128,-1,46
 516 215 516 215 531.5 214 c 128,-1,47
 547 213 547 213 559 213 c 1,48,-1
 559 188 l 1,49,-1
 283 188 l 1,50,-1
 283 213 l 1,51,52
 313 213 313 213 328 219.5 c 128,-1,53
 343 226 343 226 350 239 c 128,-1,54
 357 252 357 252 357.5 271 c 128,-1,55
 358 290 358 290 358 315 c 2,56,-1
 358 711 l 2,57,58
 358 733 358 733 358.5 752 c 128,-1,59
 359 771 359 771 354 784.5 c 128,-1,60
 349 798 349 798 334.5 805.5 c 128,-1,61
 320 813 320 813 291 813 c 1,62,-1
 291 840 l 1,63,-1
 582 840 l 2,64,65
 621 840 621 840 661 831 c 128,-1,66
 701 822 701 822 733.5 801.5 c 128,-1,67
 766 781 766 781 786.5 749 c 128,-1,68
 807 717 807 717 807 672 c 0,69,70
 807 634 807 634 793 606 c 128,-1,71
 779 578 779 578 756 557.5 c 128,-1,72
 733 537 733 537 702.5 524.5 c 128,-1,73
 672 512 672 512 639 504 c 1,74,-1
 797 279 l 2,75,76
 812 256 812 256 835 236 c 128,-1,77
 858 216 858 216 889 213 c 1,78,-1
 889 188 l 1,79,-1
 748 188 l 1,40,-1
686 662 m 0,80,81
 686 696 686 696 674 723 c 128,-1,82
 662 750 662 750 641 768.5 c 128,-1,83
 620 787 620 787 592 797 c 128,-1,84
 564 807 564 807 532 807 c 0,85,86
 517 807 517 807 500.5 804.5 c 128,-1,87
 484 802 484 802 469 797 c 1,88,-1
 469 526 l 1,89,90
 504 526 504 526 542.5 531 c 128,-1,91
 581 536 581 536 613 550.5 c 128,-1,92
 645 565 645 565 665.5 591.5 c 128,-1,93
 686 618 686 618 686 662 c 0,80,81
EndSplineSet
EndChar
StartChar: twosuperior
Encoding: 178 178 146
Width: 543
Flags: W
LayerCount: 2
Fore
SplineSet
451 387 m 1,0,-1
 18 387 l 1,1,-1
 18 403 l 1,2,3
 45 424 45 424 81.5 452.5 c 128,-1,4
 118 481 118 481 156.5 513.5 c 128,-1,5
 195 546 195 546 232.5 582.5 c 128,-1,6
 270 619 270 619 299.5 657 c 128,-1,7
 329 695 329 695 347 734 c 128,-1,8
 365 773 365 773 365 811 c 0,9,10
 365 843 365 843 353.5 867.5 c 128,-1,11
 342 892 342 892 322 909 c 128,-1,12
 302 926 302 926 275.5 935 c 128,-1,13
 249 944 249 944 219 944 c 0,14,15
 162 944 162 944 121.5 919.5 c 128,-1,16
 81 895 81 895 59 840 c 1,17,-1
 41 840 l 1,18,19
 53 929 53 929 106.5 971.5 c 128,-1,20
 160 1014 160 1014 248 1014 c 0,21,22
 283 1014 283 1014 320.5 1004 c 128,-1,23
 358 994 358 994 389 974 c 128,-1,24
 420 954 420 954 439.5 923.5 c 128,-1,25
 459 893 459 893 459 852 c 0,26,27
 459 818 459 818 442 781.5 c 128,-1,28
 425 745 425 745 397 707.5 c 128,-1,29
 369 670 369 670 333.5 634 c 128,-1,30
 298 598 298 598 262 565 c 128,-1,31
 226 532 226 532 192 504.5 c 128,-1,32
 158 477 158 477 133 457 c 1,33,-1
 328 457 l 2,34,35
 352 457 352 457 372.5 457 c 128,-1,36
 393 457 393 457 412 461 c 128,-1,37
 431 465 431 465 448.5 475 c 128,-1,38
 466 485 466 485 483 506 c 1,39,-1
 504 506 l 1,40,-1
 451 387 l 1,0,-1
EndSplineSet
EndChar
StartChar: mu
Encoding: 181 181 149
AltUni2: 0003bc.ffffffff.0
Width: 874
Flags: W
LayerCount: 2
Fore
SplineSet
817 156 m 1,0,1
 815 120 815 120 806 88 c 128,-1,2
 797 56 797 56 780 31 c 128,-1,3
 763 6 763 6 735.5 -8.5 c 128,-1,4
 708 -23 708 -23 668 -23 c 0,5,6
 637 -23 637 -23 615.5 -10 c 128,-1,7
 594 3 594 3 580 23.5 c 128,-1,8
 566 44 566 44 559 70 c 128,-1,9
 552 96 552 96 549 121 c 1,10,11
 527 96 527 96 500.5 70.5 c 128,-1,12
 474 45 474 45 444 24 c 128,-1,13
 414 3 414 3 380.5 -10 c 128,-1,14
 347 -23 347 -23 311 -23 c 0,15,16
 235 -23 235 -23 195 43 c 1,17,-1
 195 8 l 2,18,19
 195 -25 195 -25 200.5 -57.5 c 128,-1,20
 206 -90 206 -90 212 -122 c 128,-1,21
 218 -154 218 -154 223.5 -186 c 128,-1,22
 229 -218 229 -218 229 -250 c 0,23,24
 229 -265 229 -265 224.5 -280 c 128,-1,25
 220 -295 220 -295 211 -307 c 128,-1,26
 202 -319 202 -319 189 -326.5 c 128,-1,27
 176 -334 176 -334 160 -334 c 256,28,29
 144 -334 144 -334 131.5 -326.5 c 128,-1,30
 119 -319 119 -319 111 -307 c 128,-1,31
 103 -295 103 -295 98.5 -280.5 c 128,-1,32
 94 -266 94 -266 94 -252 c 0,33,34
 94 -223 94 -223 102.5 -189.5 c 128,-1,35
 111 -156 111 -156 117 -127 c 0,36,37
 132 -61 132 -61 136.5 7 c 128,-1,38
 141 75 141 75 141 143 c 2,39,-1
 141 688 l 1,40,-1
 264 688 l 1,41,-1
 264 289 l 2,42,43
 264 258 264 258 265 220.5 c 128,-1,44
 266 183 266 183 275.5 150 c 128,-1,45
 285 117 285 117 307 94.5 c 128,-1,46
 329 72 329 72 371 72 c 0,47,48
 398 72 398 72 422.5 80.5 c 128,-1,49
 447 89 447 89 469.5 103 c 128,-1,50
 492 117 492 117 512 135 c 128,-1,51
 532 153 532 153 549 172 c 1,52,-1
 549 688 l 1,53,-1
 674 688 l 1,54,-1
 674 199 l 2,55,56
 674 184 674 184 674 161 c 128,-1,57
 674 138 674 138 678 115.5 c 128,-1,58
 682 93 682 93 693 77 c 128,-1,59
 704 61 704 61 725 61 c 0,60,61
 740 61 740 61 751 71.5 c 128,-1,62
 762 82 762 82 769 97 c 128,-1,63
 776 112 776 112 780 128 c 128,-1,64
 784 144 784 144 786 156 c 1,65,-1
 817 156 l 1,0,1
EndSplineSet
EndChar
StartChar: periodcentered
Encoding: 183 183 151
Width: 279
Flags: W
LayerCount: 2
Fore
SplineSet
227 506 m 0,0,1
 227 468 227 468 201.5 443 c 128,-1,2
 176 418 176 418 139 418 c 256,3,4
 102 418 102 418 76.5 443 c 128,-1,5
 51 468 51 468 51 506 c 0,6,7
 51 543 51 543 76.5 567.5 c 128,-1,8
 102 592 102 592 139 592 c 256,9,10
 176 592 176 592 201.5 567.5 c 128,-1,11
 227 543 227 543 227 506 c 0,0,1
EndSplineSet
EndChar
StartChar: guillemotright
Encoding: 187 187 138
Width: 772
Flags: W
LayerCount: 2
Fore
SplineSet
432 -6 m 1,0,-1
 391 -6 l 1,1,-1
 575 348 l 1,2,-1
 391 705 l 1,3,-1
 432 705 l 1,4,-1
 725 348 l 1,5,-1
 432 -6 l 1,0,-1
92 -6 m 1,6,-1
 49 -6 l 1,7,-1
 233 348 l 1,8,-1
 49 705 l 1,9,-1
 92 705 l 1,10,-1
 389 348 l 1,11,-1
 92 -6 l 1,6,-1
EndSplineSet
EndChar
StartChar: onequarter
Encoding: 188 188 156
Width: 1188
Flags: W
LayerCount: 2
Fore
SplineSet
958 160 m 1,0,-1
 958 -6 l 1,1,-1
 883 -6 l 1,2,-1
 883 160 l 1,3,-1
 621 160 l 1,4,-1
 621 215 l 1,5,-1
 909 627 l 1,6,-1
 958 627 l 1,7,-1
 958 223 l 1,8,-1
 1040 223 l 1,9,-1
 1040 160 l 1,10,-1
 958 160 l 1,0,-1
287 -12 m 1,11,-1
 213 -12 l 1,12,-1
 915 1040 l 1,13,-1
 985 1040 l 1,14,-1
 287 -12 l 1,11,-1
158 395 m 1,15,-1
 158 414 l 1,16,17
 185 414 185 414 201 417 c 128,-1,18
 217 420 217 420 225.5 429 c 128,-1,19
 234 438 234 438 236 454.5 c 128,-1,20
 238 471 238 471 238 498 c 2,21,-1
 238 852 l 2,22,23
 238 862 238 862 238.5 879 c 128,-1,24
 239 896 239 896 236 912 c 128,-1,25
 233 928 233 928 225.5 940 c 128,-1,26
 218 952 218 952 203 952 c 0,27,28
 189 952 189 952 177 948 c 128,-1,29
 165 944 165 944 154 938 c 1,30,-1
 147 954 l 1,31,-1
 297 1028 l 1,32,-1
 313 1028 l 1,33,-1
 313 506 l 2,34,35
 313 478 313 478 314 460 c 128,-1,36
 315 442 315 442 322 431.5 c 128,-1,37
 329 421 329 421 345 417.5 c 128,-1,38
 361 414 361 414 391 414 c 1,39,-1
 391 395 l 1,40,-1
 158 395 l 1,15,-1
883 530 m 1,41,-1
 666 223 l 1,42,-1
 883 223 l 1,43,-1
 883 530 l 1,41,-1
EndSplineSet
EndChar
StartChar: questiondown
Encoding: 191 191 159
Width: 686
Flags: W
LayerCount: 2
Fore
SplineSet
435 649 m 0,0,1
 435 612 435 612 409 588 c 128,-1,2
 383 564 383 564 349 564 c 0,3,4
 334 564 334 564 319 570 c 128,-1,5
 304 576 304 576 292 587.5 c 128,-1,6
 280 599 280 599 273 614.5 c 128,-1,7
 266 630 266 630 266 649 c 0,8,9
 266 670 266 670 273.5 685.5 c 128,-1,10
 281 701 281 701 293 712 c 128,-1,11
 305 723 305 723 319.5 728.5 c 128,-1,12
 334 734 334 734 349 734 c 0,13,14
 365 734 365 734 380.5 728.5 c 128,-1,15
 396 723 396 723 408 712 c 128,-1,16
 420 701 420 701 427.5 685 c 128,-1,17
 435 669 435 669 435 649 c 0,0,1
612 -116 m 0,18,19
 612 -158 612 -158 594.5 -197.5 c 128,-1,20
 577 -237 577 -237 542.5 -267 c 128,-1,21
 508 -297 508 -297 457 -315 c 128,-1,22
 406 -333 406 -333 340 -333 c 0,23,24
 279 -333 279 -333 227 -317 c 128,-1,25
 175 -301 175 -301 137.5 -270 c 128,-1,26
 100 -239 100 -239 79 -195 c 128,-1,27
 58 -151 58 -151 58 -95 c 0,28,29
 58 -52 58 -52 70 -15 c 128,-1,30
 82 22 82 22 99.5 53 c 128,-1,31
 117 84 117 84 137.5 109.5 c 128,-1,32
 158 135 158 135 176 155 c 0,33,34
 216 200 216 200 245.5 235.5 c 128,-1,35
 275 271 275 271 295 306 c 128,-1,36
 315 341 315 341 326 380.5 c 128,-1,37
 337 420 337 420 339 472 c 1,38,-1
 371 472 l 1,39,40
 367 382 367 382 343 303 c 128,-1,41
 319 224 319 224 269 141 c 0,42,43
 257 122 257 122 244.5 95.5 c 128,-1,44
 232 69 232 69 221.5 39 c 128,-1,45
 211 9 211 9 204 -22 c 128,-1,46
 197 -53 197 -53 197 -83 c 0,47,48
 197 -140 197 -140 213.5 -179.5 c 128,-1,49
 230 -219 230 -219 255.5 -244 c 128,-1,50
 281 -269 281 -269 312.5 -280 c 128,-1,51
 344 -291 344 -291 373 -291 c 0,52,53
 409 -291 409 -291 436 -281.5 c 128,-1,54
 463 -272 463 -272 480.5 -258 c 128,-1,55
 498 -244 498 -244 507 -226.5 c 128,-1,56
 516 -209 516 -209 516 -192 c 0,57,58
 516 -176 516 -176 508.5 -158.5 c 128,-1,59
 501 -141 501 -141 492 -124 c 128,-1,60
 483 -107 483 -107 475.5 -91 c 128,-1,61
 468 -75 468 -75 468 -62 c 0,62,63
 468 -46 468 -46 473.5 -34 c 128,-1,64
 479 -22 479 -22 488 -14 c 128,-1,65
 497 -6 497 -6 508 -1.5 c 128,-1,66
 519 3 519 3 529 3 c 0,67,68
 537 3 537 3 551 -2 c 128,-1,69
 565 -7 565 -7 578.5 -20 c 128,-1,70
 592 -33 592 -33 602 -56 c 128,-1,71
 612 -79 612 -79 612 -116 c 0,18,19
EndSplineSet
EndChar
StartChar: AE
Encoding: 198 198 166
Width: 1374
Flags: W
LayerCount: 2
Fore
SplineSet
1249 0 m 1,0,-1
 482 0 l 1,1,-1
 482 28 l 1,2,-1
 519 28 l 2,3,4
 581 28 581 28 612 65 c 0,5,6
 630 89 630 89 630 181 c 2,7,-1
 630 395 l 1,8,-1
 332 395 l 1,9,-1
 238 220 l 2,10,11
 217 181 217 181 203.5 153 c 128,-1,12
 190 125 190 125 185.5 105.5 c 128,-1,13
 181 86 181 86 186.5 73 c 128,-1,14
 192 60 192 60 207 51 c 0,15,16
 230 35 230 35 303 28 c 1,17,-1
 303 0 l 1,18,-1
 -18 0 l 1,19,-1
 -18 28 l 1,20,21
 15 28 15 28 38 41 c 0,22,23
 49 48 49 48 61.5 59.5 c 128,-1,24
 74 71 74 71 88.5 90.5 c 128,-1,25
 103 110 103 110 120.5 138.5 c 128,-1,26
 138 167 138 167 160 207 c 2,27,-1
 472 787 l 2,28,29
 501 841 501 841 515.5 878 c 128,-1,30
 530 915 530 915 530 933 c 0,31,32
 530 946 530 946 524.5 956.5 c 128,-1,33
 519 967 519 967 504.5 974.5 c 128,-1,34
 490 982 490 982 465 987.5 c 128,-1,35
 440 993 440 993 400 995 c 1,36,-1
 400 1022 l 1,37,-1
 1238 1022 l 1,38,-1
 1249 799 l 1,39,-1
 1224 799 l 1,40,41
 1213 852 1213 852 1202 884.5 c 128,-1,42
 1191 917 1191 917 1171 935.5 c 128,-1,43
 1151 954 1151 954 1116.5 960.5 c 128,-1,44
 1082 967 1082 967 1025 967 c 2,45,-1
 774 967 l 1,46,-1
 774 563 l 1,47,-1
 968 563 l 2,48,49
 1012 563 1012 563 1042 570.5 c 128,-1,50
 1072 578 1072 578 1091 595.5 c 128,-1,51
 1110 613 1110 613 1119.5 641 c 128,-1,52
 1129 669 1129 669 1132 710 c 1,53,-1
 1158 710 l 1,54,-1
 1158 357 l 1,55,-1
 1132 357 l 1,56,57
 1126 402 1126 402 1118 431 c 128,-1,58
 1110 460 1110 460 1093 476.5 c 128,-1,59
 1076 493 1076 493 1046.5 499.5 c 128,-1,60
 1017 506 1017 506 968 506 c 2,61,-1
 774 506 l 1,62,-1
 774 168 l 2,63,64
 774 138 774 138 774.5 116 c 128,-1,65
 775 94 775 94 780 86 c 0,66,67
 783 81 783 81 788 75.5 c 128,-1,68
 793 70 793 70 802 65.5 c 128,-1,69
 811 61 811 61 825.5 58 c 128,-1,70
 840 55 840 55 862 55 c 2,71,-1
 998 55 l 2,72,73
 1062 55 1062 55 1108 66.5 c 128,-1,74
 1154 78 1154 78 1188.5 103 c 128,-1,75
 1223 128 1223 128 1250 166 c 128,-1,76
 1277 204 1277 204 1303 258 c 1,77,-1
 1330 258 l 1,78,-1
 1249 0 l 1,0,-1
630 967 m 1,79,-1
 360 452 l 1,80,-1
 630 452 l 1,81,-1
 630 967 l 1,79,-1
EndSplineSet
EndChar
StartChar: germandbls
Encoding: 223 223 191
Width: 773
Flags: W
LayerCount: 2
Fore
SplineSet
723 318 m 0,0,1
 723 254 723 254 705.5 194.5 c 128,-1,2
 688 135 688 135 655 90 c 128,-1,3
 622 45 622 45 575 18 c 128,-1,4
 528 -9 528 -9 469 -9 c 0,5,6
 406 -9 406 -9 366 25 c 128,-1,7
 326 59 326 59 324 113 c 0,8,9
 322 142 322 142 338.5 160 c 128,-1,10
 355 178 355 178 384 178 c 0,11,12
 414 178 414 178 429.5 162 c 128,-1,13
 445 146 445 146 447 119 c 0,14,15
 448 108 448 108 443 91.5 c 128,-1,16
 438 75 438 75 438 68 c 0,17,18
 438 50 438 50 450 42.5 c 128,-1,19
 462 35 462 35 482 33 c 0,20,21
 532 33 532 33 563 83.5 c 128,-1,22
 594 134 594 134 594 236 c 0,23,24
 594 313 594 313 581 375.5 c 128,-1,25
 568 438 568 438 541 483 c 128,-1,26
 514 528 514 528 472 554 c 128,-1,27
 430 580 430 580 373 584 c 1,28,-1
 373 627 l 1,29,30
 411 627 411 627 441 637.5 c 128,-1,31
 471 648 471 648 492 672 c 128,-1,32
 513 696 513 696 524 735 c 128,-1,33
 535 774 535 774 535 832 c 0,34,35
 535 883 535 883 524.5 919 c 128,-1,36
 514 955 514 955 494.5 978 c 128,-1,37
 475 1001 475 1001 448.5 1011.5 c 128,-1,38
 422 1022 422 1022 390 1022 c 0,39,40
 360 1022 360 1022 334.5 1012.5 c 128,-1,41
 309 1003 309 1003 291 977 c 128,-1,42
 273 951 273 951 262.5 903.5 c 128,-1,43
 252 856 252 856 252 781 c 2,44,-1
 252 0 l 1,45,-1
 27 0 l 1,46,-1
 27 28 l 1,47,48
 56 29 56 29 75.5 35 c 128,-1,49
 95 41 95 41 106 56.5 c 128,-1,50
 117 72 117 72 121.5 99 c 128,-1,51
 126 126 126 126 126 169 c 2,52,-1
 126 730 l 2,53,54
 126 822 126 822 143.5 887 c 128,-1,55
 161 952 161 952 195 993 c 128,-1,56
 229 1034 229 1034 279 1053.5 c 128,-1,57
 329 1073 329 1073 395 1073 c 0,58,59
 455 1073 455 1073 504.5 1055 c 128,-1,60
 554 1037 554 1037 588.5 1005 c 128,-1,61
 623 973 623 973 642 927.5 c 128,-1,62
 661 882 661 882 661 828 c 0,63,64
 661 799 661 799 655.5 769.5 c 128,-1,65
 650 740 650 740 634.5 713 c 128,-1,66
 619 686 619 686 591 662 c 128,-1,67
 563 638 563 638 517 619 c 1,68,69
 616 591 616 591 669.5 517.5 c 128,-1,70
 723 444 723 444 723 318 c 0,0,1
EndSplineSet
EndChar
StartChar: oslash
Encoding: 248 248 216
Width: 773
Flags: W
LayerCount: 2
Fore
SplineSet
642 591 m 1,0,1
 680 540 680 540 701 481.5 c 128,-1,2
 722 423 722 423 722 357 c 0,3,4
 722 293 722 293 701.5 226 c 128,-1,5
 681 159 681 159 638.5 104 c 128,-1,6
 596 49 596 49 532 13.5 c 128,-1,7
 468 -22 468 -22 382 -22 c 0,8,9
 352 -22 352 -22 325.5 -17.5 c 128,-1,10
 299 -13 299 -13 273.5 -3 c 128,-1,11
 248 7 248 7 221.5 24 c 128,-1,12
 195 41 195 41 166 65 c 1,13,-1
 65 -51 l 1,14,-1
 30 -18 l 1,15,-1
 136 102 l 1,16,17
 118 124 118 124 103.5 153 c 128,-1,18
 89 182 89 182 78.5 214.5 c 128,-1,19
 68 247 68 247 62 280 c 128,-1,20
 56 313 56 313 55 343 c 0,21,22
 55 406 55 406 77 471 c 128,-1,23
 99 536 99 536 142.5 589.5 c 128,-1,24
 186 643 186 643 248.5 676.5 c 128,-1,25
 311 710 311 710 392 710 c 0,26,27
 423 710 423 710 450 706 c 128,-1,28
 477 702 477 702 503 692.5 c 128,-1,29
 529 683 529 683 555 667 c 128,-1,30
 581 651 581 651 609 627 c 1,31,-1
 709 738 l 1,32,-1
 743 706 l 1,33,-1
 642 591 l 1,0,1
532 543 m 1,34,35
 511 577 511 577 492 600 c 128,-1,36
 473 623 473 623 453.5 636.5 c 128,-1,37
 434 650 434 650 413.5 655.5 c 128,-1,38
 393 661 393 661 369 661 c 0,39,40
 332 661 332 661 300 647 c 128,-1,41
 268 633 268 633 245 602 c 128,-1,42
 222 571 222 571 209 521.5 c 128,-1,43
 196 472 196 472 196 401 c 0,44,45
 196 355 196 355 203 305.5 c 128,-1,46
 210 256 210 256 226 204 c 1,47,-1
 532 543 l 1,34,35
582 303 m 0,48,49
 582 392 582 392 553 493 c 1,50,-1
 247 155 l 1,51,52
 267 120 267 120 285 96.5 c 128,-1,53
 303 73 303 73 322.5 59 c 128,-1,54
 342 45 342 45 364 39 c 128,-1,55
 386 33 386 33 413 33 c 0,56,57
 449 33 449 33 480 46.5 c 128,-1,58
 511 60 511 60 533.5 91.5 c 128,-1,59
 556 123 556 123 569 175 c 128,-1,60
 582 227 582 227 582 303 c 0,48,49
EndSplineSet
EndChar
StartChar: thorn
Encoding: 254 254 222
Width: 773
Flags: W
LayerCount: 2
Fore
SplineSet
720 371 m 0,0,1
 720 290 720 290 697.5 219 c 128,-1,2
 675 148 675 148 634 94.5 c 128,-1,3
 593 41 593 41 534.5 10 c 128,-1,4
 476 -21 476 -21 404 -22 c 0,5,6
 381 -22 381 -22 361.5 -20.5 c 128,-1,7
 342 -19 342 -19 323 -13 c 128,-1,8
 304 -7 304 -7 284 5.5 c 128,-1,9
 264 18 264 18 239 40 c 1,10,-1
 239 -169 l 2,11,12
 239 -210 239 -210 242 -235 c 128,-1,13
 245 -260 245 -260 257 -274 c 128,-1,14
 269 -288 269 -288 292.5 -294 c 128,-1,15
 316 -300 316 -300 357 -302 c 1,16,-1
 357 -330 l 1,17,-1
 -6 -330 l 1,18,-1
 -6 -302 l 1,19,20
 34 -300 34 -300 58 -295.5 c 128,-1,21
 82 -291 82 -291 94.5 -277.5 c 128,-1,22
 107 -264 107 -264 111 -238 c 128,-1,23
 115 -212 115 -212 115 -166 c 2,24,-1
 115 852 l 2,25,26
 115 886 115 886 114 906 c 128,-1,27
 113 926 113 926 110 937.5 c 128,-1,28
 107 949 107 949 102 954.5 c 128,-1,29
 97 960 97 960 89 964 c 0,30,31
 78 972 78 972 60 974.5 c 128,-1,32
 42 977 42 977 7 963 c 1,33,-1
 -1 988 l 1,34,-1
 211 1073 l 1,35,-1
 239 1073 l 1,36,-1
 239 547 l 1,37,38
 266 593 266 593 292.5 624 c 128,-1,39
 319 655 319 655 346 674 c 128,-1,40
 373 693 373 693 402 701.5 c 128,-1,41
 431 710 431 710 462 710 c 0,42,43
 519 710 519 710 566.5 684 c 128,-1,44
 614 658 614 658 648 612.5 c 128,-1,45
 682 567 682 567 701 505 c 128,-1,46
 720 443 720 443 720 371 c 0,0,1
585 300 m 0,47,48
 585 366 585 366 572 421.5 c 128,-1,49
 559 477 559 477 535 517.5 c 128,-1,50
 511 558 511 558 477 580.5 c 128,-1,51
 443 603 443 603 401 603 c 0,52,53
 385 603 385 603 371.5 601 c 128,-1,54
 358 599 358 599 340.5 589.5 c 128,-1,55
 323 580 323 580 299 559.5 c 128,-1,56
 275 539 275 539 239 502 c 1,57,-1
 239 244 l 2,58,59
 239 202 239 202 241 175 c 128,-1,60
 243 148 243 148 247 133 c 0,61,62
 252 114 252 114 264 94.5 c 128,-1,63
 276 75 276 75 295.5 59.5 c 128,-1,64
 315 44 315 44 341.5 34 c 128,-1,65
 368 24 368 24 401 24 c 0,66,67
 443 23 443 23 477 42 c 128,-1,68
 511 61 511 61 535 97 c 128,-1,69
 559 133 559 133 572 184.5 c 128,-1,70
 585 236 585 236 585 300 c 0,47,48
EndSplineSet
EndChar
StartChar: OE
Encoding: 338 338 111
Width: 1374
Flags: W
LayerCount: 2
Fore
SplineSet
1247 0 m 1,0,-1
 754 0 l 2,1,2
 695 0 695 0 636 -6 c 128,-1,3
 577 -12 577 -12 518 -12 c 0,4,5
 409 -12 409 -12 323.5 31.5 c 128,-1,6
 238 75 238 75 178.5 147 c 128,-1,7
 119 219 119 219 88 313.5 c 128,-1,8
 57 408 57 408 57 510 c 0,9,10
 57 618 57 618 89 713.5 c 128,-1,11
 121 809 121 809 182 879.5 c 128,-1,12
 243 950 243 950 332 991 c 128,-1,13
 421 1032 421 1032 535 1032 c 2,14,-1
 537 1032 l 1,15,-1
 545 1032 l 1,16,-1
 573 1030 l 1,17,-1
 682 1026 l 2,18,19
 821 1020 821 1020 960 1021 c 128,-1,20
 1099 1022 1099 1022 1239 1022 c 1,21,-1
 1247 799 l 1,22,-1
 1223 799 l 1,23,24
 1212 853 1212 853 1201.5 886 c 128,-1,25
 1191 919 1191 919 1171.5 937 c 128,-1,26
 1152 955 1152 955 1118 961 c 128,-1,27
 1084 967 1084 967 1026 967 c 2,28,-1
 834 967 l 1,29,-1
 834 565 l 1,30,-1
 969 565 l 2,31,32
 1049 565 1049 565 1088.5 596.5 c 128,-1,33
 1128 628 1128 628 1128 711 c 1,34,-1
 1159 711 l 1,35,-1
 1159 354 l 1,36,-1
 1128 354 l 1,37,38
 1125 399 1125 399 1117 428 c 128,-1,39
 1109 457 1109 457 1091 474.5 c 128,-1,40
 1073 492 1073 492 1043.5 499 c 128,-1,41
 1014 506 1014 506 969 506 c 2,42,-1
 834 506 l 1,43,-1
 834 170 l 2,44,45
 834 119 834 119 843 94.5 c 128,-1,46
 852 70 852 70 872 62 c 128,-1,47
 892 54 892 54 923.5 55.5 c 128,-1,48
 955 57 955 57 1001 57 c 0,49,50
 1063 57 1063 57 1107.5 66.5 c 128,-1,51
 1152 76 1152 76 1186.5 99.5 c 128,-1,52
 1221 123 1221 123 1247.5 161 c 128,-1,53
 1274 199 1274 199 1298 256 c 1,54,-1
 1329 256 l 1,55,-1
 1247 0 l 1,0,-1
688 786 m 2,56,57
 688 830 688 830 684 866 c 128,-1,58
 680 902 680 902 665 928 c 128,-1,59
 650 954 650 954 620 968.5 c 128,-1,60
 590 983 590 983 537 983 c 0,61,62
 474 983 474 983 426.5 961.5 c 128,-1,63
 379 940 379 940 345 903 c 128,-1,64
 311 866 311 866 288.5 817.5 c 128,-1,65
 266 769 266 769 253 716 c 128,-1,66
 240 663 240 663 234.5 608.5 c 128,-1,67
 229 554 229 554 229 504 c 0,68,69
 229 455 229 455 235 402 c 128,-1,70
 241 349 241 349 254.5 297.5 c 128,-1,71
 268 246 268 246 291 199.5 c 128,-1,72
 314 153 314 153 348 118 c 128,-1,73
 382 83 382 83 428.5 62 c 128,-1,74
 475 41 475 41 535 41 c 0,75,76
 592 41 592 41 623.5 57.5 c 128,-1,77
 655 74 655 74 669 102.5 c 128,-1,78
 683 131 683 131 685.5 170.5 c 128,-1,79
 688 210 688 210 688 256 c 2,80,-1
 688 786 l 2,56,57
EndSplineSet
EndChar
StartChar: oe
Encoding: 339 339 123
Width: 1114
Flags: W
LayerCount: 2
Fore
SplineSet
1065 256 m 1,0,1
 1055 204 1055 204 1036 154 c 128,-1,2
 1017 104 1017 104 986.5 64.5 c 128,-1,3
 956 25 956 25 912 1 c 128,-1,4
 868 -23 868 -23 807 -23 c 0,5,6
 742 -23 742 -23 688 9.5 c 128,-1,7
 634 42 634 42 606 100 c 1,8,9
 561 42 561 42 500 9.5 c 128,-1,10
 439 -23 439 -23 365 -23 c 0,11,12
 288 -23 288 -23 229.5 6 c 128,-1,13
 171 35 171 35 131 84.5 c 128,-1,14
 91 134 91 134 71 198.5 c 128,-1,15
 51 263 51 263 51 334 c 0,16,17
 51 407 51 407 71 475 c 128,-1,18
 91 543 91 543 131 595.5 c 128,-1,19
 171 648 171 648 231 679.5 c 128,-1,20
 291 711 291 711 371 711 c 0,21,22
 443 711 443 711 503 681.5 c 128,-1,23
 563 652 563 652 606 592 c 1,24,25
 643 649 643 649 695.5 680 c 128,-1,26
 748 711 748 711 817 711 c 0,27,28
 879 711 879 711 925 692 c 128,-1,29
 971 673 971 673 1002.5 639 c 128,-1,30
 1034 605 1034 605 1049.5 557 c 128,-1,31
 1065 509 1065 509 1065 452 c 2,32,-1
 1065 432 l 1,33,-1
 651 432 l 1,34,-1
 651 399 l 2,35,36
 650 351 650 351 660 298.5 c 128,-1,37
 670 246 670 246 694.5 203 c 128,-1,38
 719 160 719 160 759.5 132 c 128,-1,39
 800 104 800 104 858 104 c 0,40,41
 895 104 895 104 923.5 117.5 c 128,-1,42
 952 131 952 131 974.5 153.5 c 128,-1,43
 997 176 997 176 1013 206 c 128,-1,44
 1029 236 1029 236 1040 268 c 1,45,-1
 1065 256 l 1,0,1
915 481 m 1,46,47
 915 513 915 513 908.5 545.5 c 128,-1,48
 902 578 902 578 886.5 604 c 128,-1,49
 871 630 871 630 845.5 646 c 128,-1,50
 820 662 820 662 782 662 c 0,51,52
 748 662 748 662 723.5 644.5 c 128,-1,53
 699 627 699 627 683 600 c 128,-1,54
 667 573 667 573 659.5 541.5 c 128,-1,55
 652 510 652 510 651 481 c 1,56,-1
 915 481 l 1,46,47
539 285 m 0,57,58
 539 317 539 317 536.5 358 c 128,-1,59
 534 399 534 399 527 441.5 c 128,-1,60
 520 484 520 484 506.5 525 c 128,-1,61
 493 566 493 566 471 597.5 c 128,-1,62
 449 629 449 629 417.5 648.5 c 128,-1,63
 386 668 386 668 342 668 c 0,64,65
 291 668 291 668 261.5 641.5 c 128,-1,66
 232 615 232 615 217 575.5 c 128,-1,67
 202 536 202 536 197.5 491 c 128,-1,68
 193 446 193 446 193 408 c 0,69,70
 193 379 193 379 196 339.5 c 128,-1,71
 199 300 199 300 207 258.5 c 128,-1,72
 215 217 215 217 229 176.5 c 128,-1,73
 243 136 243 136 264 104 c 128,-1,74
 285 72 285 72 315 52.5 c 128,-1,75
 345 33 345 33 385 33 c 0,76,77
 436 33 436 33 466 57.5 c 128,-1,78
 496 82 496 82 512.5 119.5 c 128,-1,79
 529 157 529 157 534 201.5 c 128,-1,80
 539 246 539 246 539 285 c 0,57,58
EndSplineSet
EndChar
StartChar: ring
Encoding: 730 730 1117
Width: 288
Flags: W
LayerCount: 2
Fore
SplineSet
288 930 m 0,0,1
 288 898 288 898 276 871.5 c 128,-1,2
 264 845 264 845 244 826 c 128,-1,3
 224 807 224 807 198.5 796.5 c 128,-1,4
 173 786 173 786 146 786 c 256,5,6
 119 786 119 786 93 796.5 c 128,-1,7
 67 807 67 807 46 826 c 128,-1,8
 25 845 25 845 12.5 871.5 c 128,-1,9
 0 898 0 898 0 930 c 256,10,11
 0 962 0 962 12 988.5 c 128,-1,12
 24 1015 24 1015 44 1034 c 128,-1,13
 64 1053 64 1053 90.5 1063.5 c 128,-1,14
 117 1074 117 1074 146 1074 c 0,15,16
 173 1074 173 1074 198.5 1064 c 128,-1,17
 224 1054 224 1054 244 1035.5 c 128,-1,18
 264 1017 264 1017 276 990 c 128,-1,19
 288 963 288 963 288 930 c 0,0,1
236 930 m 0,20,21
 236 951 236 951 228.5 968 c 128,-1,22
 221 985 221 985 208.5 997 c 128,-1,23
 196 1009 196 1009 179.5 1015.5 c 128,-1,24
 163 1022 163 1022 146 1022 c 0,25,26
 108 1022 108 1022 80 996.5 c 128,-1,27
 52 971 52 971 52 930 c 0,28,29
 52 908 52 908 60 891 c 128,-1,30
 68 874 68 874 81 862 c 128,-1,31
 94 850 94 850 111 844 c 128,-1,32
 128 838 128 838 146 838 c 0,33,34
 165 838 165 838 181.5 845.5 c 128,-1,35
 198 853 198 853 210 865.5 c 128,-1,36
 222 878 222 878 229 895 c 128,-1,37
 236 912 236 912 236 930 c 0,20,21
EndSplineSet
EndChar
StartChar: tilde
Encoding: 732 732 120
Width: 514
Flags: W
LayerCount: 2
Fore
SplineSet
514 1013 m 1,0,1
 511 982 511 982 497 952.5 c 128,-1,2
 483 923 483 923 461.5 899.5 c 128,-1,3
 440 876 440 876 411.5 862 c 128,-1,4
 383 848 383 848 350 848 c 0,5,6
 308 848 308 848 282 859.5 c 128,-1,7
 256 871 256 871 234 884.5 c 128,-1,8
 212 898 212 898 188.5 909 c 128,-1,9
 165 920 165 920 128 920 c 0,10,11
 112 920 112 920 97 913.5 c 128,-1,12
 82 907 82 907 70 897 c 128,-1,13
 58 887 58 887 50 874 c 128,-1,14
 42 861 42 861 40 848 c 1,15,-1
 0 848 l 1,16,17
 8 881 8 881 22 910 c 128,-1,18
 36 939 36 939 57 960 c 128,-1,19
 78 981 78 981 106.5 993 c 128,-1,20
 135 1005 135 1005 171 1005 c 0,21,22
 201 1005 201 1005 224 994.5 c 128,-1,23
 247 984 247 984 269 971 c 128,-1,24
 291 958 291 958 314 947.5 c 128,-1,25
 337 937 337 937 367 937 c 0,26,27
 404 937 404 937 434.5 956.5 c 128,-1,28
 465 976 465 976 474 1013 c 1,29,-1
 514 1013 l 1,0,1
EndSplineSet
EndChar
StartChar: uni0600
Encoding: 1536 1536 945
Width: 1410
GlyphClass: 2
Flags: W
AnchorPoint: "Anchor-6" 425 0 basechar 0
LayerCount: 2
Fore
SplineSet
1271 430 m 1,0,-1
 1295 384 l 1,1,2
 1276 339 1276 339 1264 304 c 128,-1,3
 1252 269 1252 269 1245 241.5 c 128,-1,4
 1238 214 1238 214 1236 193 c 128,-1,5
 1234 172 1234 172 1234 155 c 0,6,7
 1234 129 1234 129 1238 119.5 c 128,-1,8
 1242 110 1242 110 1255 110 c 0,9,10
 1258 110 1258 110 1273.5 113 c 128,-1,11
 1289 116 1289 116 1307.5 119 c 128,-1,12
 1326 122 1326 122 1342 125 c 128,-1,13
 1358 128 1358 128 1362 128 c 0,14,15
 1369 128 1369 128 1372 121 c 128,-1,16
 1375 114 1375 114 1375 97 c 0,17,18
 1375 51 1375 51 1361 21.5 c 128,-1,19
 1347 -8 1347 -8 1333 -16 c 0,20,21
 1324 -22 1324 -22 1306.5 -25.5 c 128,-1,22
 1289 -29 1289 -29 1259 -34 c 0,23,24
 1192 -45 1192 -45 1041.5 -50.5 c 128,-1,25
 891 -56 891 -56 647 -56 c 0,26,27
 177 -56 177 -56 83 -36 c 0,28,29
 53 -30 53 -30 53 10 c 0,30,31
 53 42 53 42 91 48 c 0,32,33
 142 56 142 56 256 60 c 128,-1,34
 370 64 370 64 551 64 c 0,35,36
 576 64 576 64 613 64.5 c 128,-1,37
 650 65 650 65 692.5 65.5 c 128,-1,38
 735 66 735 66 781.5 67 c 128,-1,39
 828 68 828 68 873 69 c 0,40,41
 978 72 978 72 1095 74 c 0,42,43
 1125 74 1125 74 1125 114 c 0,44,45
 1125 161 1125 161 1140 209 c 128,-1,46
 1155 257 1155 257 1177.5 300 c 128,-1,47
 1200 343 1200 343 1225.5 377 c 128,-1,48
 1251 411 1251 411 1271 430 c 1,0,-1
EndSplineSet
Substitution2: "Single Substitution lookup 20 subtable" uni0600.2
Substitution2: "Single Substitution lookup 19 subtable" uni0600.3
EndChar
StartChar: uni0602
Encoding: 1538 1538 947
Width: 1430
GlyphClass: 2
Flags: W
AnchorPoint: "Anchor-6" 700 0 basechar 0
LayerCount: 2
Fore
SplineSet
383 155 m 0,0,1
 383 194 383 194 359 225 c 0,2,3
 331 259 331 259 293 259 c 0,4,5
 274 259 274 259 257 252.5 c 128,-1,6
 240 246 240 246 227.5 235 c 128,-1,7
 215 224 215 224 208 209.5 c 128,-1,8
 201 195 201 195 201 179 c 0,9,10
 201 120 201 120 349 89 c 1,11,12
 383 120 383 120 383 155 c 0,0,1
1361 5 m 1,13,14
 991 -49 991 -49 787 -49 c 0,15,16
 290 -49 290 -49 186 8 c 0,17,18
 59 79 59 79 59 135 c 0,19,20
 59 197 59 197 134 276 c 0,21,22
 220 365 220 365 317 365 c 0,23,24
 392 365 392 365 438 314 c 0,25,26
 481 270 481 270 481 201 c 0,27,28
 481 130 481 130 443 65 c 1,29,30
 533 51 533 51 637.5 44 c 128,-1,31
 742 37 742 37 863 37 c 0,32,33
 993 37 993 37 1121 48 c 128,-1,34
 1249 59 1249 59 1379 81 c 1,35,36
 1379 61 1379 61 1375.5 41.5 c 128,-1,37
 1372 22 1372 22 1361 5 c 1,13,14
EndSplineSet
Substitution2: "Single Substitution lookup 20 subtable" uni0602.2
EndChar
StartChar: uni0603
Encoding: 1539 1539 948
Width: 1600
GlyphClass: 2
Flags: W
AnchorPoint: "Anchor-6" 300 0 basechar 0
LayerCount: 2
Fore
SplineSet
1540 353 m 0,0,1
 1540 291 1540 291 1516.5 245.5 c 128,-1,2
 1493 200 1493 200 1454.5 168 c 128,-1,3
 1416 136 1416 136 1367.5 116 c 128,-1,4
 1319 96 1319 96 1269.5 84 c 128,-1,5
 1220 72 1220 72 1173.5 67 c 128,-1,6
 1127 62 1127 62 1092 59 c 1,7,8
 1085 46 1085 46 1079 31.5 c 128,-1,9
 1073 17 1073 17 1068 3 c 128,-1,10
 1063 -11 1063 -11 1060 -21 c 128,-1,11
 1057 -31 1057 -31 1056 -35 c 0,12,13
 1053 -35 1053 -35 1048.5 -30.5 c 128,-1,14
 1044 -26 1044 -26 1040 -19 c 128,-1,15
 1036 -12 1036 -12 1033 -4.5 c 128,-1,16
 1030 3 1030 3 1030 9 c 0,17,18
 1030 18 1030 18 1035 26 c 128,-1,19
 1040 34 1040 34 1048 57 c 1,20,21
 1042 57 1042 57 1033 58 c 128,-1,22
 1024 59 1024 59 1014.5 60.5 c 128,-1,23
 1005 62 1005 62 996 64.5 c 128,-1,24
 987 67 987 67 982 69 c 1,25,26
 951 42 951 42 914 20.5 c 128,-1,27
 877 -1 877 -1 826 -16 c 128,-1,28
 775 -31 775 -31 705.5 -39 c 128,-1,29
 636 -47 636 -47 538 -47 c 0,30,31
 387 -47 387 -47 292 -38.5 c 128,-1,32
 197 -30 197 -30 143.5 -18.5 c 128,-1,33
 90 -7 90 -7 70.5 4.5 c 128,-1,34
 51 16 51 16 51 22 c 0,35,36
 51 27 51 27 58 27 c 0,37,38
 66 26 66 26 83 25 c 128,-1,39
 100 24 100 24 117 24 c 0,40,41
 177 24 177 24 298 29 c 128,-1,42
 419 34 419 34 612 47 c 0,43,44
 694 52 694 52 749.5 62 c 128,-1,45
 805 72 805 72 841 86 c 128,-1,46
 877 100 877 100 898 117.5 c 128,-1,47
 919 135 919 135 932 155 c 0,48,49
 935 160 935 160 940 171.5 c 128,-1,50
 945 183 945 183 951 195 c 128,-1,51
 957 207 957 207 962.5 216 c 128,-1,52
 968 225 968 225 972 225 c 0,53,54
 980 214 980 214 985.5 203.5 c 128,-1,55
 991 193 991 193 999 185 c 128,-1,56
 1007 177 1007 177 1019 172.5 c 128,-1,57
 1031 168 1031 168 1051 168 c 0,58,59
 1067 168 1067 168 1088 171 c 1,60,61
 1116 231 1116 231 1157 289 c 128,-1,62
 1198 347 1198 347 1244.5 393 c 128,-1,63
 1291 439 1291 439 1338 467 c 128,-1,64
 1385 495 1385 495 1424 495 c 0,65,66
 1461 495 1461 495 1483.5 481.5 c 128,-1,67
 1506 468 1506 468 1518.5 447 c 128,-1,68
 1531 426 1531 426 1535.5 401 c 128,-1,69
 1540 376 1540 376 1540 353 c 0,0,1
1466 293 m 0,70,71
 1466 316 1466 316 1437 334.5 c 128,-1,72
 1408 353 1408 353 1354 353 c 0,73,74
 1328 353 1328 353 1299.5 343 c 128,-1,75
 1271 333 1271 333 1242.5 311.5 c 128,-1,76
 1214 290 1214 290 1185.5 255.5 c 128,-1,77
 1157 221 1157 221 1130 171 c 1,78,79
 1212 171 1212 171 1274.5 184 c 128,-1,80
 1337 197 1337 197 1379.5 216 c 128,-1,81
 1422 235 1422 235 1444 256 c 128,-1,82
 1466 277 1466 277 1466 293 c 0,70,71
EndSplineSet
Substitution2: "Single Substitution lookup 20 subtable" uni0603.2
Substitution2: "Single Substitution lookup 19 subtable" uni0603.3
EndChar
StartChar: uni060C
Encoding: 1548 1548 950
Width: 641
GlyphClass: 2
Flags: W
AnchorPoint: "Anchor-4" 270 -195 basechar 0
AnchorPoint: "Anchor-1" 270 660 basechar 0
LayerCount: 2
Fore
SplineSet
436 27 m 0,0,1
 436 -17 436 -17 407.5 -46.5 c 128,-1,2
 379 -76 379 -76 336 -76 c 0,3,4
 295 -76 295 -76 264.5 -55.5 c 128,-1,5
 234 -35 234 -35 214 -2 c 128,-1,6
 194 31 194 31 184 72 c 128,-1,7
 174 113 174 113 174 154 c 0,8,9
 174 180 174 180 176.5 208.5 c 128,-1,10
 179 237 179 237 190 268 c 0,11,12
 202 303 202 303 222 337 c 128,-1,13
 242 371 242 371 264 399 c 128,-1,14
 286 427 286 427 306.5 447 c 128,-1,15
 327 467 327 467 342 473 c 1,16,-1
 367 438 l 1,17,18
 352 423 352 423 331 399 c 128,-1,19
 310 375 310 375 290 343 c 128,-1,20
 270 311 270 311 256 271 c 128,-1,21
 242 231 242 231 242 186 c 0,22,23
 242 182 242 182 244 168 c 128,-1,24
 246 154 246 154 249 139 c 128,-1,25
 252 124 252 124 257 112 c 128,-1,26
 262 100 262 100 268 100 c 0,27,28
 270 100 270 100 278 104 c 128,-1,29
 286 108 286 108 296 113.5 c 128,-1,30
 306 119 306 119 317.5 123 c 128,-1,31
 329 127 329 127 338 127 c 0,32,33
 356 127 356 127 374 118.5 c 128,-1,34
 392 110 392 110 405.5 95.5 c 128,-1,35
 419 81 419 81 427.5 63 c 128,-1,36
 436 45 436 45 436 27 c 0,0,1
EndSplineSet
EndChar
StartChar: uni060D
Encoding: 1549 1549 952
Width: 542
GlyphClass: 2
Flags: W
LayerCount: 2
Fore
SplineSet
470 376 m 0,0,1
 470 357 470 357 447 319 c 0,2,3
 425 282 425 282 406 282 c 0,4,5
 329 282 329 282 288 256 c 0,6,7
 181 191 181 191 86 56 c 1,8,-1
 66 66 l 1,9,10
 87 104 87 104 110 140 c 128,-1,11
 133 176 133 176 158 210 c 0,12,13
 241 323 241 323 318 384 c 0,14,15
 383 436 383 436 420 436 c 0,16,17
 434 436 434 436 452 414 c 256,18,19
 470 392 470 392 470 376 c 0,0,1
EndSplineSet
EndChar
StartChar: uni060E
Encoding: 1550 1550 953
Width: 1328
GlyphClass: 2
Flags: W
LayerCount: 2
Fore
SplineSet
1256 332 m 1,0,1
 1258 326 1258 326 1258 320 c 0,2,3
 1258 297 1258 297 1232 248 c 1,4,5
 1131 195 1131 195 982 155 c 0,6,7
 817 112 817 112 682 112 c 0,8,9
 497 112 497 112 371.5 128 c 128,-1,10
 246 144 246 144 177 177 c 0,11,12
 60 234 60 234 57 298 c 2,13,-1
 57 303 l 2,14,15
 57 358 57 358 125 429 c 0,16,17
 207 514 207 514 296 514 c 0,18,19
 425 514 425 514 459 358 c 0,20,21
 467 326 467 326 471.5 293 c 128,-1,22
 476 260 476 260 478 226 c 1,23,24
 565 204 565 204 750 204 c 0,25,26
 865 204 865 204 1010 240 c 0,27,28
 1158 277 1158 277 1256 332 c 1,0,1
378 244 m 1,29,30
 374 294 374 294 348 346 c 0,31,32
 317 410 317 410 276 410 c 0,33,34
 242 410 242 410 217 389 c 128,-1,35
 192 368 192 368 192 338 c 0,36,37
 192 314 192 314 252 284 c 0,38,39
 305 256 305 256 378 244 c 1,29,30
EndSplineSet
EndChar
StartChar: uni060F
Encoding: 1551 1551 954
Width: 1008
GlyphClass: 2
Flags: W
LayerCount: 2
Fore
SplineSet
500 -736 m 0,0,1
 397 -736 397 -736 309.5 -701.5 c 128,-1,2
 222 -667 222 -667 164 -588 c 1,3,4
 127 -648 127 -648 99 -697.5 c 128,-1,5
 71 -747 71 -747 54 -774 c 0,6,7
 51 -779 51 -779 46 -779 c 0,8,9
 38 -779 38 -779 38 -769 c 0,10,11
 38 -764 38 -764 42 -756 c 0,12,13
 89 -657 89 -657 145 -559 c 1,14,15
 115 -508 115 -508 98.5 -441.5 c 128,-1,16
 82 -375 82 -375 82 -290 c 0,17,18
 82 -211 82 -211 103.5 -134 c 128,-1,19
 125 -57 125 -57 158 11 c 128,-1,20
 191 79 191 79 231 134.5 c 128,-1,21
 271 190 271 190 308 224 c 1,22,23
 284 227 284 227 254 237 c 128,-1,24
 224 247 224 247 197 263.5 c 128,-1,25
 170 280 170 280 152 303.5 c 128,-1,26
 134 327 134 327 134 358 c 0,27,28
 134 376 134 376 143.5 406 c 128,-1,29
 153 436 153 436 168 469.5 c 128,-1,30
 183 503 183 503 201.5 536 c 128,-1,31
 220 569 220 569 238 592 c 0,32,33
 258 618 258 618 277.5 632.5 c 128,-1,34
 297 647 297 647 313.5 654 c 128,-1,35
 330 661 330 661 343.5 662.5 c 128,-1,36
 357 664 357 664 366 664 c 0,37,38
 378 664 378 664 392 662.5 c 128,-1,39
 406 661 406 661 414 656 c 0,40,41
 426 650 426 650 440.5 641 c 128,-1,42
 455 632 455 632 468 623 c 128,-1,43
 481 614 481 614 489.5 606 c 128,-1,44
 498 598 498 598 498 594 c 0,45,46
 498 592 498 592 497 590 c 0,47,48
 495 586 495 586 492 586 c 0,49,50
 469 586 469 586 426 580.5 c 128,-1,51
 383 575 383 575 322 548 c 0,52,53
 286 532 286 532 261 514.5 c 128,-1,54
 236 497 236 497 221 479.5 c 128,-1,55
 206 462 206 462 199 446 c 128,-1,56
 192 430 192 430 192 418 c 0,57,58
 192 402 192 402 212.5 385 c 128,-1,59
 233 368 233 368 262 354 c 128,-1,60
 291 340 291 340 322.5 331 c 128,-1,61
 354 322 354 322 376 322 c 0,62,63
 383 322 383 322 399.5 323.5 c 128,-1,64
 416 325 416 325 430 332 c 0,65,66
 449 341 449 341 475 355.5 c 128,-1,67
 501 370 501 370 530 385.5 c 128,-1,68
 559 401 559 401 588 417.5 c 128,-1,69
 617 434 617 434 640 446.5 c 128,-1,70
 663 459 663 459 678 467.5 c 128,-1,71
 693 476 693 476 694 476 c 0,72,73
 698 476 698 476 698 470 c 0,74,75
 698 468 698 468 691.5 457.5 c 128,-1,76
 685 447 685 447 675.5 432 c 128,-1,77
 666 417 666 417 654.5 400 c 128,-1,78
 643 383 643 383 632.5 368.5 c 128,-1,79
 622 354 622 354 615 343.5 c 128,-1,80
 608 333 608 333 606 332 c 0,81,82
 600 327 600 327 572.5 313 c 128,-1,83
 545 299 545 299 512 278 c 0,84,85
 432 232 432 232 363.5 180 c 128,-1,86
 295 128 295 128 245 69.5 c 128,-1,87
 195 11 195 11 166.5 -56.5 c 128,-1,88
 138 -124 138 -124 138 -202 c 0,89,90
 138 -283 138 -283 158.5 -342 c 128,-1,91
 179 -401 179 -401 214 -443 c 1,92,93
 265 -364 265 -364 319.5 -294 c 128,-1,94
 374 -224 374 -224 430.5 -172 c 128,-1,95
 487 -120 487 -120 545 -90 c 128,-1,96
 603 -60 603 -60 661 -60 c 0,97,98
 725 -60 725 -60 770 -79 c 128,-1,99
 815 -98 815 -98 843.5 -132 c 128,-1,100
 872 -166 872 -166 885 -214 c 128,-1,101
 898 -262 898 -262 898 -320 c 0,102,103
 898 -364 898 -364 881 -411.5 c 128,-1,104
 864 -459 864 -459 835 -505.5 c 128,-1,105
 806 -552 806 -552 766.5 -593.5 c 128,-1,106
 727 -635 727 -635 683 -667 c 128,-1,107
 639 -699 639 -699 592 -717.5 c 128,-1,108
 545 -736 545 -736 500 -736 c 0,0,1
554 -574 m 0,109,110
 602 -574 602 -574 652.5 -552 c 128,-1,111
 703 -530 703 -530 744.5 -497.5 c 128,-1,112
 786 -465 786 -465 812 -429 c 128,-1,113
 838 -393 838 -393 838 -364 c 0,114,115
 838 -329 838 -329 826 -297 c 128,-1,116
 814 -265 814 -265 787.5 -240 c 128,-1,117
 761 -215 761 -215 718 -200.5 c 128,-1,118
 675 -186 675 -186 613 -186 c 0,119,120
 562 -186 562 -186 512 -210 c 128,-1,121
 462 -234 462 -234 415 -274 c 128,-1,122
 368 -314 368 -314 324.5 -365.5 c 128,-1,123
 281 -417 281 -417 242 -472 c 1,124,125
 274 -501 274 -501 312 -520.5 c 128,-1,126
 350 -540 350 -540 391 -552 c 128,-1,127
 432 -564 432 -564 473.5 -569 c 128,-1,128
 515 -574 515 -574 554 -574 c 0,109,110
EndSplineSet
EndChar
StartChar: uni0610
Encoding: 1552 1552 955
Width: 0
GlyphClass: 4
Flags: W
AnchorPoint: "Anchor-3" 540 998 mark 0
AnchorPoint: "Anchor-1" 540 998 mark 0
LayerCount: 2
Fore
SplineSet
444 1114 m 1,0,1
 440 1108 440 1108 436 1097.5 c 128,-1,2
 432 1087 432 1087 428 1072 c 0,3,4
 424 1072 424 1072 418 1074 c 128,-1,5
 412 1076 412 1076 406 1079.5 c 128,-1,6
 400 1083 400 1083 396 1087.5 c 128,-1,7
 392 1092 392 1092 392 1096 c 2,8,-1
 400 1112 l 1,9,10
 386 1112 386 1112 376 1114 c 1,11,12
 376 1098 376 1098 374 1079.5 c 128,-1,13
 372 1061 372 1061 368 1040 c 1,14,-1
 322 996 l 1,15,16
 327 1029 327 1029 326 1068 c 128,-1,17
 325 1107 325 1107 318 1152 c 1,18,-1
 318 1158 l 2,19,20
 318 1165 318 1165 331 1188 c 0,21,22
 345 1212 345 1212 350 1212 c 1,23,24
 361 1196 361 1196 368 1176 c 1,25,26
 394 1175 394 1175 409 1174.5 c 128,-1,27
 424 1174 424 1174 428 1174 c 0,28,29
 459 1235 459 1235 522 1284 c 0,30,31
 590 1340 590 1340 650 1340 c 0,32,33
 716 1340 716 1340 716 1264 c 256,34,35
 716 1188 716 1188 610 1146 c 0,36,37
 532 1115 532 1115 444 1114 c 1,0,1
618 1266 m 0,38,39
 546 1266 546 1266 480 1178 c 1,40,41
 542 1179 542 1179 608 1204 c 0,42,43
 664 1227 664 1227 664 1238 c 0,44,45
 664 1266 664 1266 618 1266 c 0,38,39
EndSplineSet
EndChar
StartChar: uni0611
Encoding: 1553 1553 956
Width: 0
GlyphClass: 4
Flags: W
AnchorPoint: "Anchor-3" 514 996 mark 0
AnchorPoint: "Anchor-1" 514 996 mark 0
LayerCount: 2
Fore
SplineSet
674 1129 m 2,0,1
 673 1124 673 1124 664 1122 c 0,2,3
 656 1120 656 1120 631.5 1114 c 128,-1,4
 607 1108 607 1108 550 1093 c 0,5,6
 450 1066 450 1066 416 1066 c 0,7,8
 369 1066 369 1066 344 1082 c 1,9,10
 344 1046 344 1046 338 1008 c 1,11,-1
 290 964 l 1,12,13
 299 1000 299 1000 299 1039 c 256,14,15
 299 1078 299 1078 290 1120 c 0,16,17
 288 1130 288 1130 287 1133.5 c 128,-1,18
 286 1137 286 1137 286 1140 c 0,19,20
 286 1142 286 1142 290 1150.5 c 128,-1,21
 294 1159 294 1159 299 1168 c 128,-1,22
 304 1177 304 1177 309.5 1184.5 c 128,-1,23
 315 1192 315 1192 318 1192 c 0,24,25
 323 1185 323 1185 328 1174.5 c 128,-1,26
 333 1164 333 1164 338 1150 c 1,27,28
 354 1142 354 1142 371 1132 c 128,-1,29
 388 1122 388 1122 408 1122 c 0,30,31
 456 1122 456 1122 472 1128 c 1,32,33
 451 1154 451 1154 451 1170 c 0,34,35
 451 1190 451 1190 461 1210 c 128,-1,36
 471 1230 471 1230 488 1246 c 128,-1,37
 505 1262 505 1262 527.5 1272 c 128,-1,38
 550 1282 550 1282 575 1282 c 0,39,40
 582 1282 582 1282 587 1281.5 c 128,-1,41
 592 1281 592 1281 598 1278.5 c 128,-1,42
 604 1276 604 1276 611.5 1270.5 c 128,-1,43
 619 1265 619 1265 630 1256 c 0,44,45
 656 1233 656 1233 656 1224 c 0,46,47
 656 1218 656 1218 636 1218 c 0,48,49
 634 1218 634 1218 626 1222 c 0,50,51
 617 1227 617 1227 610.5 1228.5 c 128,-1,52
 604 1230 604 1230 595 1230 c 0,53,54
 560 1230 560 1230 533.5 1222 c 128,-1,55
 507 1214 507 1214 507 1204 c 0,56,57
 507 1192 507 1192 514.5 1182.5 c 128,-1,58
 522 1173 522 1173 532.5 1166 c 128,-1,59
 543 1159 543 1159 553.5 1155 c 128,-1,60
 564 1151 564 1151 569 1151 c 0,61,62
 583 1151 583 1151 610.5 1157.5 c 128,-1,63
 638 1164 638 1164 660 1170 c 0,64,65
 670 1172 670 1172 676 1172 c 0,66,67
 686 1172 686 1172 686 1164 c 2,68,-1
 674 1129 l 2,0,1
EndSplineSet
EndChar
StartChar: uni0612
Encoding: 1554 1554 957
Width: 0
GlyphClass: 4
Flags: W
AnchorPoint: "Anchor-3" 526 978 mark 0
AnchorPoint: "Anchor-1" 526 978 mark 0
LayerCount: 2
Fore
SplineSet
712 1032 m 0,0,1
 677 1004 677 1004 602 1004 c 0,2,3
 573 1004 573 1004 534 1020 c 0,4,5
 500 1033 500 1033 500 1038 c 0,6,7
 500 1050 500 1050 510 1050 c 0,8,9
 560 1044 560 1044 570 1044 c 0,10,11
 635 1044 635 1044 714 1112 c 0,12,13
 788 1174 788 1174 788 1214 c 0,14,15
 788 1221 788 1221 748 1302 c 0,16,17
 740 1320 740 1320 740 1324 c 0,18,19
 740 1332 740 1332 755 1359 c 256,20,21
 770 1386 770 1386 776 1392 c 1,22,23
 822 1327 822 1327 822 1236 c 0,24,25
 822 1182 822 1182 790 1123 c 0,26,27
 758 1063 758 1063 712 1032 c 0,0,1
656 1300 m 0,28,29
 649 1299 649 1299 624.5 1295.5 c 128,-1,30
 600 1292 600 1292 558 1286 c 0,31,32
 461 1274 461 1274 378 1214 c 0,33,34
 284 1142 284 1142 284 1050 c 1,35,-1
 236 1010 l 1,36,37
 236 1192 236 1192 420 1292 c 1,38,39
 390 1300 390 1300 344 1300 c 0,40,41
 310 1300 310 1300 262 1288 c 1,42,43
 262 1301 262 1301 266 1318 c 2,44,-1
 274 1342 l 2,45,46
 276 1355 276 1355 307 1365 c 0,47,48
 340 1376 340 1376 372 1376 c 0,49,50
 388 1376 388 1376 412.5 1373.5 c 128,-1,51
 437 1371 437 1371 471 1366 c 256,52,53
 505 1361 505 1361 530 1358.5 c 128,-1,54
 555 1356 555 1356 572 1356 c 0,55,56
 604 1357 604 1357 670 1362 c 1,57,-1
 674 1362 l 2,58,59
 688 1362 688 1362 688 1352 c 0,60,61
 688 1347 688 1347 674 1324 c 0,62,63
 661 1302 661 1302 656 1300 c 0,28,29
EndSplineSet
EndChar
StartChar: uni0614
Encoding: 1556 1556 959
Width: 0
GlyphClass: 4
Flags: W
AnchorPoint: "Anchor-3" 270 1035 mark 0
AnchorPoint: "Anchor-1" 270 1035 mark 0
LayerCount: 2
Fore
SplineSet
768 1399 m 1,0,1
 769 1391 769 1391 769.5 1384 c 128,-1,2
 770 1377 770 1377 770 1369 c 0,3,4
 770 1325 770 1325 757 1281 c 128,-1,5
 744 1237 744 1237 721 1202 c 128,-1,6
 698 1167 698 1167 666 1145.5 c 128,-1,7
 634 1124 634 1124 596 1124 c 0,8,9
 540 1124 540 1124 507.5 1150.5 c 128,-1,10
 475 1177 475 1177 461 1239 c 1,11,12
 426 1231 426 1231 370 1226.5 c 128,-1,13
 314 1222 314 1222 240 1222 c 0,14,15
 179 1222 179 1222 109 1226 c 128,-1,16
 39 1230 39 1230 -39 1239 c 1,17,-1
 -106 1305 l 1,18,19
 -57 1297 -57 1297 9.5 1291 c 128,-1,20
 76 1285 76 1285 151 1285 c 0,21,22
 246 1285 246 1285 344.5 1297 c 128,-1,23
 443 1309 443 1309 528 1341 c 1,24,-1
 528 1335 l 2,25,26
 528 1332 528 1332 527.5 1327.5 c 128,-1,27
 527 1323 527 1323 527 1318 c 0,28,29
 527 1303 527 1303 529 1282.5 c 128,-1,30
 531 1262 531 1262 538.5 1243 c 128,-1,31
 546 1224 546 1224 559.5 1211 c 128,-1,32
 573 1198 573 1198 596 1198 c 0,33,34
 647 1198 647 1198 673.5 1226.5 c 128,-1,35
 700 1255 700 1255 700 1321 c 0,36,37
 700 1328 700 1328 699.5 1336 c 128,-1,38
 699 1344 699 1344 698 1352 c 1,39,-1
 768 1399 l 1,0,1
EndSplineSet
EndChar
StartChar: uni0615
Encoding: 1557 1557 960
Width: 0
GlyphClass: 4
Flags: W
AnchorPoint: "Anchor-3" 301 1035 mark 0
AnchorPoint: "Anchor-1" 301 1035 mark 0
LayerCount: 2
Fore
SplineSet
514 1307 m 0,0,1
 514 1275 514 1275 496 1250 c 128,-1,2
 478 1225 478 1225 448.5 1206.5 c 128,-1,3
 419 1188 419 1188 381.5 1174.5 c 128,-1,4
 344 1161 344 1161 304.5 1153 c 128,-1,5
 265 1145 265 1145 227.5 1141 c 128,-1,6
 190 1137 190 1137 160 1137 c 0,7,8
 149 1137 149 1137 135 1143 c 128,-1,9
 121 1149 121 1149 108 1158 c 128,-1,10
 95 1167 95 1167 86.5 1177 c 128,-1,11
 78 1187 78 1187 78 1194 c 0,12,13
 78 1199 78 1199 82 1199 c 0,14,15
 95 1199 95 1199 102 1198 c 128,-1,16
 109 1197 109 1197 114 1196.5 c 128,-1,17
 119 1196 119 1196 126 1195 c 128,-1,18
 133 1194 133 1194 146 1194 c 0,19,20
 172 1194 172 1194 185.5 1200.5 c 128,-1,21
 199 1207 199 1207 217 1225 c 1,22,23
 225 1241 225 1241 228.5 1262.5 c 128,-1,24
 232 1284 232 1284 232 1295 c 0,25,26
 232 1322 232 1322 231 1342 c 128,-1,27
 230 1362 230 1362 228.5 1380 c 128,-1,28
 227 1398 227 1398 224 1415.5 c 128,-1,29
 221 1433 221 1433 217 1455 c 0,30,31
 211 1500 211 1500 202 1535 c 128,-1,32
 193 1570 193 1570 193 1584 c 0,33,34
 193 1590 193 1590 195.5 1600.5 c 128,-1,35
 198 1611 198 1611 202 1621.5 c 128,-1,36
 206 1632 206 1632 211 1639.5 c 128,-1,37
 216 1647 216 1647 220 1647 c 0,38,39
 222 1647 222 1647 228 1638 c 128,-1,40
 234 1629 234 1629 241 1618 c 128,-1,41
 248 1607 248 1607 253.5 1598 c 128,-1,42
 259 1589 259 1589 258 1588 c 0,43,44
 250 1581 250 1581 243 1569 c 128,-1,45
 236 1557 236 1557 236 1534 c 0,46,47
 236 1526 236 1526 239 1507.5 c 128,-1,48
 242 1489 242 1489 246 1465 c 128,-1,49
 250 1441 250 1441 253 1414 c 128,-1,50
 256 1387 256 1387 256 1362 c 0,51,52
 256 1354 256 1354 255.5 1341 c 128,-1,53
 255 1328 255 1328 254.5 1313.5 c 128,-1,54
 254 1299 254 1299 253 1284.5 c 128,-1,55
 252 1270 252 1270 250 1258 c 1,56,57
 274 1284 274 1284 300 1307 c 128,-1,58
 326 1330 326 1330 351.5 1347 c 128,-1,59
 377 1364 377 1364 400.5 1373.5 c 128,-1,60
 424 1383 424 1383 443 1383 c 0,61,62
 477 1383 477 1383 495.5 1360.5 c 128,-1,63
 514 1338 514 1338 514 1307 c 0,0,1
478 1276 m 0,64,65
 478 1283 478 1283 471.5 1289.5 c 128,-1,66
 465 1296 465 1296 455 1300.5 c 128,-1,67
 445 1305 445 1305 433.5 1308 c 128,-1,68
 422 1311 422 1311 412 1311 c 0,69,70
 391 1311 391 1311 368.5 1306.5 c 128,-1,71
 346 1302 346 1302 323 1289.5 c 128,-1,72
 300 1277 300 1277 276.5 1255.5 c 128,-1,73
 253 1234 253 1234 232 1199 c 1,74,75
 297 1203 297 1203 343.5 1214.5 c 128,-1,76
 390 1226 390 1226 420 1239 c 128,-1,77
 450 1252 450 1252 464 1263 c 128,-1,78
 478 1274 478 1274 478 1276 c 0,64,65
EndSplineSet
EndChar
StartChar: uni0621
Encoding: 1569 1569 441
Width: 551
GlyphClass: 2
Flags: W
AnchorPoint: "Anchor-4" 210 -180 basechar 0
AnchorPoint: "Anchor-1" 210 540 basechar 0
LayerCount: 2
Fore
SplineSet
489 129 m 0,0,1
 489 128 489 128 484 117 c 128,-1,2
 479 106 479 106 472.5 92.5 c 128,-1,3
 466 79 466 79 460.5 68 c 128,-1,4
 455 57 455 57 453 55 c 0,5,6
 452 53 452 53 434 43 c 128,-1,7
 416 33 416 33 387 19 c 128,-1,8
 358 5 358 5 321.5 -13 c 128,-1,9
 285 -31 285 -31 246 -49 c 0,10,11
 208 -67 208 -67 173 -85 c 128,-1,12
 138 -103 138 -103 110.5 -116.5 c 128,-1,13
 83 -130 83 -130 66 -138.5 c 128,-1,14
 49 -147 49 -147 47 -147 c 0,15,16
 44 -147 44 -147 42 -141 c 0,17,18
 41 -138 41 -138 41 -135 c 0,19,20
 41 -112 41 -112 48.5 -97 c 128,-1,21
 56 -82 56 -82 78 -70 c 256,22,23
 100 -58 100 -58 123 -45 c 0,24,25
 143 -34 143 -34 166.5 -21 c 128,-1,26
 190 -8 190 -8 213 4 c 1,27,28
 159 16 159 16 124 30.5 c 128,-1,29
 89 45 89 45 68.5 61.5 c 128,-1,30
 48 78 48 78 39.5 96 c 128,-1,31
 31 114 31 114 31 133 c 0,32,33
 31 154 31 154 41 183.5 c 128,-1,34
 51 213 51 213 68.5 245 c 128,-1,35
 86 277 86 277 110 309 c 128,-1,36
 134 341 134 341 161 366 c 128,-1,37
 188 391 188 391 217.5 406.5 c 128,-1,38
 247 422 247 422 276 422 c 0,39,40
 295 422 295 422 310 413.5 c 128,-1,41
 325 405 325 405 335.5 391.5 c 128,-1,42
 346 378 346 378 352 361 c 128,-1,43
 358 344 358 344 358 328 c 0,44,45
 358 320 358 320 352 304 c 128,-1,46
 346 288 346 288 338.5 272.5 c 128,-1,47
 331 257 331 257 323.5 245 c 128,-1,48
 316 233 316 233 313 233 c 0,49,50
 312 233 312 233 304.5 243 c 128,-1,51
 297 253 297 253 285 265 c 128,-1,52
 273 277 273 277 256.5 287 c 128,-1,53
 240 297 240 297 219 297 c 0,54,55
 196 297 196 297 176 286 c 128,-1,56
 156 275 156 275 141 258.5 c 128,-1,57
 126 242 126 242 117.5 224.5 c 128,-1,58
 109 207 109 207 109 193 c 0,59,60
 109 177 109 177 120.5 163.5 c 128,-1,61
 132 150 132 150 150.5 139 c 128,-1,62
 169 128 169 128 191 119.5 c 128,-1,63
 213 111 213 111 233.5 105.5 c 128,-1,64
 254 100 254 100 271.5 97 c 128,-1,65
 289 94 289 94 297 94 c 0,66,67
 319 94 319 94 335.5 94.5 c 128,-1,68
 352 95 352 95 371 97 c 0,69,70
 395 100 395 100 414.5 106 c 128,-1,71
 434 112 434 112 448.5 118 c 128,-1,72
 463 124 463 124 472 128.5 c 128,-1,73
 481 133 481 133 483 133 c 0,74,75
 489 133 489 133 489 129 c 0,0,1
EndSplineSet
EndChar
StartChar: uni0627
Encoding: 1575 1575 257
Width: 297
GlyphClass: 2
Flags: W
AnchorPoint: "Anchor-4" 100 -180 basechar 0
AnchorPoint: "Anchor-1" 120 1100 basechar 0
LayerCount: 2
Fore
SplineSet
217 238 m 2,0,1
 217 230 217 230 214.5 208.5 c 128,-1,2
 212 187 212 187 207.5 160 c 128,-1,3
 203 133 203 133 197.5 103.5 c 128,-1,4
 192 74 192 74 186 50 c 128,-1,5
 180 26 180 26 174.5 10 c 128,-1,6
 169 -6 169 -6 164 -6 c 0,7,8
 147 -6 147 -6 147 10 c 0,9,10
 147 15 147 15 153.5 43.5 c 128,-1,11
 160 72 160 72 160 117 c 0,12,13
 160 145 160 145 154 202 c 128,-1,14
 148 259 148 259 139 330 c 128,-1,15
 130 401 130 401 120 477 c 128,-1,16
 110 553 110 553 101 619 c 128,-1,17
 92 685 92 685 86 733 c 128,-1,18
 80 781 80 781 80 795 c 0,19,20
 80 818 80 818 87 850.5 c 128,-1,21
 94 883 94 883 103.5 913 c 128,-1,22
 113 943 113 943 123 965 c 128,-1,23
 133 987 133 987 139 989 c 0,24,25
 141 986 141 986 143 976 c 128,-1,26
 145 966 145 966 146.5 954 c 128,-1,27
 148 942 148 942 149 929.5 c 128,-1,28
 150 917 150 917 150 909 c 2,29,-1
 150 852 l 1,30,-1
 217 238 l 2,0,1
EndSplineSet
Substitution2: "'fina' Terminal Forms in Arabic lookup 2 subtable" uni0627.fina
EndChar
StartChar: uni0633
Encoding: 1587 1587 357
Width: 1348
GlyphClass: 2
Flags: W
AnchorPoint: "Anchor-4" 300 -600 basechar 0
AnchorPoint: "Anchor-1" 400 450 basechar 0
LayerCount: 2
Fore
SplineSet
1237 307 m 0,0,1
 1237 277 1237 277 1229.5 238.5 c 128,-1,2
 1222 200 1222 200 1206.5 165.5 c 128,-1,3
 1191 131 1191 131 1166.5 107.5 c 128,-1,4
 1142 84 1142 84 1108 84 c 0,5,6
 1080 84 1080 84 1058 94 c 128,-1,7
 1036 104 1036 104 1019.5 117.5 c 128,-1,8
 1003 131 1003 131 991 144.5 c 128,-1,9
 979 158 979 158 971 166 c 1,10,11
 959 146 959 146 940.5 120 c 128,-1,12
 922 94 922 94 898 71 c 128,-1,13
 874 48 874 48 845.5 32 c 128,-1,14
 817 16 817 16 784 16 c 2,15,-1
 780 16 l 1,16,17
 780 -17 780 -17 779 -38.5 c 128,-1,18
 778 -60 778 -60 776 -78 c 128,-1,19
 774 -96 774 -96 770.5 -114 c 128,-1,20
 767 -132 767 -132 762 -158 c 0,21,22
 741 -263 741 -263 689 -328.5 c 128,-1,23
 637 -394 637 -394 569.5 -430 c 128,-1,24
 502 -466 502 -466 426.5 -479 c 128,-1,25
 351 -492 351 -492 281 -492 c 0,26,27
 223 -492 223 -492 176 -472 c 128,-1,28
 129 -452 129 -452 96.5 -418 c 128,-1,29
 64 -384 64 -384 46.5 -339.5 c 128,-1,30
 29 -295 29 -295 29 -246 c 0,31,32
 29 -198 29 -198 45 -149 c 128,-1,33
 61 -100 61 -100 81 -60.5 c 128,-1,34
 101 -21 101 -21 119.5 4 c 128,-1,35
 138 29 138 29 143 29 c 256,36,37
 148 29 148 29 152 25.5 c 128,-1,38
 156 22 156 22 156 18 c 0,39,40
 156 12 156 12 145 -6 c 128,-1,41
 134 -24 134 -24 121 -51.5 c 128,-1,42
 108 -79 108 -79 97 -114.5 c 128,-1,43
 86 -150 86 -150 86 -190 c 0,44,45
 86 -240 86 -240 111 -273.5 c 128,-1,46
 136 -307 136 -307 172.5 -327 c 128,-1,47
 209 -347 209 -347 250.5 -356 c 128,-1,48
 292 -365 292 -365 324 -365 c 0,49,50
 367 -365 367 -365 412 -360.5 c 128,-1,51
 457 -356 457 -356 499 -347 c 128,-1,52
 541 -338 541 -338 577 -325.5 c 128,-1,53
 613 -313 613 -313 637 -297 c 0,54,55
 690 -262 690 -262 708.5 -213 c 128,-1,56
 727 -164 727 -164 727 -90 c 0,57,58
 727 -43 727 -43 718.5 -10 c 128,-1,59
 710 23 710 23 700.5 45.5 c 128,-1,60
 691 68 691 68 682.5 81.5 c 128,-1,61
 674 95 674 95 674 102 c 0,62,63
 674 108 674 108 681 125 c 128,-1,64
 688 142 688 142 697 161 c 128,-1,65
 706 180 706 180 714.5 194.5 c 128,-1,66
 723 209 723 209 727 209 c 0,67,68
 739 192 739 192 748.5 172.5 c 128,-1,69
 758 153 758 153 764 131 c 1,70,71
 802 130 802 130 840 146 c 128,-1,72
 878 162 878 162 909.5 189 c 128,-1,73
 941 216 941 216 963 251.5 c 128,-1,74
 985 287 985 287 989 326 c 0,75,76
 992 346 992 346 1004 346 c 0,77,78
 1006 344 1006 344 1009 340 c 0,79,80
 1013 335 1013 335 1016 322 c 0,81,82
 1021 291 1021 291 1038.5 270.5 c 128,-1,83
 1056 250 1056 250 1077.5 238 c 128,-1,84
 1099 226 1099 226 1120.5 221.5 c 128,-1,85
 1142 217 1142 217 1155 217 c 0,86,87
 1158 217 1158 217 1164 219.5 c 128,-1,88
 1170 222 1170 222 1175.5 225.5 c 128,-1,89
 1181 229 1181 229 1185.5 233 c 128,-1,90
 1190 237 1190 237 1190 240 c 0,91,92
 1190 247 1190 247 1183 255 c 128,-1,93
 1176 263 1176 263 1167.5 270 c 128,-1,94
 1159 277 1159 277 1152 283 c 128,-1,95
 1145 289 1145 289 1145 291 c 0,96,97
 1145 294 1145 294 1149.5 313 c 128,-1,98
 1154 332 1154 332 1161 353.5 c 128,-1,99
 1168 375 1168 375 1175 392.5 c 128,-1,100
 1182 410 1182 410 1186 410 c 0,101,102
 1194 410 1194 410 1203 398.5 c 128,-1,103
 1212 387 1212 387 1219.5 370.5 c 128,-1,104
 1227 354 1227 354 1232 336.5 c 128,-1,105
 1237 319 1237 319 1237 307 c 0,0,1
EndSplineSet
Substitution2: "'medi' Medial Forms in Arabic lookup 3 subtable" uni0633.medi
Substitution2: "'fina' Terminal Forms in Arabic lookup 2 subtable" uni0633.fina
Substitution2: "'init' Initial Forms in Arabic lookup 1 subtable" uni0633.init
EndChar
StartChar: uni0635
Encoding: 1589 1589 367
Width: 1602
GlyphClass: 2
Flags: W
AnchorPoint: "Anchor-4" 300 -600 basechar 0
AnchorPoint: "Anchor-1" 397 496 basechar 0
LayerCount: 2
Fore
SplineSet
1540 340 m 0,0,1
 1540 278 1540 278 1505.5 229.5 c 128,-1,2
 1471 181 1471 181 1415.5 144.5 c 128,-1,3
 1360 108 1360 108 1290.5 83 c 128,-1,4
 1221 58 1221 58 1150.5 42.5 c 128,-1,5
 1080 27 1080 27 1015.5 20 c 128,-1,6
 951 13 951 13 905 12 c 1,7,8
 901 3 901 3 893.5 -15 c 128,-1,9
 886 -33 886 -33 879.5 -54 c 128,-1,10
 873 -75 873 -75 867.5 -95.5 c 128,-1,11
 862 -116 862 -116 860 -129 c 0,12,13
 858 -130 858 -130 853.5 -125.5 c 128,-1,14
 849 -121 849 -121 844.5 -114.5 c 128,-1,15
 840 -108 840 -108 837 -100 c 128,-1,16
 834 -92 834 -92 834 -86 c 0,17,18
 834 -82 834 -82 837 -70.5 c 128,-1,19
 840 -59 840 -59 844.5 -45 c 128,-1,20
 849 -31 849 -31 853.5 -16 c 128,-1,21
 858 -1 858 -1 862 10 c 1,22,23
 856 10 856 10 844.5 10 c 128,-1,24
 833 10 833 10 820 10.5 c 128,-1,25
 807 11 807 11 796 12.5 c 128,-1,26
 785 14 785 14 780 16 c 1,27,28
 780 -17 780 -17 779 -38.5 c 128,-1,29
 778 -60 778 -60 776 -78 c 128,-1,30
 774 -96 774 -96 770.5 -114 c 128,-1,31
 767 -132 767 -132 762 -158 c 0,32,33
 741 -263 741 -263 689 -328.5 c 128,-1,34
 637 -394 637 -394 569.5 -430 c 128,-1,35
 502 -466 502 -466 426.5 -479 c 128,-1,36
 351 -492 351 -492 281 -492 c 0,37,38
 223 -492 223 -492 176 -472 c 128,-1,39
 129 -452 129 -452 96.5 -418 c 128,-1,40
 64 -384 64 -384 46.5 -339.5 c 128,-1,41
 29 -295 29 -295 29 -246 c 0,42,43
 29 -198 29 -198 45 -149 c 128,-1,44
 61 -100 61 -100 81 -60.5 c 128,-1,45
 101 -21 101 -21 119.5 4 c 128,-1,46
 138 29 138 29 143 29 c 256,47,48
 148 29 148 29 152 25.5 c 128,-1,49
 156 22 156 22 156 18 c 0,50,51
 156 12 156 12 145 -6 c 128,-1,52
 134 -24 134 -24 121 -51.5 c 128,-1,53
 108 -79 108 -79 97 -114.5 c 128,-1,54
 86 -150 86 -150 86 -190 c 0,55,56
 86 -240 86 -240 111 -273.5 c 128,-1,57
 136 -307 136 -307 172.5 -327 c 128,-1,58
 209 -347 209 -347 250.5 -356 c 128,-1,59
 292 -365 292 -365 324 -365 c 0,60,61
 367 -365 367 -365 412 -360.5 c 128,-1,62
 457 -356 457 -356 499 -347 c 128,-1,63
 541 -338 541 -338 577 -325.5 c 128,-1,64
 613 -313 613 -313 637 -297 c 0,65,66
 690 -262 690 -262 708.5 -213 c 128,-1,67
 727 -164 727 -164 727 -90 c 0,68,69
 727 -43 727 -43 718.5 -10 c 128,-1,70
 710 23 710 23 700.5 45.5 c 128,-1,71
 691 68 691 68 682.5 81.5 c 128,-1,72
 674 95 674 95 674 102 c 0,73,74
 674 108 674 108 681 125 c 128,-1,75
 688 142 688 142 697 161 c 128,-1,76
 706 180 706 180 714.5 194.5 c 128,-1,77
 723 209 723 209 727 209 c 0,78,79
 739 192 739 192 748.5 172.5 c 128,-1,80
 758 153 758 153 764 131 c 1,81,82
 771 131 771 131 791 129.5 c 128,-1,83
 811 128 811 128 835 126.5 c 128,-1,84
 859 125 859 125 882 125 c 128,-1,85
 905 125 905 125 918 127 c 1,86,87
 955 181 955 181 1009.5 245 c 128,-1,88
 1064 309 1064 309 1129 365 c 128,-1,89
 1194 421 1194 421 1265 458.5 c 128,-1,90
 1336 496 1336 496 1405 496 c 0,91,92
 1442 496 1442 496 1467.5 480 c 128,-1,93
 1493 464 1493 464 1509 440.5 c 128,-1,94
 1525 417 1525 417 1532.5 390 c 128,-1,95
 1540 363 1540 363 1540 340 c 0,0,1
1466 279 m 0,96,97
 1466 290 1466 290 1455.5 303.5 c 128,-1,98
 1445 317 1445 317 1427.5 328 c 128,-1,99
 1410 339 1410 339 1386 346.5 c 128,-1,100
 1362 354 1362 354 1335 354 c 0,101,102
 1287 354 1287 354 1234.5 337.5 c 128,-1,103
 1182 321 1182 321 1132.5 291.5 c 128,-1,104
 1083 262 1083 262 1040.5 220.5 c 128,-1,105
 998 179 998 179 971 129 c 1,106,107
 1026 129 1026 129 1084 137.5 c 128,-1,108
 1142 146 1142 146 1197 159 c 128,-1,109
 1252 172 1252 172 1301 188.5 c 128,-1,110
 1350 205 1350 205 1386.5 222 c 128,-1,111
 1423 239 1423 239 1444.5 254 c 128,-1,112
 1466 269 1466 269 1466 279 c 0,96,97
EndSplineSet
Substitution2: "'medi' Medial Forms in Arabic lookup 3 subtable" uni0635.medi
Substitution2: "'fina' Terminal Forms in Arabic lookup 2 subtable" uni0635.fina
Substitution2: "'init' Initial Forms in Arabic lookup 1 subtable" uni0635.init
EndChar
StartChar: uni0640
Encoding: 1600 1600 444
Width: 250
GlyphClass: 2
Flags: W
AnchorPoint: "Anchor-4" 111 -188 basechar 0
AnchorPoint: "Anchor-1" 150 790 basechar 0
LayerCount: 2
Fore
SplineSet
-20 0 m 2,0,1
 -50 0 -50 0 -65 20 c 128,-1,2
 -80 40 -80 40 -80 63 c 256,3,4
 -80 86 -80 86 -65 105.5 c 128,-1,5
 -50 125 -50 125 -20 125 c 2,6,-1
 270 125 l 2,7,8
 300 125 300 125 315 105.5 c 128,-1,9
 330 86 330 86 330 63 c 256,10,11
 330 40 330 40 315 20 c 128,-1,12
 300 0 300 0 270 0 c 2,13,-1
 -20 0 l 2,0,1
EndSplineSet
EndChar
StartChar: uni0644
Encoding: 1604 1604 411
Width: 885
GlyphClass: 2
Flags: W
AnchorPoint: "Anchor-4" 400 -330 basechar 0
AnchorPoint: "Anchor-2" 460 800 basechar 0
AnchorPoint: "Anchor-1" 300 900 basechar 0
LayerCount: 2
Fore
SplineSet
765 121 m 0,0,1
 765 90 765 90 760 55.5 c 128,-1,2
 755 21 755 21 742 -12.5 c 128,-1,3
 729 -46 729 -46 706.5 -77 c 128,-1,4
 684 -108 684 -108 649 -133 c 0,5,6
 614 -159 614 -159 580 -177.5 c 128,-1,7
 546 -196 546 -196 508.5 -208.5 c 128,-1,8
 471 -221 471 -221 427.5 -227 c 128,-1,9
 384 -233 384 -233 330 -233 c 0,10,11
 290 -233 290 -233 245.5 -220.5 c 128,-1,12
 201 -208 201 -208 164 -182 c 128,-1,13
 127 -156 127 -156 102.5 -116.5 c 128,-1,14
 78 -77 78 -77 78 -23 c 0,15,16
 78 37 78 37 94 96.5 c 128,-1,17
 110 156 110 156 130 203 c 128,-1,18
 150 250 150 250 168 279.5 c 128,-1,19
 186 309 186 309 190 309 c 0,20,21
 203 309 203 309 203 299 c 0,22,23
 203 296 203 296 192.5 277.5 c 128,-1,24
 182 259 182 259 170 229.5 c 128,-1,25
 158 200 158 200 147.5 161 c 128,-1,26
 137 122 137 122 137 78 c 0,27,28
 137 30 137 30 158 -5 c 128,-1,29
 179 -40 179 -40 211 -62.5 c 128,-1,30
 243 -85 243 -85 282 -95.5 c 128,-1,31
 321 -106 321 -106 358 -106 c 0,32,33
 411 -106 411 -106 465.5 -94 c 128,-1,34
 520 -82 520 -82 567 -64.5 c 128,-1,35
 614 -47 614 -47 650.5 -27 c 128,-1,36
 687 -7 687 -7 705 10 c 0,37,38
 709 14 709 14 712 22.5 c 128,-1,39
 715 31 715 31 717.5 41.5 c 128,-1,40
 720 52 720 52 721 62.5 c 128,-1,41
 722 73 722 73 722 79 c 0,42,43
 722 109 722 109 716.5 161.5 c 128,-1,44
 711 214 711 214 702 279.5 c 128,-1,45
 693 345 693 345 682 419.5 c 128,-1,46
 671 494 671 494 660 567 c 0,47,48
 648 646 648 646 636.5 719.5 c 128,-1,49
 625 793 625 793 616 851.5 c 128,-1,50
 607 910 607 910 601.5 949.5 c 128,-1,51
 596 989 596 989 596 1001 c 256,52,53
 596 1013 596 1013 599 1028 c 128,-1,54
 602 1043 602 1043 608.5 1058 c 128,-1,55
 615 1073 615 1073 624.5 1085.5 c 128,-1,56
 634 1098 634 1098 647 1104 c 0,57,58
 648 1102 648 1102 661 1084 c 128,-1,59
 674 1066 674 1066 689 1045 c 2,60,-1
 729 989 l 1,61,62
 712 978 712 978 697 954 c 128,-1,63
 682 930 682 930 682 899 c 0,64,65
 682 866 682 866 688 814 c 128,-1,66
 694 762 694 762 703.5 697 c 128,-1,67
 713 632 713 632 723.5 558.5 c 128,-1,68
 734 485 734 485 743.5 409.5 c 128,-1,69
 753 334 753 334 759 260 c 128,-1,70
 765 186 765 186 765 121 c 0,0,1
EndSplineSet
Substitution2: "'medi' Medial Forms in Arabic lookup 3 subtable" uni0644.medi
Substitution2: "'fina' Terminal Forms in Arabic lookup 2 subtable" uni0644.fina
Substitution2: "'init' Initial Forms in Arabic lookup 1 subtable" uni0644.init
EndChar
StartChar: uni064E
Encoding: 1614 1614 907
Width: 0
GlyphClass: 4
Flags: W
AnchorPoint: "Anchor-3" 90 1290 basemark 0
AnchorPoint: "Anchor-3" 120 1020 mark 0
AnchorPoint: "Anchor-1" 120 1020 mark 0
LayerCount: 2
Fore
SplineSet
274 1210 m 0,0,1
 274 1208 274 1208 268.5 1194.5 c 128,-1,2
 263 1181 263 1181 260 1171 c 0,3,4
 251 1150 251 1150 232 1140 c 128,-1,5
 213 1130 213 1130 199 1122 c 2,6,-1
 6 1022 l 2,7,8
 -19 1010 -19 1010 -28 1003.5 c 128,-1,9
 -37 997 -37 997 -43 997 c 0,10,11
 -48 997 -48 997 -48.5 999 c 128,-1,12
 -49 1001 -49 1001 -49 1006 c 0,13,14
 -49 1008 -49 1008 -46.5 1020 c 128,-1,15
 -44 1032 -44 1032 -39 1040 c 0,16,17
 -34 1050 -34 1050 -30 1056.5 c 128,-1,18
 -26 1063 -26 1063 -21 1067.5 c 128,-1,19
 -16 1072 -16 1072 -9.5 1076.5 c 128,-1,20
 -3 1081 -3 1081 8 1087 c 2,21,-1
 207 1192 l 2,22,23
 224 1201 224 1201 241 1212 c 128,-1,24
 258 1223 258 1223 264 1223 c 256,25,26
 270 1223 270 1223 272 1220.5 c 128,-1,27
 274 1218 274 1218 274 1210 c 0,0,1
EndSplineSet
EndChar
StartChar: uni0654
Encoding: 1620 1620 913
Width: 0
GlyphClass: 4
Flags: W
AnchorPoint: "Anchor-3" 60 1410 basemark 0
AnchorPoint: "Anchor-3" 120 1020 mark 0
AnchorPoint: "Anchor-1" 120 1020 mark 0
LayerCount: 2
Fore
SplineSet
273 1159 m 0,0,1
 273 1156 273 1156 270.5 1147 c 128,-1,2
 268 1138 268 1138 263 1128.5 c 128,-1,3
 258 1119 258 1119 250.5 1110 c 128,-1,4
 243 1101 243 1101 234 1098 c 0,5,6
 228 1097 228 1097 215.5 1092 c 128,-1,7
 203 1087 203 1087 186 1080.5 c 128,-1,8
 169 1074 169 1074 149 1066.5 c 128,-1,9
 129 1059 129 1059 109 1051 c 0,10,11
 60 1032 60 1032 36.5 1021 c 128,-1,12
 13 1010 13 1010 5 1010 c 256,13,14
 -3 1010 -3 1010 -3 1018 c 0,15,16
 -3 1022 -3 1022 0 1029.5 c 128,-1,17
 3 1037 3 1037 7 1045.5 c 128,-1,18
 11 1054 11 1054 15 1061 c 128,-1,19
 19 1068 19 1068 21 1071 c 0,20,21
 24 1074 24 1074 30.5 1078.5 c 128,-1,22
 37 1083 37 1083 44.5 1087.5 c 128,-1,23
 52 1092 52 1092 59 1095.5 c 128,-1,24
 66 1099 66 1099 70 1100 c 1,25,26
 63 1102 63 1102 53 1107.5 c 128,-1,27
 43 1113 43 1113 35 1121.5 c 128,-1,28
 27 1130 27 1130 21 1141 c 128,-1,29
 15 1152 15 1152 15 1166 c 0,30,31
 15 1178 15 1178 21 1192.5 c 128,-1,32
 27 1207 27 1207 36.5 1221.5 c 128,-1,33
 46 1236 46 1236 57.5 1250 c 128,-1,34
 69 1264 69 1264 81 1276 c 0,35,36
 101 1296 101 1296 114.5 1306.5 c 128,-1,37
 128 1317 128 1317 138.5 1321.5 c 128,-1,38
 149 1326 149 1326 158 1326.5 c 128,-1,39
 167 1327 167 1327 177 1327 c 0,40,41
 199 1327 199 1327 209.5 1309.5 c 128,-1,42
 220 1292 220 1292 220 1272 c 0,43,44
 220 1267 220 1267 217 1257 c 128,-1,45
 214 1247 214 1247 209.5 1237.5 c 128,-1,46
 205 1228 205 1228 200.5 1220.5 c 128,-1,47
 196 1213 196 1213 193 1213 c 0,48,49
 189 1213 189 1213 181 1216.5 c 128,-1,50
 173 1220 173 1220 163 1224 c 128,-1,51
 153 1228 153 1228 142 1231.5 c 128,-1,52
 131 1235 131 1235 122 1235 c 0,53,54
 105 1235 105 1235 89.5 1223 c 128,-1,55
 74 1211 74 1211 74 1200 c 0,56,57
 74 1197 74 1197 85 1188.5 c 128,-1,58
 96 1180 96 1180 112.5 1170.5 c 128,-1,59
 129 1161 129 1161 147.5 1153.5 c 128,-1,60
 166 1146 166 1146 181 1145 c 0,61,62
 193 1148 193 1148 207 1151 c 128,-1,63
 221 1154 221 1154 233.5 1156.5 c 128,-1,64
 246 1159 246 1159 255 1161 c 128,-1,65
 264 1163 264 1163 267 1164 c 0,66,67
 269 1164 269 1164 271 1163.5 c 128,-1,68
 273 1163 273 1163 273 1159 c 0,0,1
EndSplineSet
EndChar
StartChar: uni0655
Encoding: 1621 1621 914
Width: 0
GlyphClass: 4
Flags: W
AnchorPoint: "Anchor-8" 105 -120 mark 0
AnchorPoint: "Anchor-5" 135 -450 basemark 0
AnchorPoint: "Anchor-5" 105 -120 mark 0
AnchorPoint: "Anchor-4" 105 -120 mark 0
LayerCount: 2
Fore
SplineSet
303 -322 m 0,0,1
 303 -325 303 -325 300.5 -334 c 128,-1,2
 298 -343 298 -343 293 -352.5 c 128,-1,3
 288 -362 288 -362 280.5 -371 c 128,-1,4
 273 -380 273 -380 264 -383 c 0,5,6
 258 -385 258 -385 245.5 -389.5 c 128,-1,7
 233 -394 233 -394 216 -400.5 c 128,-1,8
 199 -407 199 -407 179 -415 c 128,-1,9
 159 -423 159 -423 139 -430 c 0,10,11
 90 -449 90 -449 66.5 -460 c 128,-1,12
 43 -471 43 -471 35 -471 c 256,13,14
 27 -471 27 -471 27 -463 c 0,15,16
 27 -459 27 -459 30 -451.5 c 128,-1,17
 33 -444 33 -444 37 -436 c 128,-1,18
 41 -428 41 -428 45 -420.5 c 128,-1,19
 49 -413 49 -413 51 -410 c 0,20,21
 54 -407 54 -407 60.5 -402.5 c 128,-1,22
 67 -398 67 -398 74.5 -393.5 c 128,-1,23
 82 -389 82 -389 89 -386 c 128,-1,24
 96 -383 96 -383 100 -381 c 1,25,26
 93 -379 93 -379 83 -373.5 c 128,-1,27
 73 -368 73 -368 65 -359.5 c 128,-1,28
 57 -351 57 -351 51 -340 c 128,-1,29
 45 -329 45 -329 45 -315 c 0,30,31
 45 -303 45 -303 51 -288.5 c 128,-1,32
 57 -274 57 -274 66.5 -259.5 c 128,-1,33
 76 -245 76 -245 87.5 -231 c 128,-1,34
 99 -217 99 -217 111 -205 c 0,35,36
 131 -185 131 -185 144.5 -174.5 c 128,-1,37
 158 -164 158 -164 168.5 -159.5 c 128,-1,38
 179 -155 179 -155 188 -154.5 c 128,-1,39
 197 -154 197 -154 207 -154 c 0,40,41
 229 -154 229 -154 239.5 -171.5 c 128,-1,42
 250 -189 250 -189 250 -209 c 0,43,44
 250 -214 250 -214 247 -224 c 128,-1,45
 244 -234 244 -234 239.5 -244 c 128,-1,46
 235 -254 235 -254 230.5 -261 c 128,-1,47
 226 -268 226 -268 223 -268 c 0,48,49
 219 -268 219 -268 211 -264.5 c 128,-1,50
 203 -261 203 -261 193 -257 c 128,-1,51
 183 -253 183 -253 172 -249.5 c 128,-1,52
 161 -246 161 -246 152 -246 c 0,53,54
 135 -246 135 -246 119.5 -258 c 128,-1,55
 104 -270 104 -270 104 -281 c 0,56,57
 104 -284 104 -284 115 -292.5 c 128,-1,58
 126 -301 126 -301 142.5 -310.5 c 128,-1,59
 159 -320 159 -320 177.5 -327.5 c 128,-1,60
 196 -335 196 -335 211 -336 c 0,61,62
 223 -333 223 -333 237 -330 c 128,-1,63
 251 -327 251 -327 263.5 -324.5 c 128,-1,64
 276 -322 276 -322 285 -320 c 128,-1,65
 294 -318 294 -318 297 -317 c 0,66,67
 299 -317 299 -317 301 -317.5 c 128,-1,68
 303 -318 303 -318 303 -322 c 0,0,1
EndSplineSet
EndChar
StartChar: uni0656
Encoding: 1622 1622 915
Width: 0
GlyphClass: 4
Flags: W
AnchorPoint: "Anchor-8" 92 -18 mark 0
AnchorPoint: "Anchor-5" 92 -591 basemark 0
AnchorPoint: "Anchor-5" 92 -18 mark 0
AnchorPoint: "Anchor-4" 92 -18 mark 0
LayerCount: 2
Fore
SplineSet
83 -475 m 2,0,1
 83 -441 83 -441 79 -405 c 128,-1,2
 75 -369 75 -369 69.5 -336 c 128,-1,3
 64 -303 64 -303 60 -276 c 128,-1,4
 56 -249 56 -249 56 -232 c 0,5,6
 56 -214 56 -214 61.5 -187.5 c 128,-1,7
 67 -161 67 -161 74.5 -136.5 c 128,-1,8
 82 -112 82 -112 90 -94 c 128,-1,9
 98 -76 98 -76 103 -74 c 0,10,11
 105 -77 105 -77 106.5 -85.5 c 128,-1,12
 108 -94 108 -94 109.5 -104 c 128,-1,13
 111 -114 111 -114 111.5 -124 c 128,-1,14
 112 -134 112 -134 112 -140 c 2,15,-1
 112 -185 l 1,16,-1
 128 -377 l 2,17,18
 128 -387 128 -387 125.5 -414.5 c 128,-1,19
 123 -442 123 -442 119 -471 c 128,-1,20
 115 -500 115 -500 110 -522.5 c 128,-1,21
 105 -545 105 -545 99 -545 c 0,22,23
 83 -545 83 -545 83 -533 c 2,24,-1
 83 -475 l 2,0,1
EndSplineSet
EndChar
StartChar: uni0657
Encoding: 1623 1623 916
Width: 0
GlyphClass: 4
Flags: W
AnchorPoint: "Anchor-3" 120 1450 basemark 0
AnchorPoint: "Anchor-3" 120 930 mark 0
AnchorPoint: "Anchor-1" 120 930 mark 0
LayerCount: 2
Fore
SplineSet
193 1092 m 0,0,1
 193 1067 193 1067 185.5 1047 c 128,-1,2
 178 1027 178 1027 166 1013 c 128,-1,3
 154 999 154 999 140 991 c 128,-1,4
 126 983 126 983 113 983 c 0,5,6
 87 983 87 983 65 1011 c 128,-1,7
 43 1039 43 1039 43 1096 c 0,8,9
 43 1144 43 1144 53 1186 c 128,-1,10
 63 1228 63 1228 80 1266 c 128,-1,11
 97 1304 97 1304 118.5 1338.5 c 128,-1,12
 140 1373 140 1373 162 1407 c 1,13,14
 174 1404 174 1404 175 1403 c 0,15,16
 177 1402 177 1402 178 1401 c 0,17,18
 160 1367 160 1367 145 1330.5 c 128,-1,19
 130 1294 130 1294 118.5 1257.5 c 128,-1,20
 107 1221 107 1221 100.5 1186.5 c 128,-1,21
 94 1152 94 1152 94 1122 c 1,22,23
 107 1147 107 1147 119 1160.5 c 128,-1,24
 131 1174 131 1174 150 1174 c 0,25,26
 168 1174 168 1174 180.5 1156 c 128,-1,27
 193 1138 193 1138 193 1092 c 0,0,1
EndSplineSet
EndChar
StartChar: uni0658
Encoding: 1624 1624 917
Width: 0
GlyphClass: 4
Flags: W
AnchorPoint: "Anchor-3" 160 1290 basemark 0
AnchorPoint: "Anchor-3" 160 900 mark 0
AnchorPoint: "Anchor-1" 160 900 mark 0
LayerCount: 2
Fore
SplineSet
41 1237 m 1,0,1
 46 1216 46 1216 56.5 1187.5 c 128,-1,2
 67 1159 67 1159 83 1133 c 128,-1,3
 99 1107 99 1107 120.5 1089 c 128,-1,4
 142 1071 142 1071 168 1071 c 256,5,6
 194 1071 194 1071 216 1085 c 128,-1,7
 238 1099 238 1099 255 1121.5 c 128,-1,8
 272 1144 272 1144 282.5 1172.5 c 128,-1,9
 293 1201 293 1201 295 1229 c 1,10,-1
 317 1227 l 1,11,12
 317 1193 317 1193 304.5 1151 c 128,-1,13
 292 1109 292 1109 269.5 1072.5 c 128,-1,14
 247 1036 247 1036 216 1011.5 c 128,-1,15
 185 987 185 987 147 987 c 0,16,17
 107 987 107 987 80 1010.5 c 128,-1,18
 53 1034 53 1034 36.5 1068 c 128,-1,19
 20 1102 20 1102 12 1140.5 c 128,-1,20
 4 1179 4 1179 0 1210 c 1,21,-1
 41 1237 l 1,0,1
EndSplineSet
EndChar
StartChar: uni065B
Encoding: 1627 1627 920
Width: 0
GlyphClass: 4
Flags: W
AnchorPoint: "Anchor-3" 209 1271 basemark 0
AnchorPoint: "Anchor-3" 207 949 mark 0
AnchorPoint: "Anchor-1" 207 949 mark 0
LayerCount: 2
Fore
SplineSet
8 995 m 0,0,1
 8 1000 8 1000 24 1023.5 c 128,-1,2
 40 1047 40 1047 62.5 1077 c 128,-1,3
 85 1107 85 1107 109.5 1137.5 c 128,-1,4
 134 1168 134 1168 152 1186 c 0,5,6
 161 1195 161 1195 166.5 1200.5 c 128,-1,7
 172 1206 172 1206 178 1206 c 2,8,-1
 236 1206 l 2,9,10
 242 1206 242 1206 249 1199.5 c 128,-1,11
 256 1193 256 1193 264 1184 c 0,12,13
 282 1165 282 1165 307 1134.5 c 128,-1,14
 332 1104 332 1104 355 1074 c 128,-1,15
 378 1044 378 1044 394 1021 c 128,-1,16
 410 998 410 998 410 995 c 0,17,18
 410 990 410 990 401 987 c 2,19,-1
 369 987 l 2,20,21
 366 987 366 987 353.5 997 c 128,-1,22
 341 1007 341 1007 324.5 1022.5 c 128,-1,23
 308 1038 308 1038 289 1055.5 c 128,-1,24
 270 1073 270 1073 253 1088.5 c 128,-1,25
 236 1104 236 1104 224 1114 c 128,-1,26
 212 1124 212 1124 209 1124 c 256,27,28
 206 1124 206 1124 193 1114 c 128,-1,29
 180 1104 180 1104 163 1088.5 c 128,-1,30
 146 1073 146 1073 127 1055.5 c 128,-1,31
 108 1038 108 1038 91 1022.5 c 128,-1,32
 74 1007 74 1007 61.5 997 c 128,-1,33
 49 987 49 987 45 987 c 2,34,-1
 16 987 l 2,35,36
 10 987 10 987 9 990 c 128,-1,37
 8 993 8 993 8 995 c 0,0,1
EndSplineSet
EndChar
StartChar: uni065C
Encoding: 1628 1628 921
Width: 0
GlyphClass: 4
Flags: W
AnchorPoint: "Anchor-8" 164 203 mark 0
AnchorPoint: "Anchor-5" 164 -211 basemark 0
AnchorPoint: "Anchor-5" 164 203 mark 0
AnchorPoint: "Anchor-4" 164 203 mark 0
LayerCount: 2
Fore
SplineSet
274 2 m 0,0,1
 274 -26 274 -26 264.5 -50.5 c 128,-1,2
 255 -75 255 -75 238 -93.5 c 128,-1,3
 221 -112 221 -112 197.5 -123 c 128,-1,4
 174 -134 174 -134 146 -134 c 0,5,6
 105 -134 105 -134 83.5 -105 c 128,-1,7
 62 -76 62 -76 62 -14 c 0,8,9
 62 12 62 12 70.5 36 c 128,-1,10
 79 60 79 60 95 78 c 128,-1,11
 111 96 111 96 133.5 107 c 128,-1,12
 156 118 156 118 184 118 c 0,13,14
 202 118 202 118 218.5 106.5 c 128,-1,15
 235 95 235 95 247 78 c 128,-1,16
 259 61 259 61 266.5 40.5 c 128,-1,17
 274 20 274 20 274 2 c 0,0,1
EndSplineSet
EndChar
StartChar: uni0662
Encoding: 1634 1634 981
Width: 801
GlyphClass: 2
Flags: W
LayerCount: 2
Fore
SplineSet
598 639 m 0,0,1
 598 584 598 584 582 545 c 128,-1,2
 566 506 566 506 537.5 482.5 c 128,-1,3
 509 459 509 459 470 451 c 128,-1,4
 431 443 431 443 385 449 c 1,5,6
 396 422 396 422 411 373.5 c 128,-1,7
 426 325 426 325 440 270 c 128,-1,8
 454 215 454 215 463.5 162 c 128,-1,9
 473 109 473 109 473 74 c 0,10,11
 473 18 473 18 469.5 -34 c 128,-1,12
 466 -86 466 -86 457 -129 c 0,13,14
 457 -131 457 -131 453 -133 c 128,-1,15
 449 -135 449 -135 444 -135 c 0,16,17
 430 -135 430 -135 430 -129 c 0,18,19
 424 -11 424 -11 401 88.5 c 128,-1,20
 378 188 378 188 347.5 268 c 128,-1,21
 317 348 317 348 283 409 c 128,-1,22
 249 470 249 470 220.5 511 c 128,-1,23
 192 552 192 552 173 574 c 128,-1,24
 154 596 154 596 154 598 c 0,25,26
 154 601 154 601 160.5 623 c 128,-1,27
 167 645 167 645 175.5 670.5 c 128,-1,28
 184 696 184 696 192 716.5 c 128,-1,29
 200 737 200 737 203 737 c 256,30,31
 206 737 206 737 214.5 726 c 128,-1,32
 223 715 223 715 237 698.5 c 128,-1,33
 251 682 251 682 270.5 662.5 c 128,-1,34
 290 643 290 643 314.5 626.5 c 128,-1,35
 339 610 339 610 367.5 599 c 128,-1,36
 396 588 396 588 428 588 c 0,37,38
 452 588 452 588 476.5 596.5 c 128,-1,39
 501 605 501 605 521.5 622 c 128,-1,40
 542 639 542 639 554.5 664 c 128,-1,41
 567 689 567 689 567 721 c 0,42,43
 567 727 567 727 570.5 728 c 128,-1,44
 574 729 574 729 584 729 c 0,45,46
 596 729 596 729 596 727.5 c 128,-1,47
 596 726 596 726 596 723 c 0,48,49
 598 706 598 706 598 689.5 c 128,-1,50
 598 673 598 673 598 639 c 0,0,1
EndSplineSet
Substitution2: "Single Substitution lookup 22 subtable" uni0662.Small
Substitution2: "Single Substitution lookup 21 subtable" uni0662.Medium
EndChar
StartChar: uni0668
Encoding: 1640 1640 987
Width: 801
GlyphClass: 2
Flags: W
LayerCount: 2
Fore
SplineSet
717 68 m 0,0,1
 717 63 717 63 713 36 c 128,-1,2
 709 9 709 9 709 -25 c 0,3,4
 709 -36 709 -36 708.5 -51.5 c 128,-1,5
 708 -67 708 -67 707.5 -80.5 c 128,-1,6
 707 -94 707 -94 706.5 -103.5 c 128,-1,7
 706 -113 706 -113 705 -113 c 0,8,9
 703 -113 703 -113 691 -106 c 128,-1,10
 679 -99 679 -99 663 -87.5 c 128,-1,11
 647 -76 647 -76 631 -62 c 128,-1,12
 615 -48 615 -48 606 -33 c 0,13,14
 575 12 575 12 544 76.5 c 128,-1,15
 513 141 513 141 484.5 216 c 128,-1,16
 456 291 456 291 431.5 371 c 128,-1,17
 407 451 407 451 389 526 c 1,18,19
 366 397 366 397 338.5 299 c 128,-1,20
 311 201 311 201 283 129 c 128,-1,21
 255 57 255 57 229.5 9.5 c 128,-1,22
 204 -38 204 -38 184 -66 c 0,23,24
 179 -74 179 -74 170 -83.5 c 128,-1,25
 161 -93 161 -93 151.5 -102 c 128,-1,26
 142 -111 142 -111 133 -117 c 128,-1,27
 124 -123 124 -123 119 -123 c 0,28,29
 111 -123 111 -123 111 -113 c 0,30,31
 111 -110 111 -110 111 -94 c 128,-1,32
 111 -78 111 -78 113 -49 c 0,33,34
 115 -3 115 -3 114 26 c 128,-1,35
 113 55 113 55 113 63 c 0,36,37
 113 65 113 65 125.5 72 c 128,-1,38
 138 79 138 79 159.5 101 c 128,-1,39
 181 123 181 123 208 164 c 128,-1,40
 235 205 235 205 264.5 276 c 128,-1,41
 294 347 294 347 322.5 452.5 c 128,-1,42
 351 558 351 558 375 707 c 0,43,44
 375 712 375 712 377.5 713.5 c 128,-1,45
 380 715 380 715 389 715 c 0,46,47
 403 715 403 715 403 709 c 0,48,49
 435 560 435 560 472 454 c 128,-1,50
 509 348 509 348 548.5 277 c 128,-1,51
 588 206 588 206 628.5 164 c 128,-1,52
 669 122 669 122 707 100 c 0,53,54
 713 97 713 97 715 88 c 128,-1,55
 717 79 717 79 717 68 c 0,0,1
EndSplineSet
Substitution2: "Single Substitution lookup 22 subtable" uni0668.Small
Substitution2: "Single Substitution lookup 21 subtable" uni0668.Medium
EndChar
StartChar: uni0669
Encoding: 1641 1641 988
Width: 801
GlyphClass: 2
Flags: W
LayerCount: 2
Fore
SplineSet
649 45 m 256,0,1
 649 40 649 40 646.5 18 c 128,-1,2
 644 -4 644 -4 639 -35 c 0,3,4
 637 -49 637 -49 635.5 -68.5 c 128,-1,5
 634 -88 634 -88 633 -106 c 128,-1,6
 632 -124 632 -124 630.5 -137 c 128,-1,7
 629 -150 629 -150 627 -150 c 0,8,9
 622 -150 622 -150 612.5 -145.5 c 128,-1,10
 603 -141 603 -141 591 -129.5 c 128,-1,11
 579 -118 579 -118 567 -100 c 128,-1,12
 555 -82 555 -82 545 -55 c 0,13,14
 539 -39 539 -39 532.5 -11 c 128,-1,15
 526 17 526 17 519.5 51.5 c 128,-1,16
 513 86 513 86 507 125.5 c 128,-1,17
 501 165 501 165 496 203.5 c 128,-1,18
 491 242 491 242 487 277 c 128,-1,19
 483 312 483 312 481 338 c 1,20,21
 468 326 468 326 447 314.5 c 128,-1,22
 426 303 426 303 403 294 c 128,-1,23
 380 285 380 285 359 279.5 c 128,-1,24
 338 274 338 274 324 274 c 0,25,26
 286 274 286 274 258 286 c 128,-1,27
 230 298 230 298 211 318 c 128,-1,28
 192 338 192 338 183 363.5 c 128,-1,29
 174 389 174 389 174 416 c 0,30,31
 174 459 174 459 184.5 495.5 c 128,-1,32
 195 532 195 532 215 580 c 0,33,34
 233 621 233 621 249.5 649.5 c 128,-1,35
 266 678 266 678 286.5 696 c 128,-1,36
 307 714 307 714 333 722.5 c 128,-1,37
 359 731 359 731 395 731 c 0,38,39
 434 731 434 731 456 714.5 c 128,-1,40
 478 698 478 698 490 671 c 128,-1,41
 502 644 502 644 507 610 c 128,-1,42
 512 576 512 576 516 541 c 0,43,44
 519 516 519 516 523.5 467 c 128,-1,45
 528 418 528 418 534.5 360.5 c 128,-1,46
 541 303 541 303 549.5 245 c 128,-1,47
 558 187 558 187 569 143 c 0,48,49
 579 106 579 106 593 88 c 128,-1,50
 607 70 607 70 619.5 62.5 c 128,-1,51
 632 55 632 55 640.5 52.5 c 128,-1,52
 649 50 649 50 649 45 c 256,0,1
461 465 m 0,53,54
 461 486 461 486 454.5 507 c 128,-1,55
 448 528 448 528 434 544 c 128,-1,56
 420 560 420 560 399.5 570 c 128,-1,57
 379 580 379 580 350 580 c 0,58,59
 320 580 320 580 296.5 571.5 c 128,-1,60
 273 563 273 563 257.5 550.5 c 128,-1,61
 242 538 242 538 233.5 524.5 c 128,-1,62
 225 511 225 511 225 500 c 0,63,64
 225 488 225 488 232 474 c 128,-1,65
 239 460 239 460 254 447.5 c 128,-1,66
 269 435 269 435 292.5 426.5 c 128,-1,67
 316 418 316 418 348 418 c 0,68,69
 361 418 361 418 380.5 423 c 128,-1,70
 400 428 400 428 418 435.5 c 128,-1,71
 436 443 436 443 448.5 451 c 128,-1,72
 461 459 461 459 461 465 c 0,53,54
EndSplineSet
Substitution2: "Single Substitution lookup 22 subtable" uni0669.Small
Substitution2: "Single Substitution lookup 21 subtable" uni0669.Medium
EndChar
StartChar: uni066A
Encoding: 1642 1642 965
Width: 913
GlyphClass: 2
Flags: W
LayerCount: 2
Fore
SplineSet
283 852 m 0,0,1
 283 834 283 834 276 818.5 c 128,-1,2
 269 803 269 803 257 791.5 c 128,-1,3
 245 780 245 780 229 773 c 128,-1,4
 213 766 213 766 195 766 c 256,5,6
 177 766 177 766 161 773 c 128,-1,7
 145 780 145 780 132.5 791.5 c 128,-1,8
 120 803 120 803 113 818.5 c 128,-1,9
 106 834 106 834 106 852 c 256,10,11
 106 870 106 870 113 886 c 128,-1,12
 120 902 120 902 132.5 914 c 128,-1,13
 145 926 145 926 161 933 c 128,-1,14
 177 940 177 940 195 940 c 0,15,16
 232 940 232 940 257.5 914.5 c 128,-1,17
 283 889 283 889 283 852 c 0,0,1
246 -252 m 1,18,-1
 174 -252 l 1,19,-1
 659 1020 l 1,20,-1
 729 1020 l 1,21,-1
 246 -252 l 1,18,-1
807 -76 m 0,22,23
 807 -113 807 -113 781.5 -138.5 c 128,-1,24
 756 -164 756 -164 719 -164 c 0,25,26
 701 -164 701 -164 685.5 -157 c 128,-1,27
 670 -150 670 -150 658.5 -138 c 128,-1,28
 647 -126 647 -126 640 -110 c 128,-1,29
 633 -94 633 -94 633 -76 c 256,30,31
 633 -58 633 -58 640 -42.5 c 128,-1,32
 647 -27 647 -27 658.5 -15.5 c 128,-1,33
 670 -4 670 -4 685.5 3 c 128,-1,34
 701 10 701 10 719 10 c 256,35,36
 737 10 737 10 753 3 c 128,-1,37
 769 -4 769 -4 781 -15.5 c 128,-1,38
 793 -27 793 -27 800 -42.5 c 128,-1,39
 807 -58 807 -58 807 -76 c 0,22,23
EndSplineSet
EndChar
StartChar: uni066B
Encoding: 1643 1643 966
Width: 553
GlyphClass: 2
Flags: W
LayerCount: 2
Fore
SplineSet
473 100 m 0,0,1
 473 -7 473 -7 442.5 -79 c 128,-1,2
 412 -151 412 -151 352 -205 c 0,3,4
 327 -228 327 -228 284.5 -239 c 128,-1,5
 242 -250 242 -250 197 -250 c 0,6,7
 170 -250 170 -250 147 -243 c 128,-1,8
 124 -236 124 -236 107.5 -227.5 c 128,-1,9
 91 -219 91 -219 81.5 -211 c 128,-1,10
 72 -203 72 -203 72 -201 c 0,11,12
 72 -196 72 -196 74.5 -192 c 128,-1,13
 77 -188 77 -188 80 -188 c 2,14,-1
 150 -188 l 2,15,16
 177 -188 177 -188 205.5 -178 c 128,-1,17
 234 -168 234 -168 260.5 -152 c 128,-1,18
 287 -136 287 -136 311 -115 c 128,-1,19
 335 -94 335 -94 354 -72 c 0,20,21
 379 -45 379 -45 393.5 -28 c 128,-1,22
 408 -11 408 -11 415.5 2 c 128,-1,23
 423 15 423 15 425.5 27 c 128,-1,24
 428 39 428 39 428 57 c 0,25,26
 428 71 428 71 417.5 90.5 c 128,-1,27
 407 110 407 110 395 129.5 c 128,-1,28
 383 149 383 149 372.5 166.5 c 128,-1,29
 362 184 362 184 362 193 c 0,30,31
 362 200 362 200 370 218.5 c 128,-1,32
 378 237 378 237 388 257.5 c 128,-1,33
 398 278 398 278 407.5 294.5 c 128,-1,34
 417 311 417 311 420 313 c 1,35,36
 434 284 434 284 444 259.5 c 128,-1,37
 454 235 454 235 460.5 210.5 c 128,-1,38
 467 186 467 186 470 159.5 c 128,-1,39
 473 133 473 133 473 100 c 0,0,1
EndSplineSet
EndChar
StartChar: uni066D
Encoding: 1645 1645 968
Width: 887
GlyphClass: 2
Flags: W
AnchorPoint: "Anchor-4" 420 -120 basechar 0
AnchorPoint: "Anchor-1" 435 990 basechar 0
LayerCount: 2
Fore
SplineSet
444 334 m 1,0,-1
 213 154 l 1,1,-1
 313 428 l 1,2,-1
 70 592 l 1,3,-1
 362 582 l 1,4,-1
 444 864 l 1,5,-1
 524 584 l 1,6,-1
 817 592 l 1,7,-1
 573 428 l 1,8,-1
 674 154 l 1,9,-1
 444 334 l 1,0,-1
EndSplineSet
EndChar
StartChar: uni0670
Encoding: 1648 1648 924
Width: 0
GlyphClass: 4
Flags: W
AnchorPoint: "Anchor-3" 180 1230 basemark 0
AnchorPoint: "Anchor-3" 180 660 mark 0
AnchorPoint: "Anchor-2" 180 630 mark 0
AnchorPoint: "Anchor-1" 180 660 mark 0
LayerCount: 2
Fore
SplineSet
197 999 m 1,0,-1
 213 807 l 2,1,2
 213 797 213 797 210.5 769.5 c 128,-1,3
 208 742 208 742 204 713 c 128,-1,4
 200 684 200 684 195 661.5 c 128,-1,5
 190 639 190 639 184 639 c 0,6,7
 168 639 168 639 168 651 c 2,8,-1
 168 709 l 2,9,10
 168 744 168 744 164 779.5 c 128,-1,11
 160 815 160 815 154.5 848 c 128,-1,12
 149 881 149 881 145 908 c 128,-1,13
 141 935 141 935 141 952 c 0,14,15
 141 970 141 970 146.5 996.5 c 128,-1,16
 152 1023 152 1023 159.5 1047.5 c 128,-1,17
 167 1072 167 1072 175 1090 c 128,-1,18
 183 1108 183 1108 188 1110 c 0,19,20
 190 1107 190 1107 191.5 1098.5 c 128,-1,21
 193 1090 193 1090 194.5 1080 c 128,-1,22
 196 1070 196 1070 196.5 1060 c 128,-1,23
 197 1050 197 1050 197 1044 c 2,24,-1
 197 999 l 1,0,-1
EndSplineSet
Substitution2: "Single Substitution lookup 23 subtable" uni0670.large
EndChar
StartChar: uni06AA
Encoding: 1706 1706 410
Width: 1622
GlyphClass: 2
Flags: W
AnchorPoint: "Anchor-4" 600 -210 basechar 0
AnchorPoint: "Anchor-1" 390 1000 basechar 0
LayerCount: 2
Fore
SplineSet
1405 467 m 2,0,1
 1435 467 1435 467 1461.5 459.5 c 128,-1,2
 1488 452 1488 452 1507.5 435 c 128,-1,3
 1527 418 1527 418 1538.5 391 c 128,-1,4
 1550 364 1550 364 1550 326 c 0,5,6
 1550 251 1550 251 1518.5 190.5 c 128,-1,7
 1487 130 1487 130 1432.5 87.5 c 128,-1,8
 1378 45 1378 45 1304.5 22.5 c 128,-1,9
 1231 0 1231 0 1147 0 c 2,10,-1
 489 0 l 2,11,12
 341 0 341 0 226 27.5 c 128,-1,13
 111 55 111 55 25 106 c 0,14,15
 19 111 19 111 16.5 116 c 128,-1,16
 14 121 14 121 14 125 c 0,17,18
 14 132 14 132 20 136 c 0,19,20
 23 138 23 138 25 139 c 2,21,-1
 233 125 l 1,22,-1
 1223 125 l 2,23,24
 1279 125 1279 125 1325.5 135.5 c 128,-1,25
 1372 146 1372 146 1405 163 c 128,-1,26
 1438 180 1438 180 1456.5 202.5 c 128,-1,27
 1475 225 1475 225 1475 250 c 0,28,29
 1475 278 1475 278 1465 295.5 c 128,-1,30
 1455 313 1455 313 1438.5 323.5 c 128,-1,31
 1422 334 1422 334 1399.5 338 c 128,-1,32
 1377 342 1377 342 1352 342 c 2,33,-1
 373 342 l 2,34,35
 348 342 348 342 326 351 c 128,-1,36
 304 360 304 360 287 377.5 c 128,-1,37
 270 395 270 395 260 421.5 c 128,-1,38
 250 448 250 448 250 483 c 0,39,40
 250 535 250 535 269 583.5 c 128,-1,41
 288 632 288 632 320 675 c 128,-1,42
 352 718 352 718 394.5 753.5 c 128,-1,43
 437 789 437 789 483.5 814.5 c 128,-1,44
 530 840 530 840 577.5 854 c 128,-1,45
 625 868 625 868 668 868 c 0,46,47
 681 868 681 868 696 861.5 c 128,-1,48
 711 855 711 855 724 844.5 c 128,-1,49
 737 834 737 834 746 820.5 c 128,-1,50
 755 807 755 807 756 793 c 0,51,52
 756 790 756 790 744.5 775 c 128,-1,53
 733 760 733 760 719.5 741.5 c 128,-1,54
 706 723 706 723 694 706 c 128,-1,55
 682 689 682 689 680 682 c 1,56,57
 674 705 674 705 656 714 c 128,-1,58
 638 723 638 723 606 723 c 0,59,60
 561 723 561 723 513.5 707.5 c 128,-1,61
 466 692 466 692 427 666 c 128,-1,62
 388 640 388 640 363 606.5 c 128,-1,63
 338 573 338 573 338 537 c 0,64,65
 338 505 338 505 363 486 c 128,-1,66
 388 467 388 467 422 467 c 2,67,-1
 1405 467 l 2,0,1
EndSplineSet
Substitution2: "'medi' Medial Forms in Arabic lookup 3 subtable" uni06AA.medi
Substitution2: "'fina' Terminal Forms in Arabic lookup 2 subtable" uni06AA.fina
Substitution2: "'init' Initial Forms in Arabic lookup 1 subtable" uni06AA.init
EndChar
StartChar: uni06BE
Encoding: 1726 1726 431
Width: 774
GlyphClass: 2
Flags: W
AnchorPoint: "Anchor-4" 300 -195 basechar 0
AnchorPoint: "Anchor-1" 360 855 basechar 0
LayerCount: 2
Fore
SplineSet
692 213 m 0,0,1
 692 148 692 148 670.5 112 c 128,-1,2
 649 76 649 76 596 76 c 0,3,4
 536 76 536 76 473.5 94 c 128,-1,5
 411 112 411 112 348 133 c 1,6,7
 299 91 299 91 246.5 62 c 128,-1,8
 194 33 194 33 152 33 c 0,9,10
 72 33 72 33 37 47.5 c 128,-1,11
 2 62 2 62 2 72 c 0,12,13
 2 78 2 78 8.5 82 c 128,-1,14
 15 86 15 86 20 86 c 0,15,16
 24 86 24 86 42 84 c 128,-1,17
 60 82 60 82 76 82 c 0,18,19
 93 82 93 82 115 89 c 128,-1,20
 137 96 137 96 160 108 c 128,-1,21
 183 120 183 120 206.5 135.5 c 128,-1,22
 230 151 230 151 250 168 c 1,23,24
 216 180 216 180 206.5 198 c 128,-1,25
 197 216 197 216 197 233 c 0,26,27
 197 258 197 258 209 289 c 128,-1,28
 221 320 221 320 238 351.5 c 128,-1,29
 255 383 255 383 273.5 411 c 128,-1,30
 292 439 292 439 305 457 c 1,31,32
 294 460 294 460 285 460.5 c 128,-1,33
 276 461 276 461 266 461 c 0,34,35
 260 461 260 461 256 466.5 c 128,-1,36
 252 472 252 472 252 477 c 0,37,38
 252 493 252 493 259 514.5 c 128,-1,39
 266 536 266 536 278.5 555.5 c 128,-1,40
 291 575 291 575 307.5 588.5 c 128,-1,41
 324 602 324 602 342 602 c 0,42,43
 367 602 367 602 402.5 583.5 c 128,-1,44
 438 565 438 565 477 534 c 128,-1,45
 516 503 516 503 554.5 463 c 128,-1,46
 593 423 593 423 623.5 380 c 128,-1,47
 654 337 654 337 673 293.5 c 128,-1,48
 692 250 692 250 692 213 c 0,0,1
651 186 m 1,49,50
 641 208 641 208 621.5 235.5 c 128,-1,51
 602 263 602 263 578 289 c 128,-1,52
 554 315 554 315 529 337 c 128,-1,53
 504 359 504 359 481 369 c 1,54,55
 474 350 474 350 468.5 330 c 128,-1,56
 463 310 463 310 457.5 290.5 c 128,-1,57
 452 271 452 271 444 252.5 c 128,-1,58
 436 234 436 234 424 217 c 1,59,60
 435 213 435 213 464.5 206 c 128,-1,61
 494 199 494 199 527.5 193 c 128,-1,62
 561 187 561 187 591.5 182.5 c 128,-1,63
 622 178 622 178 635 178 c 0,64,65
 646 178 646 178 651 186 c 1,49,50
424 315 m 256,66,67
 424 324 424 324 418 338.5 c 128,-1,68
 412 353 412 353 403 366.5 c 128,-1,69
 394 380 394 380 382.5 389.5 c 128,-1,70
 371 399 371 399 360 399 c 0,71,72
 347 399 347 399 330 388.5 c 128,-1,73
 313 378 313 378 298.5 363 c 128,-1,74
 284 348 284 348 274 330.5 c 128,-1,75
 264 313 264 313 264 299 c 0,76,77
 264 283 264 283 273.5 274 c 128,-1,78
 283 265 283 265 297 258.5 c 128,-1,79
 311 252 311 252 326.5 247 c 128,-1,80
 342 242 342 242 354 233 c 1,81,82
 363 234 363 234 375.5 243.5 c 128,-1,83
 388 253 388 253 398.5 266 c 128,-1,84
 409 279 409 279 416.5 292.5 c 128,-1,85
 424 306 424 306 424 315 c 256,66,67
EndSplineSet
Substitution2: "'medi' Medial Forms in Arabic lookup 3 subtable" uni06BE.medi
Substitution2: "'fina' Terminal Forms in Arabic lookup 2 subtable" uni06BE.fina
Substitution2: "'init' Initial Forms in Arabic lookup 1 subtable" uni06BE.init
EndChar
StartChar: uni06D2
Encoding: 1746 1746 308
Width: 1481
GlyphClass: 2
Flags: W
AnchorPoint: "Anchor-4" 500 -400 basechar 0
AnchorPoint: "Anchor-1" 345 645 basechar 0
LayerCount: 2
Fore
SplineSet
1432 -117 m 0,0,1
 1432 -120 1432 -120 1409 -132 c 128,-1,2
 1386 -144 1386 -144 1344 -160 c 128,-1,3
 1302 -176 1302 -176 1243.5 -193 c 128,-1,4
 1185 -210 1185 -210 1114 -223 c 0,5,6
 1052 -235 1052 -235 982.5 -241.5 c 128,-1,7
 913 -248 913 -248 850 -251 c 128,-1,8
 787 -254 787 -254 738 -255 c 128,-1,9
 689 -256 689 -256 668 -256 c 0,10,11
 639 -256 639 -256 591.5 -255.5 c 128,-1,12
 544 -255 544 -255 487.5 -253 c 128,-1,13
 431 -251 431 -251 370.5 -247 c 128,-1,14
 310 -243 310 -243 254.5 -235 c 128,-1,15
 199 -227 199 -227 154 -215.5 c 128,-1,16
 109 -204 109 -204 84 -186 c 0,17,18
 75 -180 75 -180 69.5 -168 c 128,-1,19
 64 -156 64 -156 62 -142 c 128,-1,20
 60 -128 60 -128 59.5 -114 c 128,-1,21
 59 -100 59 -100 59 -90 c 0,22,23
 59 -60 59 -60 77 -26.5 c 128,-1,24
 95 7 95 7 123.5 40.5 c 128,-1,25
 152 74 152 74 188.5 106.5 c 128,-1,26
 225 139 225 139 262.5 166 c 128,-1,27
 300 193 300 193 335 214 c 128,-1,28
 370 235 370 235 395 246 c 0,29,30
 443 266 443 266 493.5 284.5 c 128,-1,31
 544 303 544 303 590 328.5 c 128,-1,32
 636 354 636 354 674 389 c 128,-1,33
 712 424 712 424 735 477 c 0,34,35
 741 491 741 491 753.5 519.5 c 128,-1,36
 766 548 766 548 782 577 c 128,-1,37
 798 606 798 606 815.5 627.5 c 128,-1,38
 833 649 833 649 850 649 c 0,39,40
 869 649 869 649 884 634 c 128,-1,41
 899 619 899 619 910 595.5 c 128,-1,42
 921 572 921 572 928.5 543 c 128,-1,43
 936 514 936 514 941 485.5 c 128,-1,44
 946 457 946 457 948 432.5 c 128,-1,45
 950 408 950 408 950 393 c 256,46,47
 950 378 950 378 945 357.5 c 128,-1,48
 940 337 940 337 928 326 c 1,49,50
 920 335 920 335 916 351 c 128,-1,51
 912 367 912 367 909.5 386 c 128,-1,52
 907 405 907 405 903.5 425 c 128,-1,53
 900 445 900 445 893 461 c 128,-1,54
 886 477 886 477 873 487.5 c 128,-1,55
 860 498 860 498 838 498 c 0,56,57
 813 498 813 498 794 479 c 128,-1,58
 775 460 775 460 757 430.5 c 128,-1,59
 739 401 739 401 719 363.5 c 128,-1,60
 699 326 699 326 673 289.5 c 128,-1,61
 647 253 647 253 612 220 c 128,-1,62
 577 187 577 187 528 166 c 0,63,64
 507 157 507 157 485.5 147 c 128,-1,65
 464 137 464 137 442 131 c 0,66,67
 425 126 425 126 394.5 119.5 c 128,-1,68
 364 113 364 113 329 104 c 128,-1,69
 294 95 294 95 257.5 83.5 c 128,-1,70
 221 72 221 72 191.5 56.5 c 128,-1,71
 162 41 162 41 143.5 22.5 c 128,-1,72
 125 4 125 4 125 -20 c 0,73,74
 125 -38 125 -38 154.5 -52.5 c 128,-1,75
 184 -67 184 -67 236.5 -77.5 c 128,-1,76
 289 -88 289 -88 360.5 -95 c 128,-1,77
 432 -102 432 -102 516 -106.5 c 128,-1,78
 600 -111 600 -111 693 -113 c 128,-1,79
 786 -115 786 -115 881 -115 c 0,80,81
 1001 -115 1001 -115 1097 -112.5 c 128,-1,82
 1193 -110 1193 -110 1261 -107.5 c 128,-1,83
 1329 -105 1329 -105 1368.5 -102.5 c 128,-1,84
 1408 -100 1408 -100 1415 -100 c 0,85,86
 1421 -100 1421 -100 1426.5 -105.5 c 128,-1,87
 1432 -111 1432 -111 1432 -117 c 0,0,1
EndSplineSet
Substitution2: "'fina' Terminal Forms in Arabic lookup 2 subtable" uni06D2.fina
EndChar
StartChar: uni06D7
Encoding: 1751 1751 927
Width: 0
GlyphClass: 4
Flags: W
AnchorPoint: "Anchor-3" -15 915 mark 0
AnchorPoint: "Anchor-1" -15 915 mark 0
LayerCount: 2
Fore
SplineSet
201 1634 m 0,0,1
 201 1632 201 1632 196.5 1624 c 128,-1,2
 192 1616 192 1616 186 1607.5 c 128,-1,3
 180 1599 180 1599 175 1592 c 128,-1,4
 170 1585 170 1585 168 1585 c 256,5,6
 166 1585 166 1585 159.5 1590 c 128,-1,7
 153 1595 153 1595 145 1601 c 0,8,9
 136 1608 136 1608 125 1616 c 0,10,11
 121 1618 121 1618 119 1614 c 0,12,13
 111 1604 111 1604 105 1595 c 0,14,15
 100 1587 100 1587 95 1581 c 128,-1,16
 90 1575 90 1575 88 1575 c 0,17,18
 87 1575 87 1575 79.5 1580 c 128,-1,19
 72 1585 72 1585 64 1591 c 128,-1,20
 56 1597 56 1597 49.5 1603 c 128,-1,21
 43 1609 43 1609 43 1610 c 0,22,23
 43 1612 43 1612 47.5 1619.5 c 128,-1,24
 52 1627 52 1627 58 1636 c 128,-1,25
 64 1645 64 1645 69.5 1652 c 128,-1,26
 75 1659 75 1659 76 1659 c 0,27,28
 78 1659 78 1659 84.5 1654.5 c 128,-1,29
 91 1650 91 1650 99 1644 c 0,30,31
 108 1637 108 1637 117 1628 c 0,32,33
 120 1626 120 1626 121 1625.5 c 128,-1,34
 122 1625 122 1625 125 1630 c 2,35,-1
 139 1650 l 2,36,37
 144 1658 144 1658 149 1663.5 c 128,-1,38
 154 1669 154 1669 156 1669 c 256,39,40
 158 1669 158 1669 165 1664 c 128,-1,41
 172 1659 172 1659 180 1652.5 c 128,-1,42
 188 1646 188 1646 194.5 1640.5 c 128,-1,43
 201 1635 201 1635 201 1634 c 0,0,1
317 1092 m 0,44,45
 317 1090 317 1090 302 1084 c 128,-1,46
 287 1078 287 1078 265 1070 c 128,-1,47
 243 1062 243 1062 218 1054 c 128,-1,48
 193 1046 193 1046 172 1040 c 0,49,50
 157 1036 157 1036 131.5 1033.5 c 128,-1,51
 106 1031 106 1031 77 1029.5 c 128,-1,52
 48 1028 48 1028 19.5 1027 c 128,-1,53
 -9 1026 -9 1026 -31 1026 c 0,54,55
 -59 1026 -59 1026 -98.5 1027.5 c 128,-1,56
 -138 1029 -138 1029 -178 1033 c 128,-1,57
 -218 1037 -218 1037 -253 1043.5 c 128,-1,58
 -288 1050 -288 1050 -307 1059 c 0,59,60
 -318 1064 -318 1064 -321 1080.5 c 128,-1,61
 -324 1097 -324 1097 -324 1108 c 0,62,63
 -324 1120 -324 1120 -321.5 1131 c 128,-1,64
 -319 1142 -319 1142 -311.5 1154.5 c 128,-1,65
 -304 1167 -304 1167 -290 1181 c 128,-1,66
 -276 1195 -276 1195 -252 1212 c 0,67,68
 -221 1235 -221 1235 -188 1245.5 c 128,-1,69
 -155 1256 -155 1256 -121 1270 c 0,70,71
 -102 1276 -102 1276 -92 1298 c 128,-1,72
 -82 1320 -82 1320 -82 1346 c 0,73,74
 -82 1443 -82 1443 -91 1525 c 128,-1,75
 -100 1607 -100 1607 -100 1667 c 0,76,77
 -100 1670 -100 1670 -99.5 1677.5 c 128,-1,78
 -99 1685 -99 1685 -97.5 1693.5 c 128,-1,79
 -96 1702 -96 1702 -93.5 1708 c 128,-1,80
 -91 1714 -91 1714 -86 1714 c 0,81,82
 -78 1714 -78 1714 -73 1704 c 128,-1,83
 -68 1694 -68 1694 -68 1677 c 0,84,85
 -67 1647 -67 1647 -64.5 1602.5 c 128,-1,86
 -62 1558 -62 1558 -58.5 1511.5 c 128,-1,87
 -55 1465 -55 1465 -51.5 1423.5 c 128,-1,88
 -48 1382 -48 1382 -45 1358 c 0,89,90
 -43 1335 -43 1335 -39.5 1317.5 c 128,-1,91
 -36 1300 -36 1300 -28.5 1288 c 128,-1,92
 -21 1276 -21 1276 -8 1270 c 128,-1,93
 5 1264 5 1264 27 1264 c 0,94,95
 37 1264 37 1264 65 1267 c 128,-1,96
 93 1270 93 1270 123 1276.5 c 128,-1,97
 153 1283 153 1283 176 1294.5 c 128,-1,98
 199 1306 199 1306 199 1323 c 0,99,100
 199 1331 199 1331 192.5 1341.5 c 128,-1,101
 186 1352 186 1352 180 1360 c 1,102,103
 173 1343 173 1343 158.5 1325 c 128,-1,104
 144 1307 144 1307 115 1307 c 0,105,106
 84 1307 84 1307 75 1325 c 128,-1,107
 66 1343 66 1343 66 1368 c 0,108,109
 66 1376 66 1376 70.5 1396.5 c 128,-1,110
 75 1417 75 1417 83.5 1438.5 c 128,-1,111
 92 1460 92 1460 104 1476.5 c 128,-1,112
 116 1493 116 1493 131 1493 c 0,113,114
 142 1493 142 1493 157 1479.5 c 128,-1,115
 172 1466 172 1466 186 1443.5 c 128,-1,116
 200 1421 200 1421 209.5 1393.5 c 128,-1,117
 219 1366 219 1366 219 1337 c 0,118,119
 219 1320 219 1320 214 1297.5 c 128,-1,120
 209 1275 209 1275 195 1260 c 0,121,122
 180 1242 180 1242 160 1230.5 c 128,-1,123
 140 1219 140 1219 117 1212 c 128,-1,124
 94 1205 94 1205 71 1202.5 c 128,-1,125
 48 1200 48 1200 27 1200 c 0,126,127
 4 1200 4 1200 -12 1206 c 128,-1,128
 -28 1212 -28 1212 -39.5 1224 c 128,-1,129
 -51 1236 -51 1236 -58.5 1253 c 128,-1,130
 -66 1270 -66 1270 -72 1292 c 1,131,132
 -84 1265 -84 1265 -97.5 1247 c 128,-1,133
 -111 1229 -111 1229 -125 1218 c 128,-1,134
 -139 1207 -139 1207 -154.5 1201.5 c 128,-1,135
 -170 1196 -170 1196 -186 1192 c 0,136,137
 -195 1189 -195 1189 -213 1184.5 c 128,-1,138
 -231 1180 -231 1180 -248 1173.5 c 128,-1,139
 -265 1167 -265 1167 -278 1158.5 c 128,-1,140
 -291 1150 -291 1150 -291 1139 c 0,141,142
 -291 1125 -291 1125 -277.5 1119.5 c 128,-1,143
 -264 1114 -264 1114 -250 1112 c 0,144,145
 -211 1108 -211 1108 -172.5 1104.5 c 128,-1,146
 -134 1101 -134 1101 -92.5 1098.5 c 128,-1,147
 -51 1096 -51 1096 -3 1095 c 128,-1,148
 45 1094 45 1094 104 1094 c 0,149,150
 130 1094 130 1094 164 1095 c 128,-1,151
 198 1096 198 1096 229 1097 c 128,-1,152
 260 1098 260 1098 283 1099 c 128,-1,153
 306 1100 306 1100 309 1100 c 0,154,155
 315 1100 315 1100 316 1098.5 c 128,-1,156
 317 1097 317 1097 317 1092 c 0,44,45
147 1397 m 0,157,158
 147 1399 147 1399 143 1402 c 128,-1,159
 139 1405 139 1405 134 1408.5 c 128,-1,160
 129 1412 129 1412 123.5 1414.5 c 128,-1,161
 118 1417 118 1417 115 1417 c 0,162,163
 108 1417 108 1417 103 1411.5 c 128,-1,164
 98 1406 98 1406 98 1401 c 0,165,166
 98 1395 98 1395 104 1386.5 c 128,-1,167
 110 1378 110 1378 121 1378 c 0,168,169
 127 1378 127 1378 137 1385 c 128,-1,170
 147 1392 147 1392 147 1397 c 0,157,158
EndSplineSet
EndChar
StartChar: uni06D9
Encoding: 1753 1753 929
Width: 0
GlyphClass: 4
Flags: W
AnchorPoint: "Anchor-3" -15 915 mark 0
AnchorPoint: "Anchor-1" -15 915 mark 0
LayerCount: 2
Fore
SplineSet
147 1516 m 1,0,1
 126 1499 126 1499 121.5 1470.5 c 128,-1,2
 117 1442 117 1442 117 1399 c 0,3,4
 117 1374 117 1374 114 1344 c 128,-1,5
 111 1314 111 1314 105 1281 c 128,-1,6
 99 1248 99 1248 91 1214.5 c 128,-1,7
 83 1181 83 1181 72 1149 c 1,8,9
 75 1142 75 1142 79 1130.5 c 128,-1,10
 83 1119 83 1119 86 1106.5 c 128,-1,11
 89 1094 89 1094 91.5 1083 c 128,-1,12
 94 1072 94 1072 94 1065 c 0,13,14
 94 1061 94 1061 90 1049.5 c 128,-1,15
 86 1038 86 1038 78.5 1026.5 c 128,-1,16
 71 1015 71 1015 61.5 1006 c 128,-1,17
 52 997 52 997 41 997 c 2,18,-1
 -86 997 l 2,19,20
 -88 997 -88 997 -89.5 1008.5 c 128,-1,21
 -91 1020 -91 1020 -91 1033 c 0,22,23
 -91 1044 -91 1044 -90.5 1051.5 c 128,-1,24
 -90 1059 -90 1059 -88 1059 c 0,25,26
 -74 1059 -74 1059 -61 1060.5 c 128,-1,27
 -48 1062 -48 1062 -39 1067 c 0,28,29
 -25 1072 -25 1072 -7.5 1089 c 128,-1,30
 10 1106 10 1106 35 1143 c 1,31,32
 20 1175 20 1175 -1.5 1209 c 128,-1,33
 -23 1243 -23 1243 -48 1276.5 c 128,-1,34
 -73 1310 -73 1310 -100 1341.5 c 128,-1,35
 -127 1373 -127 1373 -154 1401 c 1,36,37
 -156 1398 -156 1398 -164.5 1391 c 128,-1,38
 -173 1384 -173 1384 -176 1384 c 0,39,40
 -178 1384 -178 1384 -183.5 1388.5 c 128,-1,41
 -189 1393 -189 1393 -195.5 1399.5 c 128,-1,42
 -202 1406 -202 1406 -208.5 1413 c 128,-1,43
 -215 1420 -215 1420 -219 1425 c 0,44,45
 -232 1438 -232 1438 -242 1454.5 c 128,-1,46
 -252 1471 -252 1471 -252 1485 c 0,47,48
 -252 1489 -252 1489 -249 1499 c 128,-1,49
 -246 1509 -246 1509 -241.5 1520 c 128,-1,50
 -237 1531 -237 1531 -232.5 1539.5 c 128,-1,51
 -228 1548 -228 1548 -225 1548 c 0,52,53
 -223 1548 -223 1548 -212.5 1539.5 c 128,-1,54
 -202 1531 -202 1531 -197 1526 c 0,55,56
 -109 1443 -109 1443 -49.5 1358.5 c 128,-1,57
 10 1274 10 1274 57 1186 c 1,58,59
 74 1223 74 1223 82 1279.5 c 128,-1,60
 90 1336 90 1336 90 1411 c 0,61,62
 90 1431 90 1431 86 1455.5 c 128,-1,63
 82 1480 82 1480 82 1497 c 0,64,65
 82 1502 82 1502 83 1512 c 128,-1,66
 84 1522 84 1522 87 1534 c 128,-1,67
 90 1546 90 1546 94.5 1556.5 c 128,-1,68
 99 1567 99 1567 106 1571 c 1,69,-1
 147 1516 l 1,0,1
18 1059 m 2,70,71
 30 1060 30 1060 45.5 1063.5 c 128,-1,72
 61 1067 61 1067 61 1073 c 0,73,74
 61 1081 61 1081 59 1090 c 128,-1,75
 57 1099 57 1099 51 1110 c 1,76,77
 43 1098 43 1098 31.5 1084 c 128,-1,78
 20 1070 20 1070 4 1059 c 1,79,-1
 18 1059 l 2,70,71
EndSplineSet
EndChar
StartChar: uni06DA
Encoding: 1754 1754 930
Width: 0
GlyphClass: 4
Flags: W
AnchorPoint: "Anchor-3" -15 915 mark 0
AnchorPoint: "Anchor-1" -15 915 mark 0
LayerCount: 2
Fore
SplineSet
264 1061 m 0,0,1
 264 1060 264 1060 252 1055 c 128,-1,2
 240 1050 240 1050 221.5 1043 c 128,-1,3
 203 1036 203 1036 180.5 1027.5 c 128,-1,4
 158 1019 158 1019 137.5 1012.5 c 128,-1,5
 117 1006 117 1006 101.5 1001.5 c 128,-1,6
 86 997 86 997 80 997 c 0,7,8
 25 997 25 997 -28.5 1006 c 128,-1,9
 -82 1015 -82 1015 -124 1038 c 128,-1,10
 -166 1061 -166 1061 -191.5 1101 c 128,-1,11
 -217 1141 -217 1141 -217 1202 c 0,12,13
 -217 1296 -217 1296 -169 1365 c 128,-1,14
 -121 1434 -121 1434 -41 1481 c 1,15,16
 -46 1485 -46 1485 -57 1487.5 c 128,-1,17
 -68 1490 -68 1490 -80 1491.5 c 128,-1,18
 -92 1493 -92 1493 -103 1494 c 128,-1,19
 -114 1495 -114 1495 -119 1495 c 0,20,21
 -136 1495 -136 1495 -157 1491.5 c 128,-1,22
 -178 1488 -178 1488 -195 1483 c 1,23,24
 -195 1485 -195 1485 -193.5 1491.5 c 128,-1,25
 -192 1498 -192 1498 -190 1505 c 128,-1,26
 -188 1512 -188 1512 -186.5 1518.5 c 128,-1,27
 -185 1525 -185 1525 -184 1528 c 0,28,29
 -183 1533 -183 1533 -174.5 1538 c 128,-1,30
 -166 1543 -166 1543 -153 1548 c 128,-1,31
 -140 1553 -140 1553 -124.5 1556 c 128,-1,32
 -109 1559 -109 1559 -94 1559 c 0,33,34
 -72 1559 -72 1559 -49.5 1556 c 128,-1,35
 -27 1553 -27 1553 -4 1549 c 128,-1,36
 19 1545 19 1545 41.5 1542 c 128,-1,37
 64 1539 64 1539 86 1540 c 0,38,39
 108 1540 108 1540 130 1542 c 128,-1,40
 152 1544 152 1544 174 1544 c 0,41,42
 176 1544 176 1544 180 1543.5 c 128,-1,43
 184 1543 184 1543 184 1540 c 0,44,45
 184 1538 184 1538 181 1530.5 c 128,-1,46
 178 1523 178 1523 173.5 1515 c 128,-1,47
 169 1507 169 1507 165.5 1500.5 c 128,-1,48
 162 1494 162 1494 160 1493 c 0,49,50
 143 1490 143 1490 119 1487 c 128,-1,51
 95 1484 95 1484 74 1481 c 0,52,53
 35 1475 35 1475 -10.5 1457 c 128,-1,54
 -56 1439 -56 1439 -95.5 1409 c 128,-1,55
 -135 1379 -135 1379 -161.5 1338.5 c 128,-1,56
 -188 1298 -188 1298 -188 1247 c 0,57,58
 -188 1189 -188 1189 -159.5 1152 c 128,-1,59
 -131 1115 -131 1115 -87.5 1094 c 128,-1,60
 -44 1073 -44 1073 9 1065 c 128,-1,61
 62 1057 62 1057 111 1057 c 0,62,63
 129 1057 129 1057 150.5 1058.5 c 128,-1,64
 172 1060 172 1060 192.5 1062 c 128,-1,65
 213 1064 213 1064 230.5 1065.5 c 128,-1,66
 248 1067 248 1067 260 1067 c 0,67,68
 262 1067 262 1067 263 1066.5 c 128,-1,69
 264 1066 264 1066 264 1061 c 0,0,1
41 1290 m 0,70,71
 41 1288 41 1288 36.5 1280 c 128,-1,72
 32 1272 32 1272 26 1263.5 c 128,-1,73
 20 1255 20 1255 15 1248 c 128,-1,74
 10 1241 10 1241 8 1241 c 0,75,76
 7 1241 7 1241 -0.5 1245.5 c 128,-1,77
 -8 1250 -8 1250 -16 1256 c 128,-1,78
 -24 1262 -24 1262 -30.5 1267.5 c 128,-1,79
 -37 1273 -37 1273 -37 1274 c 0,80,81
 -37 1276 -37 1276 -32.5 1284 c 128,-1,82
 -28 1292 -28 1292 -22 1300.5 c 128,-1,83
 -16 1309 -16 1309 -11 1316 c 128,-1,84
 -6 1323 -6 1323 -4 1323 c 256,85,86
 -2 1323 -2 1323 5.5 1318 c 128,-1,87
 13 1313 13 1313 21 1307 c 128,-1,88
 29 1301 29 1301 35 1296 c 128,-1,89
 41 1291 41 1291 41 1290 c 0,70,71
EndSplineSet
EndChar
StartChar: uni06DE
Encoding: 1758 1758 973
Width: 1585
GlyphClass: 2
Flags: W
LayerCount: 2
Fore
SplineSet
1518 444 m 1,0,1
 1483 434 1483 434 1460 428 c 128,-1,2
 1437 422 1437 422 1419 412 c 128,-1,3
 1401 402 1401 402 1384.5 385 c 128,-1,4
 1368 368 1368 368 1346 336 c 0,5,6
 1320 298 1320 298 1294.5 279.5 c 128,-1,7
 1269 261 1269 261 1243 258 c 1,8,9
 1259 236 1259 236 1264.5 205.5 c 128,-1,10
 1270 175 1270 175 1262 129 c 0,11,12
 1255 92 1255 92 1254.5 68 c 128,-1,13
 1254 44 1254 44 1260 23.5 c 128,-1,14
 1266 3 1266 3 1277.5 -18 c 128,-1,15
 1289 -39 1289 -39 1307 -70 c 1,16,17
 1276 -52 1276 -52 1255 -40.5 c 128,-1,18
 1234 -29 1234 -29 1213.5 -23 c 128,-1,19
 1193 -17 1193 -17 1169.5 -17.5 c 128,-1,20
 1146 -18 1146 -18 1108 -25 c 0,21,22
 1062 -33 1062 -33 1031.5 -27.5 c 128,-1,23
 1001 -22 1001 -22 979 -6 c 1,24,25
 981 -51 981 -51 962 -95.5 c 128,-1,26
 943 -140 943 -140 899 -195 c 0,27,28
 856 -249 856 -249 833.5 -308 c 128,-1,29
 811 -367 811 -367 793 -432 c 1,30,31
 776 -368 776 -368 752.5 -308 c 128,-1,32
 729 -248 729 -248 688 -195 c 0,33,34
 644 -140 644 -140 625.5 -95.5 c 128,-1,35
 607 -51 607 -51 608 -6 c 1,36,37
 587 -22 587 -22 556.5 -27.5 c 128,-1,38
 526 -33 526 -33 479 -25 c 0,39,40
 441 -18 441 -18 417 -17.5 c 128,-1,41
 393 -17 393 -17 373.5 -23 c 128,-1,42
 354 -29 354 -29 333.5 -40.5 c 128,-1,43
 313 -52 313 -52 281 -70 c 1,44,45
 299 -39 299 -39 310.5 -18 c 128,-1,46
 322 3 322 3 328 23.5 c 128,-1,47
 334 44 334 44 333.5 68 c 128,-1,48
 333 92 333 92 326 129 c 0,49,50
 316 175 316 175 321.5 205.5 c 128,-1,51
 327 236 327 236 342 258 c 1,52,53
 316 261 316 261 291 279.5 c 128,-1,54
 266 298 266 298 240 336 c 0,55,56
 218 368 218 368 201 385 c 128,-1,57
 184 402 184 402 166 412 c 128,-1,58
 148 422 148 422 125.5 428 c 128,-1,59
 103 434 103 434 68 444 c 1,60,61
 103 454 103 454 125.5 460.5 c 128,-1,62
 148 467 148 467 166 477 c 128,-1,63
 184 487 184 487 201 504.5 c 128,-1,64
 218 522 218 522 240 553 c 0,65,66
 266 591 266 591 291 609.5 c 128,-1,67
 316 628 316 628 342 631 c 1,68,69
 327 652 327 652 321.5 682.5 c 128,-1,70
 316 713 316 713 326 760 c 0,71,72
 333 798 333 798 333.5 821.5 c 128,-1,73
 334 845 334 845 328 864.5 c 128,-1,74
 322 884 322 884 310.5 904.5 c 128,-1,75
 299 925 299 925 281 956 c 1,76,77
 313 938 313 938 333.5 926.5 c 128,-1,78
 354 915 354 915 373.5 909 c 128,-1,79
 393 903 393 903 417 903.5 c 128,-1,80
 441 904 441 904 479 911 c 0,81,82
 526 921 526 921 556.5 915.5 c 128,-1,83
 587 910 587 910 608 893 c 1,84,85
 606 939 606 939 624.5 983.5 c 128,-1,86
 643 1028 643 1028 688 1083 c 0,87,88
 730 1137 730 1137 753 1196.5 c 128,-1,89
 776 1256 776 1256 793 1319 c 1,90,91
 811 1256 811 1256 833.5 1196.5 c 128,-1,92
 856 1137 856 1137 899 1083 c 0,93,94
 944 1028 944 1028 962.5 983.5 c 128,-1,95
 981 939 981 939 979 893 c 1,96,97
 1001 910 1001 910 1031.5 915.5 c 128,-1,98
 1062 921 1062 921 1108 911 c 0,99,100
 1146 904 1146 904 1169.5 903.5 c 128,-1,101
 1193 903 1193 903 1213.5 909 c 128,-1,102
 1234 915 1234 915 1255 926.5 c 128,-1,103
 1276 938 1276 938 1307 956 c 1,104,105
 1289 925 1289 925 1277.5 904.5 c 128,-1,106
 1266 884 1266 884 1260 864.5 c 128,-1,107
 1254 845 1254 845 1254.5 821.5 c 128,-1,108
 1255 798 1255 798 1262 760 c 0,109,110
 1270 713 1270 713 1264.5 682.5 c 128,-1,111
 1259 652 1259 652 1243 631 c 1,112,113
 1269 628 1269 628 1294.5 609.5 c 128,-1,114
 1320 591 1320 591 1346 553 c 0,115,116
 1368 522 1368 522 1384.5 504.5 c 128,-1,117
 1401 487 1401 487 1419 477 c 128,-1,118
 1437 467 1437 467 1460 460.5 c 128,-1,119
 1483 454 1483 454 1518 444 c 1,0,1
1223 752 m 0,120,121
 1215 789 1215 789 1213.5 817.5 c 128,-1,122
 1212 846 1212 846 1219 870 c 1,123,124
 1194 864 1194 864 1163.5 867 c 128,-1,125
 1133 870 1133 870 1103 873.5 c 128,-1,126
 1073 877 1073 877 1046.5 876.5 c 128,-1,127
 1020 876 1020 876 1004 864 c 0,128,129
 997 858 997 858 991 851 c 128,-1,130
 985 844 985 844 977.5 829.5 c 128,-1,131
 970 815 970 815 959.5 791 c 128,-1,132
 949 767 949 767 932 727 c 1,133,134
 943 721 943 721 952 715.5 c 128,-1,135
 961 710 961 710 971 702 c 1,136,137
 976 715 976 715 985 727 c 128,-1,138
 994 739 994 739 1010 750 c 0,139,140
 1037 771 1037 771 1063 766 c 0,141,142
 1077 763 1077 763 1089.5 761.5 c 128,-1,143
 1102 760 1102 760 1116 766 c 1,144,145
 1110 754 1110 754 1110.5 741.5 c 128,-1,146
 1111 729 1111 729 1114 715 c 256,147,148
 1117 701 1117 701 1113 688.5 c 128,-1,149
 1109 676 1109 676 1100 662 c 0,150,151
 1075 631 1075 631 1053 623 c 1,152,153
 1066 601 1066 601 1075 584 c 1,154,-1
 1096 592 l 2,155,156
 1116 600 1116 600 1133 607 c 128,-1,157
 1150 614 1150 614 1165 621 c 0,158,159
 1183 629 1183 629 1196 639.5 c 128,-1,160
 1209 650 1209 650 1217 665.5 c 128,-1,161
 1225 681 1225 681 1226.5 702 c 128,-1,162
 1228 723 1228 723 1223 752 c 0,120,121
895 741 m 1,163,164
 916 793 916 793 928.5 832 c 128,-1,165
 941 871 941 871 939.5 906.5 c 128,-1,166
 938 942 938 942 921 978 c 128,-1,167
 904 1014 904 1014 868 1059 c 0,168,169
 847 1085 847 1085 827 1120.5 c 128,-1,170
 807 1156 807 1156 793 1188 c 1,171,172
 779 1156 779 1156 760 1120.5 c 128,-1,173
 741 1085 741 1085 719 1059 c 0,174,175
 683 1014 683 1014 666.5 978 c 128,-1,176
 650 942 650 942 648.5 906.5 c 128,-1,177
 647 871 647 871 659 832 c 128,-1,178
 671 793 671 793 692 741 c 1,179,180
 703 744 703 744 713.5 747.5 c 128,-1,181
 724 751 724 751 735 754 c 1,182,183
 730 768 730 768 728 785 c 128,-1,184
 726 802 726 802 729 823 c 0,185,186
 735 857 735 857 758 883 c 0,187,188
 769 897 769 897 777.5 913 c 128,-1,189
 786 929 786 929 793 950 c 1,190,191
 801 929 801 929 809 913 c 128,-1,192
 817 897 817 897 829 883 c 0,193,194
 840 870 840 870 846.5 855 c 128,-1,195
 853 840 853 840 856 823 c 0,196,197
 859 802 859 802 857 785 c 128,-1,198
 855 768 855 768 850 754 c 1,199,200
 862 751 862 751 873 747.5 c 128,-1,201
 884 744 884 744 895 741 c 1,163,164
1395 444 m 1,202,203
 1374 457 1374 457 1354.5 480.5 c 128,-1,204
 1335 504 1335 504 1316 528 c 128,-1,205
 1297 552 1297 552 1278 570.5 c 128,-1,206
 1259 589 1259 589 1239 592 c 0,207,208
 1230 593 1230 593 1220.5 592 c 128,-1,209
 1211 591 1211 591 1195.5 586 c 128,-1,210
 1180 581 1180 581 1155.5 571.5 c 128,-1,211
 1131 562 1131 562 1090 545 c 1,212,213
 1099 522 1099 522 1102 502 c 1,214,215
 1114 507 1114 507 1129.5 509 c 128,-1,216
 1145 511 1145 511 1163 508 c 0,217,218
 1196 502 1196 502 1210 481 c 0,219,220
 1218 467 1218 467 1226.5 458 c 128,-1,221
 1235 449 1235 449 1249 444 c 1,222,223
 1235 439 1235 439 1226.5 430.5 c 128,-1,224
 1218 422 1218 422 1210 408 c 0,225,226
 1196 387 1196 387 1163 381 c 0,227,228
 1145 378 1145 378 1129.5 380 c 128,-1,229
 1114 382 1114 382 1102 387 c 1,230,231
 1099 362 1099 362 1090 344 c 1,232,-1
 1112 334 l 2,233,234
 1131 326 1131 326 1148.5 319.5 c 128,-1,235
 1166 313 1166 313 1182 305 c 0,236,237
 1200 299 1200 299 1216 297.5 c 128,-1,238
 1232 296 1232 296 1248 301 c 128,-1,239
 1264 306 1264 306 1280 320 c 128,-1,240
 1296 334 1296 334 1313 358 c 0,241,242
 1334 389 1334 389 1353.5 409.5 c 128,-1,243
 1373 430 1373 430 1395 444 c 1,202,203
653 727 m 1,244,245
 638 765 638 765 627 795.5 c 128,-1,246
 616 826 616 826 599.5 846 c 128,-1,247
 583 866 583 866 556.5 873.5 c 128,-1,248
 530 881 530 881 485 872 c 0,249,250
 450 866 450 866 420.5 865 c 128,-1,251
 391 864 391 864 367 870 c 1,252,253
 373 846 373 846 370 815 c 128,-1,254
 367 784 367 784 364 754 c 128,-1,255
 361 724 361 724 361.5 697.5 c 128,-1,256
 362 671 362 671 375 655 c 0,257,258
 380 648 380 648 387 642 c 128,-1,259
 394 636 394 636 408 628.5 c 128,-1,260
 422 621 422 621 446.5 610.5 c 128,-1,261
 471 600 471 600 512 584 c 1,262,263
 517 593 517 593 522.5 603 c 128,-1,264
 528 613 528 613 535 623 c 1,265,266
 522 628 522 628 510 637 c 128,-1,267
 498 646 498 646 487 662 c 0,268,269
 466 689 466 689 471 715 c 0,270,271
 476 729 476 729 476.5 741.5 c 128,-1,272
 477 754 477 754 471 766 c 1,273,274
 483 760 483 760 495.5 761.5 c 128,-1,275
 508 763 508 763 522 766 c 0,276,277
 548 771 548 771 575 750 c 0,278,279
 591 739 591 739 600.5 727 c 128,-1,280
 610 715 610 715 616 702 c 1,281,282
 626 710 626 710 635 715.5 c 128,-1,283
 644 721 644 721 653 727 c 1,244,245
1020 444 m 256,284,285
 1020 491 1020 491 1002 532 c 128,-1,286
 984 573 984 573 953.5 604 c 128,-1,287
 923 635 923 635 881.5 652.5 c 128,-1,288
 840 670 840 670 793 670 c 256,289,290
 746 670 746 670 705 652.5 c 128,-1,291
 664 635 664 635 633 604 c 128,-1,292
 602 573 602 573 584.5 532 c 128,-1,293
 567 491 567 491 567 444 c 256,294,295
 567 397 567 397 584.5 356 c 128,-1,296
 602 315 602 315 633 284.5 c 128,-1,297
 664 254 664 254 705 236.5 c 128,-1,298
 746 219 746 219 793 219 c 256,299,300
 840 219 840 219 881.5 236.5 c 128,-1,301
 923 254 923 254 953.5 284.5 c 128,-1,302
 984 315 984 315 1002 356 c 128,-1,303
 1020 397 1020 397 1020 444 c 256,284,285
1219 18 m 1,304,305
 1213 43 1213 43 1216 73.5 c 128,-1,306
 1219 104 1219 104 1222 134 c 128,-1,307
 1225 164 1225 164 1224.5 190.5 c 128,-1,308
 1224 217 1224 217 1212 233 c 0,309,310
 1207 240 1207 240 1200 246 c 128,-1,311
 1193 252 1193 252 1179 260 c 128,-1,312
 1165 268 1165 268 1140.5 278.5 c 128,-1,313
 1116 289 1116 289 1075 305 c 1,314,315
 1066 288 1066 288 1053 266 c 1,316,317
 1075 258 1075 258 1100 227 c 0,318,319
 1109 213 1109 213 1113 200.5 c 128,-1,320
 1117 188 1117 188 1114 174 c 256,321,322
 1111 160 1111 160 1110.5 147.5 c 128,-1,323
 1110 135 1110 135 1116 121 c 1,324,325
 1102 129 1102 129 1089.5 127.5 c 128,-1,326
 1077 126 1077 126 1063 123 c 256,327,328
 1049 120 1049 120 1036.5 124 c 128,-1,329
 1024 128 1024 128 1010 137 c 0,330,331
 994 150 994 150 985 161.5 c 128,-1,332
 976 173 976 173 971 184 c 1,333,334
 961 178 961 178 952 173 c 128,-1,335
 943 168 943 168 932 162 c 1,336,337
 947 124 947 124 958.5 93.5 c 128,-1,338
 970 63 970 63 986.5 43 c 128,-1,339
 1003 23 1003 23 1029 15.5 c 128,-1,340
 1055 8 1055 8 1100 16 c 0,341,342
 1137 23 1137 23 1165.5 24 c 128,-1,343
 1194 25 1194 25 1219 18 c 1,304,305
475 555 m 2,344,345
 455 563 455 563 438 569.5 c 128,-1,346
 421 576 421 576 406 584 c 0,347,348
 387 590 387 590 370 591.5 c 128,-1,349
 353 593 353 593 337 587.5 c 128,-1,350
 321 582 321 582 305 568.5 c 128,-1,351
 289 555 289 555 272 530 c 0,352,353
 251 499 251 499 231.5 478.5 c 128,-1,354
 212 458 212 458 190 444 c 1,355,356
 212 431 212 431 231.5 407.5 c 128,-1,357
 251 384 251 384 270 360.5 c 128,-1,358
 289 337 289 337 308 318.5 c 128,-1,359
 327 300 327 300 348 297 c 0,360,361
 357 296 357 296 365.5 297 c 128,-1,362
 374 298 374 298 389.5 302.5 c 128,-1,363
 405 307 405 307 430 316.5 c 128,-1,364
 455 326 455 326 496 344 c 1,365,366
 493 353 493 353 489.5 364 c 128,-1,367
 486 375 486 375 483 387 c 1,368,369
 471 382 471 382 457 380 c 128,-1,370
 443 378 443 378 424 381 c 0,371,372
 389 387 389 387 375 408 c 0,373,374
 367 422 367 422 358.5 430.5 c 128,-1,375
 350 439 350 439 338 444 c 1,376,377
 360 454 360 454 375 481 c 0,378,379
 389 502 389 502 424 508 c 0,380,381
 443 511 443 511 457 509 c 128,-1,382
 471 507 471 507 483 502 c 1,383,384
 486 513 486 513 489.5 523.5 c 128,-1,385
 493 534 493 534 496 545 c 1,386,-1
 475 555 l 2,344,345
895 147 m 1,387,388
 884 142 884 142 873 140 c 128,-1,389
 862 138 862 138 850 135 c 1,390,391
 855 121 855 121 857 103.5 c 128,-1,392
 859 86 859 86 856 63 c 0,393,394
 853 48 853 48 846.5 33.5 c 128,-1,395
 840 19 840 19 829 6 c 0,396,397
 817 -8 817 -8 809 -24 c 128,-1,398
 801 -40 801 -40 793 -61 c 1,399,400
 786 -40 786 -40 777.5 -24 c 128,-1,401
 769 -8 769 -8 758 6 c 0,402,403
 735 32 735 32 729 63 c 0,404,405
 726 86 726 86 728 103.5 c 128,-1,406
 730 121 730 121 735 135 c 1,407,408
 724 138 724 138 713.5 140 c 128,-1,409
 703 142 703 142 692 147 c 1,410,411
 671 96 671 96 659 57 c 128,-1,412
 647 18 647 18 648.5 -17.5 c 128,-1,413
 650 -53 650 -53 666.5 -89 c 128,-1,414
 683 -125 683 -125 719 -170 c 0,415,416
 741 -198 741 -198 760 -232.5 c 128,-1,417
 779 -267 779 -267 793 -299 c 1,418,419
 807 -267 807 -267 827 -232.5 c 128,-1,420
 847 -198 847 -198 868 -170 c 0,421,422
 904 -125 904 -125 921 -89 c 128,-1,423
 938 -53 938 -53 939.5 -17.5 c 128,-1,424
 941 18 941 18 928.5 57 c 128,-1,425
 916 96 916 96 895 147 c 1,387,388
653 162 m 1,426,427
 644 168 644 168 635 173 c 128,-1,428
 626 178 626 178 616 184 c 1,429,430
 610 173 610 173 600.5 161.5 c 128,-1,431
 591 150 591 150 575 137 c 0,432,433
 561 128 561 128 548.5 124 c 128,-1,434
 536 120 536 120 522 123 c 256,435,436
 508 126 508 126 495.5 127.5 c 128,-1,437
 483 129 483 129 471 121 c 1,438,439
 477 135 477 135 476.5 147.5 c 128,-1,440
 476 160 476 160 471 174 c 0,441,442
 466 200 466 200 487 227 c 0,443,444
 498 243 498 243 510 252 c 128,-1,445
 522 261 522 261 535 266 c 1,446,447
 528 276 528 276 522.5 286 c 128,-1,448
 517 296 517 296 512 305 c 1,449,-1
 489 297 l 2,450,451
 471 289 471 289 454 281.5 c 128,-1,452
 437 274 437 274 420 268 c 0,453,454
 403 260 403 260 390.5 249.5 c 128,-1,455
 378 239 378 239 370.5 223.5 c 128,-1,456
 363 208 363 208 361 187 c 128,-1,457
 359 166 359 166 365 137 c 0,458,459
 371 100 371 100 372 71.5 c 128,-1,460
 373 43 373 43 367 18 c 1,461,462
 391 24 391 24 422 21 c 128,-1,463
 453 18 453 18 483 15 c 128,-1,464
 513 12 513 12 539.5 12.5 c 128,-1,465
 566 13 566 13 582 25 c 0,466,467
 590 31 590 31 595.5 38 c 128,-1,468
 601 45 601 45 608.5 59 c 128,-1,469
 616 73 616 73 626.5 97 c 128,-1,470
 637 121 637 121 653 162 c 1,426,427
889 444 m 0,471,472
 889 404 889 404 861 377 c 128,-1,473
 833 350 833 350 793 350 c 0,474,475
 774 350 774 350 756.5 357 c 128,-1,476
 739 364 739 364 726 377 c 128,-1,477
 713 390 713 390 705.5 407 c 128,-1,478
 698 424 698 424 698 444 c 256,479,480
 698 464 698 464 705.5 481.5 c 128,-1,481
 713 499 713 499 726 512 c 128,-1,482
 739 525 739 525 756.5 532 c 128,-1,483
 774 539 774 539 793 539 c 0,484,485
 833 539 833 539 861 512 c 128,-1,486
 889 485 889 485 889 444 c 0,471,472
EndSplineSet
EndChar
StartChar: uni06E0
Encoding: 1760 1760 934
Width: 0
GlyphClass: 4
Flags: W
AnchorPoint: "Anchor-3" -15 915 mark 0
AnchorPoint: "Anchor-1" -15 915 mark 0
LayerCount: 2
Fore
SplineSet
59 1145 m 1,0,-1
 59 1008 l 1,1,-1
 -59 1008 l 1,2,-1
 -59 1145 l 1,3,-1
 59 1145 l 1,0,-1
EndSplineSet
EndChar
